SplineFontDB: 3.0
FontName: InconsolataLGC-Bold
FullName: Inconsolata LGC Bold
FamilyName: Inconsolata LGC
Weight: Bold
Copyright: Created by Raph Levien using his own tools and FontForge. Copyright 2006 Raph Levien. Released under the SIL Open Font License, http://scripts.sil.org/OFL.\n\nHellenisation of the Roman font, by Dimosthenis Kaponis, using FontForge. Hellenic glyphs Copyright 2010-2012 Dimosthenis Kaponis. Released under the SIL Open Font License, http://scripts.sil.org/OFL.\n\nCyrillic glyphs added by MihailJP, using FontForge. Cyrillic glyphs Copyright 2012 MihailJP. Released under the SIL Open Font License, http://scripts.sil.org/OFL.\n\nEmboldened by MihailJP.
UComments: "2005-8-26: Created." 
Version: 1.1.0
ItalicAngle: 0
UnderlinePosition: -100
UnderlineWidth: 50
Ascent: 820
Descent: 180
LayerCount: 2
Layer: 0 0 "Back"  1
Layer: 1 0 "Fore"  0
XUID: [1021 77 1780377399 11264577]
FSType: 8
OS2Version: 0
OS2_WeightWidthSlopeOnly: 0
OS2_UseTypoMetrics: 0
CreationTime: 1161020814
ModificationTime: 1335802272
PfmFamily: 17
TTFWeight: 700
TTFWidth: 5
LineGap: 200
VLineGap: 0
Panose: 2 11 8 9 3 0 3 0 0 0
OS2TypoAscent: 0
OS2TypoAOffset: 1
OS2TypoDescent: 0
OS2TypoDOffset: 1
OS2TypoLinegap: 0
OS2WinAscent: 0
OS2WinAOffset: 1
OS2WinDescent: 0
OS2WinDOffset: 1
HheadAscent: 0
HheadAOffset: 1
HheadDescent: 0
HheadDOffset: 1
OS2Vendor: 'PfEd'
MarkAttachClasses: 1
DEI: 91125
LangName: 1033 
Encoding: UnicodeBmp
UnicodeInterp: none
NameList: Adobe Glyph List
DisplaySize: -72
AntiAlias: 1
FitToEm: 1
WinInfo: 64 8 2
BeginPrivate: 6
BlueValues 31 [-14 0 529 542 722 730 749 777]
OtherBlues 11 [-201 -193]
StemSnapH 16 [20 63 68 72 79]
StdHW 4 [68]
StemSnapV 7 [77 84]
StdVW 4 [84]
EndPrivate
Grid
-1000 666.743 m 0
 2000 666.743 l 0
-1000 308 m 0
 2000 308 l 0
-1000 1054 m 0
 2000 1054 l 0
-1000 723 m 0
 2000 723 l 0
  Named: "capitals" 
-1000 541 m 0
 2000 541 l 0
156 1320 m 0
 156 -680 l 0
265 1320 m 0
 265 -680 l 0
168 917 m 25
 406.5 917 l 25
EndSplineSet

StartChar: a
Encoding: 97 97 0
Width: 600
Flags: W
TeX: 97 0
LayerCount: 2
Fore
SplineSet
95.2162 453.059 m 1
 104.183 462.392 l 2
 156.607 516.955 229.879 541 304 541 c 0
 389.45 541 462.338 511.211 500.895 450.672 c 1
 527.145 408.186 529 366.026 529 324.979 c 0
 529 0 l 1
 420 0 l 1
 420 43.1721 l 1
 363.853 5.25793 304.729 -13 245 -13 c 0
 127.259 -13 52 61.3456 52 145.028 c 0
 52 208.14 94.8923 271.678 182.786 303.118 c 1
 249.302 326.539 326.719 327.005 399.592 327.005 c 0
 405.426 327.005 411.231 327 417 327 c 0
 419 327 l 1
 419 330.542 l 0
 419 355.483 418.418 382.714 404.099 404.345 c 1
 391.786 422.517 366.443 443 308 443 c 0
 261.551 443 205.97 429.583 166.845 388.637 c 0
 154.802 376.034 l 1
 95.2162 453.059 l 1
422 214.796 m 0
 422 233 l 1
 418 233 l 0
 398.399 233 377.014 233.374 355.5 233.374 c 0
 316.127 233.374 276.025 232.078 247.443 226.115 c 1
 187.08 212.793 166 178.823 166 150.189 c 0
 166 116.146 198.463 81 262 81 c 0
 324.769 81 372.666 116.455 390.111 133.168 c 0
 422.476 164.263 422 190.493 422 214.796 c 0
EndSplineSet
Validated: 1
EndChar

StartChar: c
Encoding: 99 99 1
Width: 600
Flags: W
TeX: 99 0
LayerCount: 2
Fore
SplineSet
551.391 435.453 m 0
 557.858 425.974 l 1
 482.229 337.526 l 1
 470.964 346.027 l 0
 452.611 359.877 459.263 378.071 459.263 378.071 c 1
 454.786 385.534 415.076 439.074 335.78 439.074 c 0
 247.357 439.074 175.969 377.158 175.969 272.56 c 0
 175.969 164.57 249.255 92.9789 342.756 92.9789 c 0
 391.391 92.9789 438.762 114.542 471.753 151.925 c 0
 483.165 164.857 l 1
 551.094 85.6053 l 1
 541.997 75.7984 l 0
 488.568 18.2065 413.68 -13.0011 335.781 -13.0011 c 0
 177.231 -13.0011 59.9996 106.161 59.9996 264.458 c 0
 59.9996 422.243 176.993 540.028 341.051 540.028 c 0
 430.565 540.028 506.711 500.949 551.391 435.453 c 0
EndSplineSet
Validated: 1
EndChar

StartChar: m
Encoding: 109 109 2
Width: 600
Flags: W
TeX: 109 0
LayerCount: 2
Fore
SplineSet
145 0 m 1
 39 0 l 1
 39 529 l 1
 146.291 529 l 1
 145.802 503.554 l 1
 171.6 526.851 203.346 542 238 542 c 0
 280.96 542 316.725 518.908 335.455 484.942 c 1
 362.828 520.636 405.386 542 451 542 c 0
 483.463 542 522.242 530.007 545.49 495.859 c 1
 568.994 463.374 570.041 424.076 570.041 388.374 c 0
 570.041 382.348 570 376.372 570 370.476 c 0
 570 -1 l 1
 461 -1 l 1
 461 363.5 l 0
 461 372.96 461.422 382.759 461.422 392.346 c 0
 461.422 408.378 459.807 423.598 455.335 434.314 c 1
 447.964 449.225 437.668 454.5 427 454.5 c 0
 405.599 454.5 387.282 442.17 377.88 426.5 c 1
 360.281 396.858 358 391.802 358 365 c 0
 358 0 l 1
 250 0 l 1
 250 358.962 l 0
 250 366.767 250.264 374.617 250.264 382.346 c 0
 250.264 395.872 249.381 408.986 245.662 420.44 c 1
 238.551 441.915 223.803 448 211 448 c 0
 197.174 448 177.548 439.406 160.203 409.461 c 1
 146.697 385.833 145 367.556 145 344.904 c 0
 145 0 l 1
EndSplineSet
EndChar

StartChar: s
Encoding: 115 115 3
Width: 600
Flags: W
TeX: 115 0
LayerCount: 2
Fore
SplineSet
522.108 454.08 m 0
 529.997 445.387 l 1
 468.653 353.997 l 1
 458.527 356.408 l 0
 451.895 357.986 440.87 365.815 440.967 380.417 c 0
 440.979 382.113 441.035 382.96 441.035 382.96 c 1
 422.127 406.956 374.728 449.074 306.539 449.074 c 0
 248.965 449.074 210 422.257 210 395.286 c 0
 210 384.3 214.627 365.394 253.973 347.541 c 0
 299.764 326.763 386.059 315.29 449.338 281.938 c 0
 516.752 246.409 534.699 195.843 534.699 157.271 c 0
 534.699 72.624 449.978 -12.0003 299.462 -12.0003 c 0
 215.856 -12.0003 131.097 15.2863 65.7857 76.0151 c 0
 57.0286 84.1578 l 1
 117.898 189.411 l 1
 130.353 183.588 l 0
 146.504 176.038 144.12 158.551 144.114 158.415 c 0
 144.052 157.055 144.004 156.184 144.004 156.184 c 1
 160.082 138.13 214.386 88 297.964 88 c 0
 371.876 88 419.068 119.333 419.068 152.495 c 0
 419.068 165.285 413.986 185.855 374.886 203.022 c 0
 338.091 219.177 279.757 232.49 233.869 248.05 c 0
 207.081 257.132 94.997 290.813 94.997 389.32 c 0
 94.997 474.303 185.946 542.004 313.496 542.004 c 0
 395.517 542.004 470.108 511.385 522.108 454.08 c 0
EndSplineSet
Validated: 1
EndChar

StartChar: I
Encoding: 73 73 4
Width: 600
Flags: W
TeX: 73 0
LayerCount: 2
Fore
SplineSet
97 624 m 1
 97 722 l 1
 485 722 l 1
 485 624 l 1
 342 624 l 1
 342 96 l 1
 492 96 l 1
 492 -1 l 1
 89 -1 l 1
 89 97 l 1
 231 97 l 1
 231 624 l 1
 97 624 l 1
EndSplineSet
Validated: 1
EndChar

StartChar: o
Encoding: 111 111 5
Width: 600
Flags: W
TeX: 111 0
LayerCount: 2
Fore
SplineSet
307.44 541.005 m 0
 436.573 541.005 558.113 442.432 558.113 262.365 c 0
 558.113 89.2352 439.258 -14 304.969 -14 c 0
 162.478 -14 41.8677 101.038 41.8677 260.728 c 0
 41.8677 422.652 163.271 541.005 307.44 541.005 c 0
444.167 259.253 m 0
 444.167 387.789 368.297 440.103 301.758 440.103 c 0
 230.933 440.103 159.985 381.746 159.985 267.511 c 0
 159.985 152.219 231.844 87.9927 305.614 87.9927 c 0
 372.943 87.9927 444.167 141.886 444.167 259.253 c 0
EndSplineSet
Validated: 1
EndChar

StartChar: n
Encoding: 110 110 6
Width: 600
Flags: W
TeX: 110 0
LayerCount: 2
Fore
SplineSet
189 0 m 1
 74 0 l 1
 74 529 l 1
 189 529 l 1
 189 464.521 l 1
 230.3 509.428 286.997 542.003 349.957 542.003 c 0
 416.1 542.003 475.927 506.445 504.616 445.007 c 0
 524.99 401.379 525 357.489 525 318.378 c 0
 525 0 l 1
 413 0 l 1
 413 312.662 l 0
 413 348.056 411.954 385.997 387.607 413.233 c 0
 371.544 431.2 349.819 439.58 327.341 439.58 c 0
 279.362 439.58 231.14 399.709 212.305 376.214 c 0
 192.571 351.598 189 331.845 189 299.556 c 0
 189 0 l 1
EndSplineSet
Validated: 1
EndChar

StartChar: l
Encoding: 108 108 7
Width: 600
Flags: W
TeX: 108 0
LayerCount: 2
Fore
SplineSet
93 673 m 1
 93 770 l 1
 357 770 l 1
 357 97 l 1
 513 97 l 1
 513 0 l 1
 86 0 l 1
 86 97 l 1
 243 97 l 1
 243 673 l 1
 93 673 l 1
EndSplineSet
Validated: 1
EndChar

StartChar: t
Encoding: 116 116 8
Width: 600
Flags: W
TeX: 116 0
LayerCount: 2
Fore
SplineSet
204.019 529 m 1
 213.869 668.873 l 1
 327.471 687.599 l 1
 332.416 677.708 l 0
 335.276 671.989 335 666.811 335 665 c 0
 335 649.283 327.626 640.987 326.761 637.328 c 1
 323.1 614.823 317.79 557.424 315.359 530 c 1
 487 530 l 1
 487 431 l 1
 311.606 431 l 1
 305.542 371.595 303 313.731 303 254.824 c 0
 303 186.903 305.664 169.104 305.975 162.383 c 1
 314.295 111.727 347.467 97 380 97 c 0
 408.501 97 446.777 110.304 490.13 142.096 c 0
 505.823 153.605 l 1
 543.194 58.7409 l 1
 533.87 51.9039 l 0
 486.817 17.3976 423.106 -10 356 -10 c 0
 298.061 -10 250.96 11.3938 222.766 48.3507 c 1
 188.339 94.1023 189 147.626 189 191.306 c 0
 189 270.697 192.703 352.472 198.833 431 c 1
 75.7778 431 l 1
 77.219 529 l 1
 204.019 529 l 1
EndSplineSet
Validated: 1
EndChar

StartChar: e
Encoding: 101 101 9
Width: 600
Flags: W
TeX: 101 0
LayerCount: 2
Fore
SplineSet
51 259.308 m 0
 51 449.26 174.805 542 310 542 c 0
 401.568 542 508.503 493.532 533.76 351.095 c 1
 537.742 331.498 539.638 310.156 539.638 288.453 c 0
 539.638 276.242 539.057 263.781 537.948 251.107 c 0
 536.802 238 l 1
 163.025 238 l 1
 175.787 112.658 263.996 85 327 85 c 0
 376.001 85 420.764 104.281 452.836 140.019 c 0
 463.295 151.673 l 1
 530.39 86.0372 l 1
 521.523 75.3972 l 0
 473.216 17.4296 399.607 -12 320 -12 c 0
 169.288 -12 51 84.1604 51 259.308 c 0
304 448 m 0
 255.44 448 187.256 422.783 167.557 332 c 1
 427.034 332 l 1
 427.081 334.145 427.073 333.842 427.073 335.018 c 0
 427.073 397.45 374.972 448 304 448 c 0
EndSplineSet
Validated: 1
EndChar

StartChar: b
Encoding: 98 98 11
Width: 600
Flags: W
TeX: 98 0
LayerCount: 2
Fore
SplineSet
438 254.952 m 0
 438 419.83 341.318 440 298 440 c 0
 251.471 440 209.3 416.173 191.854 377.628 c 0
 181.272 354.082 179 324.721 179 280.73 c 0
 179 238.483 179.075 209.936 181.89 185.747 c 0
 194.393 102.703 263.858 92 297 92 c 0
 343.337 92 438 114.262 438 254.952 c 0
64 0 m 1
 64 771 l 1
 188.315 771 l 1
 191.423 760.121 l 2
 196.682 741.714 181.553 732.34 181.553 732.34 c 1
 180.556 731.343 l 1
 179.32 730.519 l 2
 179.153 730.407 179.039 730.36 178.966 730.348 c 1
 178.986 730.278 179 730.167 179 730 c 2
 179 477.861 l 1
 217.51 518.525 270.358 542 327 542 c 0
 440.264 542 555 452.322 555 270.667 c 0
 555 82.5193 436.496 -13 319 -13 c 0
 259.079 -13 204.264 12.4087 165.967 55.3847 c 1
 143.022 0 l 1
 64 0 l 1
EndSplineSet
Validated: 1
EndChar

StartChar: H
Encoding: 72 72 12
Width: 600
Flags: W
TeX: 72 0
LayerCount: 2
Fore
SplineSet
58 0 m 1
 58 722 l 1
 172.27 722 l 1
 176.416 713.708 l 0
 178.291 710.146 179.252 706.226 179.252 702.264 c 0
 179.252 682.479 172 684.775 172 680.731 c 0
 172 428 l 1
 425 428 l 1
 425 722 l 1
 536.498 722 l 1
 540.866 714.711 l 0
 543.15 711.053 544.336 706.878 544.336 702.643 c 0
 544.336 680.841 536 684.623 536 682.356 c 0
 536 -1 l 1
 424 -1 l 1
 424 329 l 1
 172 329 l 1
 172 0 l 1
 58 0 l 1
EndSplineSet
Validated: 1
EndChar

StartChar: g
Encoding: 103 103 13
Width: 600
Flags: W
TeX: 103 0
LayerCount: 2
Fore
SplineSet
273 466 m 0
 216.361 466 171 419.775 171 364 c 0
 171 308.288 216.288 263 272 263 c 0
 328.812 263 374 308.347 374 364 c 0
 374 419.835 328.539 466 273 466 c 0
65 353.575 m 0
 65 461.411 164.444 547 278 547 c 0
 325.419 547 370.058 529.987 403.869 500.691 c 1
 442.448 528.839 487.783 543.575 534.728 543.575 c 0
 540.186 543.575 545.657 543.371 551.13 542.957 c 0
 563.095 542.053 l 1
 577.938 441.115 l 1
 557.058 445.291 l 0
 548.005 447.102 539.092 448 529 448 c 0
 504.711 448 479.682 442.224 458.036 432.256 c 1
 472.591 406.681 479 379.987 479 352.101 c 0
 479 251.486 385.797 166 273 166 c 0
 251.141 166 230.018 169.489 209.244 176.038 c 1
 198.055 166.391 183 148.845 183 136.353 c 0
 183 128.48 188.01 121.992 203.946 117.338 c 1
 214.909 114.843 237.433 111.338 276 111.338 c 0
 300.072 111.338 325.372 112.586 350.968 112.586 c 0
 387.624 112.586 425.558 110.014 460.637 96.4235 c 1
 522.102 74.0521 552 24.9449 552 -23 c 0
 552 -104.37 478.132 -199 294 -199 c 0
 105.721 -199 39 -129.468 39 -59 c 0
 39 -16.5514 68.2605 20.9928 114.398 52.6491 c 1
 89.6778 73.5288 83 100.204 83 120.132 c 0
 83 154.237 103.612 187.782 134.229 216.128 c 1
 89.8262 250.46 65 299.674 65 353.575 c 0
285.433 22.0094 m 1
 247.473 22.9352 218.618 25.753 200.123 27.611 c 1
 171.309 11.3485 146 -12.3892 146 -39 c 0
 146 -52.8434 151.139 -75.2739 188.543 -90.0617 c 1
 225.336 -104.779 268.466 -106 292 -106 c 0
 327.608 -106 369.684 -103.695 403.806 -84.8376 c 1
 437.088 -66.8469 446 -44.9231 446 -28 c 0
 446 -10.6002 437.636 12.3302 395.831 19.1555 c 1
 382.213 20.9126 363.943 21.25 345 21.25 c 0
 338.626 21.25 332.098 21.2222 325.481 21.2222 c 0
 312.38 21.2222 298.402 21.3442 285.433 22.0094 c 1
EndSplineSet
Validated: 1
EndChar

StartChar: h
Encoding: 104 104 14
Width: 600
Flags: W
TeX: 104 0
LayerCount: 2
Fore
SplineSet
191 0 m 1
 76 0 l 1
 76 770 l 1
 197.741 770 l 1
 201.201 759.831 l 0
 202.115 757.145 202.572 754.339 202.572 751.526 c 0
 202.572 737.257 191.7 729.432 191.094 728.793 c 0
 191.094 728.793 191 728.76 191 728 c 0
 191 464.521 l 1
 232.3 509.428 288.997 542.003 351.957 542.003 c 0
 418.1 542.003 477.927 506.445 506.616 445.007 c 0
 526.99 401.379 527 357.489 527 318.378 c 0
 527 0 l 1
 415 0 l 1
 415 312.662 l 0
 415 348.056 413.954 385.997 389.607 413.233 c 0
 373.544 431.2 351.819 439.58 329.341 439.58 c 0
 281.362 439.58 233.14 399.709 214.305 376.214 c 0
 194.571 351.598 191 331.845 191 299.556 c 0
 191 0 l 1
EndSplineSet
Validated: 1
EndChar

StartChar: u
Encoding: 117 117 15
Width: 600
Flags: W
TeX: 117 0
LayerCount: 2
Fore
SplineSet
67 235.283 m 1
 68.0508 529 l 1
 182 529 l 1
 182 238.62 l 0
 182 204.729 182.386 169.186 199.38 138.186 c 1
 218.096 103.124 250.742 85 287 85 c 0
 331.27 85 374.001 113.25 395.832 150.741 c 0
 412.133 178.736 415 204.473 415 242.367 c 0
 415 529 l 1
 529 529 l 1
 529 59.619 l 0
 529 45.0395 530.004 31.4899 534.317 18.429 c 0
 540.403 0 l 1
 418.991 0 l 1
 417.151 12.8787 l 0
 415.292 25.8909 415.039 39.5197 415.005 50.2142 c 1
 376.297 10.0938 323.487 -13 268 -13 c 0
 193.435 -13 122.71 26.2743 89.3192 97.7199 c 1
 66.7477 144.569 67 191.83 67 235.283 c 1
EndSplineSet
Validated: 1
EndChar

StartChar: r
Encoding: 114 114 16
Width: 600
Flags: W
TeX: 114 0
LayerCount: 2
Fore
SplineSet
110 -1 m 1
 110 529 l 1
 227.448 529 l 1
 225.579 465.454 l 1
 270.098 516.932 335.003 541.803 399.502 541.803 c 0
 463.049 541.803 515.742 516.347 551.733 479.478 c 0
 559.111 471.921 l 1
 506.481 363.961 l 1
 491.633 378.159 l 0
 480.268 389.027 475.838 399.541 470.54 406.308 c 0
 458.035 422.284 434.484 440.205 394.944 440.205 c 0
 361.101 440.205 303.86 429.756 258.899 363.199 c 0
 224.398 312.125 224 283.742 224 254.619 c 0
 224 -1 l 1
 110 -1 l 1
EndSplineSet
Validated: 1
EndChar

StartChar: i
Encoding: 105 105 17
Width: 600
Flags: W
TeX: 105 0
LayerCount: 2
Fore
SplineSet
118 432 m 1
 118 530 l 1
 360 530 l 1
 360 97 l 1
 484 97 l 1
 484 0 l 1
 111 0 l 1
 111 97 l 1
 246 97 l 1
 246 432 l 1
 118 432 l 1
229.981 685.486 m 0
 229.981 726.644 263.626 760 305.003 760 c 0
 346.362 760 380.019 726.664 380.019 685.493 c 0
 380.019 644.344 346.375 610.992 304.99 610.992 c 0
 263.626 610.992 229.981 644.333 229.981 685.486 c 0
EndSplineSet
Validated: 1
EndChar

StartChar: f
Encoding: 102 102 18
Width: 600
Flags: W
TeX: 102 0
LayerCount: 2
Fore
SplineSet
214.231 677.871 m 1
 254.537 743.234 329.914 777 408 777 c 0
 478.934 777 540.526 749.228 581.564 699.553 c 0
 587.748 692.068 l 1
 541.325 598 l 1
 532 598 l 0
 521.67 598 509.068 607.181 508.015 621.594 c 1
 507.575 624.368 507.474 626.055 507.429 626.453 c 1
 506.816 627.218 l 1
 506.406 627.851 l 0
 487.059 657.753 449.603 682 404 682 c 0
 364.452 682 329.069 664.318 310.042 630.591 c 1
 294.234 602.927 292.992 569.427 292.992 534.431 c 0
 292.992 530.957 293 527.478 293 524 c 0
 293 499.408 l 1
 466 499.408 l 1
 466 408.607 l 1
 293 408.607 l 1
 293 0 l 1
 183 0 l 1
 183 409.062 l 1
 68 409.062 l 1
 68 499.965 l 1
 183 499.965 l 1
 183 535 l 0
 183 582.225 184.885 630.049 214.231 677.871 c 1
EndSplineSet
Validated: 1
EndChar

StartChar: v
Encoding: 118 118 19
Width: 600
Flags: W
TeX: 118 0
LayerCount: 2
Fore
SplineSet
255.781 -4 m 1
 33.9829 530 l 1
 168.163 530 l 1
 170.676 518.1 l 0
 173.917 502.756 167.304 492.296 167.304 492.296 c 1
 167.42 491.895 167.563 491.492 167.949 490.515 c 0
 307.606 137.267 l 1
 378.227 300.942 l 0
 408.022 370 435.56 442.356 449.241 517.681 c 0
 451.479 530 l 1
 557.628 530 l 1
 553.655 512.769 l 0
 535.718 434.966 505.601 361.06 473.794 290.559 c 0
 340.904 -4 l 1
 255.781 -4 l 1
EndSplineSet
Validated: 1
EndChar

StartChar: d
Encoding: 100 100 20
Width: 600
Flags: W
TeX: 100 0
LayerCount: 2
Fore
SplineSet
284.756 543.089 m 0
 342.857 543.089 392.105 521.02 425 485.798 c 1
 425 771 l 1
 543.206 771 l 1
 543.978 756.815 l 0
 544.738 742.84 536.961 733.181 535.239 730.518 c 0
 532.162 725.761 532.993 727.96 533 723.022 c 0
 534 61.471 l 0
 534.023 46.539 534.858 31.668 538.526 17.9947 c 0
 543.353 0 l 1
 430.156 0 l 1
 426.756 10.297 l 0
 421.709 25.5837 421.04 40.9689 420.999 53.8902 c 1
 382.902 12.5638 329.565 -11.7426 272.502 -11.7426 c 0
 160.544 -11.7426 46.9989 77.8548 46.9989 268.913 c 0
 46.9989 467.985 176.002 543.089 284.756 543.089 c 0
409.897 360.135 m 0
 391.186 424.842 330.632 445.041 288.638 445.041 c 0
 235.556 445.041 157.873 413.844 157.873 281.611 c 0
 157.873 126.434 241.051 91.8091 291.87 91.8091 c 0
 340.374 91.8091 389.51 121.742 407.978 174.755 c 0
 415.803 197.217 418.29 223.002 418.29 259.301 c 0
 418.29 313.516 415.864 339.5 409.897 360.135 c 0
EndSplineSet
Validated: 1
EndChar

StartChar: p
Encoding: 112 112 21
Width: 600
Flags: W
TeX: 112 0
LayerCount: 2
Fore
SplineSet
65.0208 -193 m 1
 63.9792 529 l 1
 179 529 l 1
 179 476.542 l 1
 219.63 518.242 273.108 541 331 541 c 0
 443.933 541 561 454.41 561 270.615 c 0
 561 80.5164 441.405 -14 324 -14 c 0
 269.293 -14 217.046 8.31173 180 43.9593 c 1
 180 -193 l 1
 65.0208 -193 l 1
444 253.947 m 0
 444 423.895 341.06 440 301 440 c 0
 252.193 440 209.276 416.11 191.779 377.432 c 1
 181.213 355.536 179 328.433 179 287.105 c 0
 179 215.896 179.63 177.949 192.796 148.847 c 1
 210.79 110.963 254.632 90 300 90 c 0
 344.869 90 444 109.886 444 253.947 c 0
EndSplineSet
Validated: 1
EndChar

StartChar: q
Encoding: 113 113 22
Width: 600
Flags: W
TeX: 113 0
LayerCount: 2
Fore
SplineSet
289 543 m 0
 358.574 543 402.813 512.42 428 485.473 c 1
 428 529 l 1
 537 529 l 1
 537 -193 l 1
 424 -193 l 1
 424 53.8018 l 1
 386.458 12.8428 333.542 -12 277 -12 c 0
 149.322 -12 44 101.466 44 269.769 c 0
 44 447.235 164.199 543 289 543 c 0
408.915 371.117 m 1
 388.462 424.391 334.427 445 292 445 c 0
 229.927 445 158 402.115 158 280.943 c 0
 158 147.134 230.866 92 295 92 c 0
 343.313 92 392.606 121.984 410.736 174.62 c 1
 418.945 197.319 421 223.206 421 258.822 c 0
 421 317.839 418.785 347.134 408.915 371.117 c 1
EndSplineSet
Validated: 1
EndChar

StartChar: y
Encoding: 121 121 23
Width: 600
Flags: W
TeX: 121 0
LayerCount: 2
Fore
SplineSet
261.721 15.4609 m 1
 40.6802 529 l 1
 181.092 529 l 1
 181.971 514.935 l 0
 183.026 498.052 176.833 489.748 176.833 489.226 c 0
 176.833 488.589 176.733 488.578 177.939 485.54 c 0
 318.221 132.575 l 1
 405.867 379.026 l 0
 421.97 424.304 436.727 470.488 445.238 517.663 c 0
 447.464 530 l 1
 567.175 530 l 1
 561.364 511.63 l 0
 545.639 461.915 527.117 413.276 508.033 365.22 c 0
 343.033 -50.2986 l 0
 331.691 -80.3361 319.734 -110.582 294.593 -138.87 c 0
 256.041 -182.246 202.07 -201.18 150.696 -201.18 c 0
 103.75 -201.18 59.199 -184.981 25.626 -152.834 c 0
 17.1507 -144.719 l 1
 74.6076 -44.5035 l 1
 88.2508 -55.1922 l 0
 101.521 -65.5888 101.523 -78.8492 101.523 -78.8492 c 1
 103.764 -82.6104 119.803 -102.772 150.447 -102.772 c 0
 170.877 -102.772 194.161 -93.8495 213.54 -73.2141 c 0
 228.161 -57.6435 238.166 -36.8458 247.25 -16.0062 c 0
 261.721 15.4609 l 1
EndSplineSet
Validated: 1
EndChar

StartChar: period
Encoding: 46 46 24
Width: 600
Flags: W
TeX: 112 0
LayerCount: 2
Fore
SplineSet
286.462 120.002 m 0
 332.514 120.002 370.002 83.5713 370.002 38.4929 c 0
 370.002 -6.59864 332.512 -43.046 286.441 -43.046 c 0
 240.447 -43.046 202.952 -6.62077 202.952 38.509 c 0
 202.952 83.5701 240.421 120.002 286.462 120.002 c 0
EndSplineSet
Validated: 1
EndChar

StartChar: comma
Encoding: 44 44 25
Width: 600
Flags: W
TeX: 99 0
LayerCount: 2
Fore
SplineSet
283.672 118.93 m 0
 334.421 118.93 379.152 73.8709 379.152 7.8349 c 0
 379.152 -50.4677 333.407 -118.453 251.687 -190.526 c 0
 241.764 -200.6 l 1
 178.539 -153.387 l 1
 190.846 -143.727 l 0
 216.845 -123.321 235.607 -100.203 246.457 -84.9903 c 0
 251.932 -77.314 261.427 -62.046 261.427 -50.447 c 0
 261.427 -37.3523 251.652 -31.9865 240.977 -25.9273 c 0
 231.288 -19.4831 201.973 -1.72526 201.973 37.8528 c 0
 201.973 80.9301 237.008 118.93 283.672 118.93 c 0
EndSplineSet
Validated: 1
EndChar

StartChar: plus
Encoding: 43 43 28
Width: 600
Flags: W
TeX: 112 0
LayerCount: 2
Fore
SplineSet
252 423 m 1
 252 606 l 1
 355 606 l 1
 355 423 l 1
 553 423 l 1
 553 322 l 1
 355 322 l 1
 355 105 l 1
 252 105 l 1
 252 322 l 1
 47 322 l 1
 47 423 l 1
 252 423 l 1
EndSplineSet
Validated: 1
EndChar

StartChar: minus
Encoding: 8722 8722 29
Width: 600
Flags: W
TeX: 104 0
LayerCount: 2
Fore
SplineSet
47 327 m 1
 47 428 l 1
 553 428 l 1
 553 327 l 1
 47 327 l 1
EndSplineSet
Validated: 1
EndChar

StartChar: underscore
Encoding: 95 95 31
Width: 600
Flags: W
TeX: 117 0
LayerCount: 2
Fore
SplineSet
35 -123 m 1
 35 -22 l 1
 565 -22 l 1
 565 -123 l 1
 35 -123 l 1
EndSplineSet
Validated: 1
EndChar

StartChar: less
Encoding: 60 60 32
Width: 600
Flags: W
TeX: 108 0
LayerCount: 2
Fore
SplineSet
556 552.449 m 1
 170.737 369.347 l 1
 559 163.84 l 1
 559 41.8506 l 1
 35 334.382 l 1
 35 408.063 l 1
 556 668.548 l 1
 556 552.449 l 1
EndSplineSet
Validated: 1
EndChar

StartChar: greater
Encoding: 62 62 33
Width: 600
Flags: W
TeX: 103 0
LayerCount: 2
Fore
SplineSet
44 552.449 m 1
 44 668.548 l 1
 565 408.063 l 1
 565 334.382 l 1
 41 41.8506 l 1
 41 163.84 l 1
 429.263 369.347 l 1
 44 552.449 l 1
EndSplineSet
Validated: 1
EndChar

StartChar: quotesingle
Encoding: 39 39 34
Width: 600
Flags: W
TeX: 113 0
LayerCount: 2
Fore
SplineSet
327.505 772.143 m 0
 359.493 772.143 387 748.318 387 691 c 2
 387 581.143 l 1
 389.291 461.999 l 1
 262.152 461.999 l 1
 261.048 505.803 l 0
 256.945 551.903 260.951 552.67 259.012 596.216 c 0
 258.906 598.598 l 1
 259.716 600.869 l 0
 263.979 612.824 257 622.023 257 647.085 c 0
 257 699.214 l 0
 257 747.81 297.037 772.143 327.505 772.143 c 0
EndSplineSet
Validated: 1
EndChar

StartChar: grave
Encoding: 96 96 35
Width: 600
Flags: W
TeX: 103 0
LayerCount: 2
Fore
SplineSet
280.25 352.828 m 2
 217.025 463.164 l 1
 155.406 566.776 l 1
 152.345 785.882 l 1
 180.455 744 l 0
 209.705 704.185 210.102 696.949 238.084 655.633 c 0
 238.89 654.33 l 1
 239.416 652.891 l 0
 249.677 624.827 254.797 630.138 270.42 602.925 c 0
 303.698 552.423 l 0
 332.38 500.394 344.406 414.633 344.97 369.438 c 0
 345.234 353.645 347.827 333.678 329.967 324.853 c 0
 307.388 312.815 290.856 337.253 280.25 352.828 c 2
EndSplineSet
EndChar

StartChar: slash
Encoding: 47 47 36
Width: 600
Flags: W
TeX: 115 0
LayerCount: 2
Fore
SplineSet
159.103 -54.3219 m 1
 64.2786 -6.90983 l 1
 439.914 775.414 l 1
 535.706 728.519 l 1
 159.103 -54.3219 l 1
EndSplineSet
Validated: 1
EndChar

StartChar: backslash
Encoding: 92 92 37
Width: 600
Flags: W
TeX: 98 0
LayerCount: 2
Fore
SplineSet
160.086 775.414 m 1
 535.721 -6.90983 l 1
 440.897 -54.3219 l 1
 64.294 728.519 l 1
 160.086 775.414 l 1
EndSplineSet
Validated: 1
EndChar

StartChar: micro
Encoding: 181 181 38
Width: 600
Flags: W
TeX: 117 0
LayerCount: 2
Fore
SplineSet
22.8876 -193 m 1
 23.0004 -177.888 l 2
 24.0117 -47.8781 46 92.012 46 231.621 c 0
 46 529 l 1
 152 529 l 1
 152 220.605 l 0
 152 187.89 153.219 159.773 167.416 133.157 c 0
 186.256 97.8382 218.405 80 249 80 c 0
 283.928 80 320.124 102.871 338.218 142.73 c 1
 349.973 168.158 352 193.787 352 227.167 c 0
 352 529 l 1
 456 529 l 1
 456 140.541 l 0
 456 123.247 456.649 106.415 463.929 94.6891 c 0
 464.188 94.2719 l 1
 464.416 93.8391 l 0
 469.86 83.5235 478.166 79.9037 487 79.9037 c 0
 513.736 79.9037 536.562 122.921 537.232 124.389 c 0
 549.684 151.678 l 1
 599.358 62.1045 l 1
 594.594 55.1287 l 0
 570.951 20.5113 530.236 -12 480 -12 c 0
 434.472 -12 396.616 18.0074 379.731 56.111 c 1
 346.57 12.9735 297.108 -13 243 -13 c 0
 198.089 -13 155.015 6.52499 125.994 36.9482 c 1
 125.966 -35.285 125.818 -106.869 124.999 -178.172 c 0
 124.829 -193 l 1
 22.8876 -193 l 1
EndSplineSet
Validated: 1
EndChar

StartChar: braceleft
Encoding: 123 123 39
Width: 600
Flags: W
TeX: 98 0
LayerCount: 2
Fore
SplineSet
56 249 m 1
 56 344 l 1
 94 344 l 0
 115.329 344 139.841 344.599 161.193 364.617 c 1
 184.028 388.819 187 422.706 187 449.002 c 0
 187 474.929 184 500.938 184 528.958 c 0
 184 572.307 189.865 640.175 245.854 689.88 c 1
 297.837 735.693 365.962 738 422 738 c 0
 498 738 l 1
 498 642 l 1
 443 642 l 0
 425.409 642 410.281 643 397 643 c 0
 369.932 643 351.481 640.238 333.909 629.759 c 1
 296.974 607.619 294 561.171 294 537.998 c 0
 294 513.446 298 488.347 298 459.968 c 0
 298 433.043 294.989 396.712 277.413 363.907 c 1
 263.563 336.438 241.483 312.522 215.483 296.028 c 1
 257.429 270.684 295 217.77 295 117 c 0
 295 79.8707 291 48.6409 291 20 c 0
 291 -19.3295 297.364 -63.3804 332.538 -87.6671 c 0
 353.987 -102.516 379.783 -104 417 -104 c 0
 497 -104 l 1
 497 -199 l 1
 404 -199 l 0
 347.914 -199 295.239 -196.312 249.807 -160.853 c 1
 182.335 -108.867 179 -23.266 179 19 c 0
 179 65.1559 184 100.469 184 135 c 0
 184 183.944 175.875 212.71 157.621 230.17 c 0
 138.351 248.638 115.181 249 95 249 c 0
 56 249 l 1
EndSplineSet
Validated: 1
EndChar

StartChar: braceright
Encoding: 125 125 40
Width: 600
Flags: W
TeX: 98 0
LayerCount: 2
Fore
SplineSet
506 344 m 0
 544 344 l 1
 544 249 l 1
 505 249 l 0
 484.814 249 461.66 248.648 442.368 230.16 c 0
 424.091 212.678 416 184.005 416 135 c 0
 416 100.458 421 65.1659 421 19 c 0
 421 -23.2879 417.679 -108.856 350.194 -160.852 c 1
 304.785 -196.292 252.056 -199 196 -199 c 0
 103 -199 l 1
 103 -104 l 1
 183 -104 l 0
 220.219 -104 246.001 -102.524 267.477 -87.6565 c 0
 302.623 -63.3896 309 -19.3265 309 20 c 0
 309 48.6411 305 79.8706 305 117 c 0
 305 218.377 343.532 271.264 384.517 296.028 c 1
 357.015 313.475 336.426 336.46 322.587 363.907 c 1
 305.015 396.704 302 433.049 302 459.968 c 0
 302 488.347 306 513.446 306 537.998 c 0
 306 561.172 303.026 607.619 266.091 629.759 c 1
 248.473 640.265 230.111 643 203 643 c 0
 189.719 643 174.591 642 157 642 c 0
 102 642 l 1
 102 738 l 1
 178 738 l 0
 234.036 738 302.166 735.691 354.144 689.882 c 1
 410.137 640.173 416 572.307 416 528.958 c 0
 416 500.938 413 474.929 413 449.002 c 0
 413 422.446 416.831 387.91 438.807 364.616 c 1
 461.069 343.745 484.895 344 506 344 c 0
EndSplineSet
Validated: 1
EndChar

StartChar: asterisk
Encoding: 42 42 41
Width: 600
Flags: W
TeX: 97 0
LayerCount: 2
Fore
SplineSet
240.625 601 m 1
 368.289 601 l 1
 365.85 596.768 l 0
 363.401 579.903 360.079 577.907 358.92 566.913 c 0
 343.618 406.887 l 1
 517.644 486.334 l 1
 561.508 385.155 l 1
 368.052 341.188 l 1
 509.365 171.806 l 1
 421.419 113.757 l 1
 299.787 288.834 l 1
 173.291 112.695 l 1
 85.4973 172.108 l 1
 231.535 340.39 l 1
 38.0104 385.067 l 1
 79.9845 490.778 l 1
 257.775 407.112 l 1
 240.625 601 l 1
EndSplineSet
Validated: 1
EndChar

StartChar: O
Encoding: 79 79 42
Width: 600
Flags: W
TeX: 79 0
LayerCount: 2
Fore
SplineSet
525.152 591.335 m 0
 566.419 513.626 571.008 425.031 571.008 359.504 c 0
 571.008 297.927 566.665 209.331 526.517 131.241 c 0
 476.581 34.1138 388.117 -11.0151 304.485 -11.0151 c 0
 184.7 -11.0151 28.9996 83.5094 28.9996 362.011 c 0
 28.9996 640.847 187.162 730 303.761 730 c 0
 387.976 730 475.358 685.102 525.152 591.335 c 0
433.067 524.906 m 0
 401.484 599.222 345.401 624.01 300.361 624.01 c 0
 234.989 624.01 138.971 571.198 138.971 372.03 c 0
 138.971 158.425 234.991 97.987 304.834 97.987 c 0
 347.581 97.987 398.097 120.422 429.218 182.347 c 0
 457.05 237.722 460.085 305.334 460.085 349.55 c 0
 460.085 406.844 456.209 470.45 433.067 524.906 c 0
EndSplineSet
Validated: 1
EndChar

StartChar: zero
Encoding: 48 48 43
Width: 600
Flags: W
TeX: 122 0
LayerCount: 2
Fore
SplineSet
52.9924 355.291 m 0
 52.9924 580.567 173.66 727 301.249 727 c 0
 425.253 727 546.007 588.996 546.007 349.108 c 0
 546.007 106.744 419.179 -13.0219 302.525 -13.0219 c 0
 175.735 -13.0219 52.9924 127.325 52.9924 355.291 c 0
167.662 252.426 m 1
 396.404 548.627 l 1
 367.021 603.959 330.108 626 300.157 626 c 0
 242.893 626 158.795 536.967 158.795 354.311 c 0
 158.795 317.375 162.198 282.216 167.662 252.426 c 1
441.099 354.376 m 0
 441.099 395.543 437.951 432.279 432.583 464.584 c 1
 204.388 172.743 l 1
 234.957 116.285 272.664 90.8848 305.327 90.8848 c 0
 356.027 90.8848 441.099 155.395 441.099 354.376 c 0
EndSplineSet
Validated: 1
EndChar

StartChar: one
Encoding: 49 49 44
Width: 600
Flags: W
TeX: 111 0
LayerCount: 2
Fore
SplineSet
297.309 723 m 1
 372 723 l 1
 372 -1 l 1
 261 -1 l 1
 261 592.321 l 1
 122.4 552.854 l 1
 92.8119 620.144 l 1
 297.309 723 l 1
EndSplineSet
Validated: 1
EndChar

StartChar: two
Encoding: 50 50 45
Width: 600
Flags: W
TeX: 116 0
LayerCount: 2
Fore
SplineSet
80.4922 591.362 m 1
 87.0536 602.576 l 2
 132.28 679.865 214.772 727.008 302.107 727.008 c 0
 427.844 727.008 526.536 634.674 526.536 519.155 c 0
 526.536 412.898 447.638 338.709 394.757 291.433 c 0
 346.299 248.111 271.387 186.286 214.578 101 c 1
 491 101 l 0
 491.529 101 492.022 101.015 492.196 101.019 c 1
 492.988 101.622 492.97 101.614 493.596 102.153 c 0
 494.532 102.961 506.547 115.936 523.724 110.237 c 0
 534 106.827 l 1
 534 0 l 1
 80 0 l 1
 80 66.4005 l 1
 81.6214 69.4519 l 0
 143.318 185.566 211.534 258.525 294.723 330.042 c 0
 348.03 375.868 416.226 433.207 416.226 508.837 c 0
 416.226 574.854 361.506 625.449 292.555 625.449 c 0
 236.037 625.449 196.653 589.766 181.724 566.553 c 0
 179.585 563.229 182.161 554.895 171.279 539.385 c 0
 162.123 526.334 l 1
 80.4922 591.362 l 1
EndSplineSet
Validated: 1
EndChar

StartChar: N
Encoding: 78 78 46
Width: 600
Flags: W
TeX: 78 0
LayerCount: 2
Fore
SplineSet
161 0 m 1
 53 0 l 1
 53 722 l 1
 155.743 722 l 1
 435 228.923 l 1
 435 723 l 1
 549.076 723 l 1
 550.86 710.047 l 0
 552.541 698.34 547.2 689.58 545.898 687.203 c 0
 542.766 681.488 543 683.582 543 678.338 c 0
 543 -1 l 1
 455.199 -1 l 1
 161 525.414 l 1
 161 0 l 1
EndSplineSet
Validated: 1
EndChar

StartChar: four
Encoding: 52 52 47
Width: 600
Flags: W
TeX: 102 0
LayerCount: 2
Fore
SplineSet
51 262.364 m 1
 364.948 723 l 1
 456 723 l 1
 456 286 l 1
 549 286 l 1
 549 184 l 1
 456 184 l 1
 456 0 l 1
 342 0 l 1
 342 185 l 1
 51 185 l 1
 51 262.364 l 1
343 286 m 1
 343 543.81 l 1
 173.788 286 l 1
 343 286 l 1
EndSplineSet
Validated: 1
EndChar

StartChar: eight
Encoding: 56 56 48
Width: 600
Flags: W
TeX: 101 0
LayerCount: 2
Fore
SplineSet
98.953 545.555 m 0
 98.953 647.956 191.506 731.061 309.222 731.061 c 0
 422.221 731.061 512.201 652.73 512.201 552.298 c 0
 512.201 486.883 472.155 424.326 412.684 385.804 c 1
 485.498 344.678 536.364 272.935 536.364 193.098 c 0
 536.364 78.2553 432.787 -12.0638 299.122 -12.0638 c 0
 168.086 -12.0638 64.845 75.7731 64.845 188.462 c 0
 64.845 267.624 117.081 340.523 193.253 383.758 c 1
 135.693 421.39 98.953 480.07 98.953 545.555 c 0
424.255 202.223 m 0
 424.255 262.449 371.895 320.9 285.738 349.989 c 1
 223.433 322.216 177.993 265.905 177.993 207.304 c 0
 177.993 143.615 231.768 90.9956 302.825 90.9956 c 0
 372.674 90.9956 424.255 141.706 424.255 202.223 c 0
403 539.724 m 0
 403 591.077 360.062 633.016 303.003 633.016 c 0
 247.35 633.016 206.919 592.849 206.919 544.982 c 0
 206.919 474.786 291.578 428.75 318.125 416.699 c 1
 368.478 446.138 403 493.872 403 539.724 c 0
EndSplineSet
Validated: 1
EndChar

StartChar: five
Encoding: 53 53 49
Width: 600
Flags: W
TeX: 102 0
LayerCount: 2
Fore
SplineSet
92.2953 345.165 m 1
 118.987 722 l 1
 514 722 l 1
 514 619 l 1
 215.228 619 l 1
 206.271 464.645 l 1
 239.965 477.823 273.359 484.014 307.613 484.014 c 0
 436.755 484.014 541.046 392.896 541.046 235.759 c 0
 541.046 76.1577 430.434 -13.0166 297.988 -13.0166 c 0
 207.506 -13.0166 122.395 29.5811 71.5815 104.587 c 0
 63.5633 116.422 l 1
 155.778 185.583 l 1
 164.71 179.212 l 0
 182.688 166.389 177.876 146.774 177.876 146.774 c 1
 184.192 137.612 230.283 87.9865 296.99 87.9865 c 0
 365.555 87.9865 428.032 138.057 428.032 237.318 c 0
 428.032 340.038 362.805 387.108 295.262 387.108 c 0
 250.818 387.108 203.85 365.101 171.747 324.672 c 0
 164.777 315.894 l 1
 92.2953 345.165 l 1
EndSplineSet
Validated: 1
EndChar

StartChar: S
Encoding: 83 83 50
Width: 600
Flags: W
TeX: 83 0
LayerCount: 2
Fore
SplineSet
525.476 630.659 m 2
 533.098 621.603 l 1
 468.769 534.569 l 1
 458.637 537.648 l 2
 451.039 539.958 442.362 548.343 441.907 560.941 c 0
 441.832 563.029 441.853 564.199 441.853 564.199 c 1
 415.939 601.526 369.7 629.139 307.322 629.139 c 0
 230.939 629.139 191.928 585.985 191.928 542.364 c 0
 191.928 518.927 201.994 483.307 258.274 451.863 c 0
 320.686 416.993 424.591 397.19 491.579 336.927 c 0
 540.448 292.966 552.39 240.338 552.39 201.571 c 0
 552.39 107.932 480.946 -12.0688 296.743 -12.0688 c 0
 204.172 -12.0688 118.94 20.5268 58.9515 85.8545 c 2
 51.4987 93.9706 l 1
 112.125 198.804 l 1
 124.789 192.376 l 2
 139.868 184.722 138.268 168.438 138.258 167.692 c 0
 138.233 165.932 138.227 164.976 138.227 164.976 c 1
 138.292 164.893 l 2
 167.911 127.38 224.857 90.9499 299.1 90.9499 c 0
 396.728 90.9499 441.763 150.155 441.763 201.697 c 0
 441.763 228.27 431.341 258.94 388.22 284.747 c 0
 337.406 315.159 231.941 339.443 161.613 389.029 c 0
 97.4467 434.27 78.8001 490.981 78.8001 535.026 c 0
 78.8001 638.747 176.928 726.008 313.761 726.008 c 0
 396.517 726.008 473.544 692.362 525.476 630.659 c 2
EndSplineSet
Validated: 1
EndChar

StartChar: M
Encoding: 77 77 51
Width: 600
Flags: W
TeX: 77 0
LayerCount: 2
Fore
SplineSet
42 -1 m 1
 42 722 l 1
 130.212 722 l 1
 300.092 386.985 l 1
 472.846 723 l 1
 558 723 l 1
 558 -1 l 1
 451 -1 l 1
 451 500.271 l 1
 318.978 254 l 1
 269.801 254 l 1
 148 493.431 l 1
 148 -1 l 1
 42 -1 l 1
EndSplineSet
Validated: 1
EndChar

StartChar: L
Encoding: 76 76 52
Width: 600
Flags: W
TeX: 76 0
LayerCount: 2
Fore
SplineSet
72 -1 m 1
 72 722 l 1
 193.892 722 l 1
 195.83 709.254 l 0
 197.913 696.19 191.984 686.256 190.236 683.086 c 0
 186.399 676.125 186 677.312 186 669.933 c 0
 186 99 l 1
 534 99 l 1
 534 -1 l 1
 72 -1 l 1
EndSplineSet
Validated: 1
EndChar

StartChar: ampersand
Encoding: 38 38 53
Width: 600
Flags: W
TeX: 78 0
LayerCount: 2
Fore
SplineSet
100.988 568.583 m 0
 100.988 660.25 179.64 729.113 275.219 729.113 c 0
 369.996 729.113 445.049 660.133 445.049 566.353 c 0
 445.049 491.754 396.978 418.994 326.773 376.505 c 1
 435.625 230.779 l 1
 454.52 255.509 465.916 280.054 472.728 300.751 c 0
 473.309 302.52 473.581 304.051 473.581 305.101 c 0
 473.581 306.118 471.98 310.562 471.98 318.37 c 0
 471.98 327.903 476.371 335.81 481.922 340.651 c 0
 490.751 348.351 l 1
 586.711 284.378 l 1
 580.11 272.96 l 0
 555.555 230.491 527.711 189.064 497.843 150.288 c 1
 581.164 46.434 l 1
 487.958 -20.7812 l 1
 426.065 77.8615 l 1
 376.872 25.1449 308.709 -12.0313 232.619 -12.0313 c 0
 120.165 -12.0313 36.7317 69.9923 36.7317 176.789 c 0
 36.7317 263.962 92.159 349.694 175.407 399.512 c 1
 135.612 448.675 100.988 507.233 100.988 568.583 c 0
273.735 630.403 m 0
 241.313 630.403 210.898 603.783 210.898 560.613 c 0
 210.898 536.101 220.418 500.757 269.611 436.69 c 1
 313.092 465.351 339.165 511.475 339.165 554.305 c 0
 339.165 602.064 307.301 630.403 273.735 630.403 c 0
385.118 118.975 m 0
 401 143 l 1
 401 97.513 l 1
 385.118 118.975 l 0
245.174 92.8265 m 0
 297.702 92.8265 347.41 137.906 366.769 158.771 c 1
 234.6 337.378 l 1
 183.382 299.092 154.365 242.687 154.365 192.45 c 0
 154.365 132.429 194.858 92.8265 245.174 92.8265 c 0
EndSplineSet
Validated: 1
EndChar

StartChar: F
Encoding: 70 70 54
Width: 600
Flags: W
TeX: 78 0
LayerCount: 2
Fore
SplineSet
85 0 m 1
 85 723 l 1
 531 723 l 1
 531 622 l 1
 197 622 l 1
 197 440 l 1
 467 440 l 1
 467 340 l 1
 197 340 l 1
 197 0 l 1
 85 0 l 1
EndSplineSet
Validated: 1
EndChar

StartChar: w
Encoding: 119 119 55
Width: 600
Flags: W
TeX: 119 0
LayerCount: 2
Fore
SplineSet
340.175 480 m 1
 436.211 158.449 l 1
 468.995 376.499 475.361 439.306 475.361 492.287 c 0
 475.361 499.51 475.229 506.467 475.007 513.53 c 0
 474.523 529 l 1
 584.063 529 l 1
 581.876 513.004 l 0
 558.828 344.425 529.774 177.713 493.696 10.9941 c 0
 491.242 -1 l 1
 389.685 -1 l 1
 303.378 301.075 l 1
 221.475 -1 l 1
 122.721 -1 l 1
 9.6759 530 l 1
 123.811 530 l 1
 127.23 519.743 l 0
 132.108 505.11 127.013 492.605 125.23 487.257 c 0
 122.685 479.62 122.905 481.229 124.552 474.638 c 0
 124.636 474.303 l 1
 188.336 158.286 l 1
 266.197 480 l 1
 340.175 480 l 1
EndSplineSet
Validated: 1
EndChar

StartChar: quotedbl
Encoding: 34 34 58
Width: 600
Flags: W
TeX: 113 0
LayerCount: 2
Fore
SplineSet
419.514 772.143 m 0
 449.658 772.143 471 746.04 471 691 c 2
 471 581.118 l 1
 472.878 462 l 1
 363.232 462 l 1
 362.312 506.018 l 0
 358.963 551.909 362.247 552.534 360.648 596.328 c 0
 360.576 598.294 l 1
 361.132 600.196 l 0
 364.844 612.888 359 623.003 359 647.096 c 0
 359 699.22 l 0
 359 745.551 390.526 772.143 419.514 772.143 c 0
217.514 772.143 m 0
 247.658 772.143 269 746.04 269 691 c 2
 269 581.118 l 1
 270.878 462 l 1
 161.232 462 l 1
 160.312 506.018 l 0
 156.963 551.909 160.247 552.534 158.648 596.328 c 0
 158.576 598.294 l 1
 159.132 600.196 l 0
 162.844 612.888 157 623.003 157 647.096 c 0
 157 699.22 l 0
 157 745.551 188.526 772.143 217.514 772.143 c 0
EndSplineSet
EndChar

StartChar: T
Encoding: 84 84 59
Width: 600
Flags: W
TeX: 84 0
LayerCount: 2
Fore
SplineSet
31 620 m 1
 31 723 l 1
 561 723 l 1
 561 620 l 1
 348 620 l 1
 348 -1 l 1
 236 -1 l 1
 236 620 l 1
 31 620 l 1
EndSplineSet
Validated: 1
EndChar

StartChar: hyphen
Encoding: 45 45 60
Width: 600
Flags: W
TeX: 104 0
LayerCount: 2
Fore
SplineSet
77 326 m 1
 77 433 l 1
 524 433 l 1
 524 326 l 1
 77 326 l 1
EndSplineSet
Validated: 1
EndChar

StartChar: exclam
Encoding: 33 33 61
Width: 600
Flags: W
TeX: 101 0
LayerCount: 2
Fore
SplineSet
287.478 154.002 m 0
 333.568 154.002 371.002 116.588 371.002 70.4912 c 0
 371.002 24.4119 333.583 -13.0169 287.479 -13.0169 c 0
 241.389 -13.0169 203.954 24.3958 203.954 70.4935 c 0
 203.954 116.574 241.374 154.002 287.478 154.002 c 0
224.609 727.57 m 0
 237.048 757.525 262.827 774.001 289.272 774.001 c 0
 318.109 774.001 348.442 753.983 358.881 713.025 c 0
 360.906 705.081 363.76 690.376 363.76 662.25 c 0
 363.76 616.208 355.789 572.003 352.968 529.018 c 0
 331.048 241.281 l 1
 244.776 241.281 l 1
 227.021 529.204 l 0
 223.023 604.453 215.565 631.895 215.565 671.67 c 0
 215.565 694.502 218.261 712.285 224.609 727.57 c 0
EndSplineSet
EndChar

StartChar: U
Encoding: 85 85 63
Width: 600
Flags: W
TeX: 85 0
LayerCount: 2
Fore
SplineSet
53 253.135 m 0
 53 722 l 1
 168.873 722 l 1
 172.777 712.932 l 0
 174.382 709.374 175.2 705.548 175.2 701.688 c 0
 175.2 688.566 166.491 680.441 164.796 678.167 c 0
 162.354 674.888 163 676.308 163 671.96 c 0
 163 254.914 l 0
 163 220.739 163.879 190.121 178.924 159.415 c 0
 202.224 111.861 251.009 85.9211 303.067 85.9211 c 0
 354.255 85.9211 402.976 111.258 426.962 158.647 c 0
 443.042 190.417 444 222.298 444 257.889 c 0
 444 722 l 1
 551 722 l 1
 551 256.979 l 0
 551 206.129 549.57 154.815 520.269 102.926 c 0
 476.043 24.6145 389.127 -13.0732 301.461 -13.0732 c 0
 212.016 -13.0732 126.087 25.4687 82.937 102.388 c 0
 54.2501 153.525 53 204.017 53 253.135 c 0
EndSplineSet
Validated: 1
EndChar

StartChar: numbersign
Encoding: 35 35 64
Width: 600
Flags: W
TeX: 110 0
LayerCount: 2
Fore
SplineSet
174.408 526.38 m 1
 197.604 722.44 l 1
 298.017 726.743 l 1
 273.891 527.57 l 1
 371.249 528.733 l 1
 393.616 716.455 l 1
 496.032 720.723 l 1
 472.727 529.946 l 1
 577.714 531.201 l 1
 568.493 445.134 l 1
 462.236 444.071 l 1
 442.1 279.226 l 1
 556.793 281.307 l 1
 547.45 197.215 l 1
 431.853 195.347 l 1
 406.369 -13.2605 l 1
 305.988 -18.9966 l 1
 331.333 193.722 l 1
 233.262 192.137 l 1
 208.362 -13.4251 l 1
 110.03 -17.7632 l 1
 134.675 190.545 l 1
 22.4929 188.731 l 1
 30.3253 271.754 l 1
 144.529 273.826 l 1
 164.318 441.092 l 1
 38.8577 439.838 l 1
 45.0392 524.834 l 1
 174.408 526.38 l 1
361.041 458.06 m 1
 263.537 457.084 l 1
 243.373 290.62 l 1
 341.303 292.397 l 1
 361.041 458.06 l 1
EndSplineSet
Validated: 1
EndChar

StartChar: j
Encoding: 106 106 65
Width: 600
Flags: W
TeX: 106 0
LayerCount: 2
Fore
SplineSet
141 431 m 1
 141 530 l 1
 452 530 l 1
 452 45.5112 l 0
 452 1.8504 450.923 -42.6284 426.522 -88.2029 c 0
 387.593 -164.44 307.69 -202.181 227.699 -202.181 c 0
 157.854 -202.181 95.2226 -173.161 54.321 -122.413 c 0
 47.0016 -113.331 l 1
 117.43 -19.427 l 1
 129.55 -29.4326 l 0
 142.944 -40.4901 142.658 -54.0156 142.904 -54.4183 c 0
 145.568 -58.7709 176.723 -100.016 233.016 -100.016 c 0
 272.49 -100.016 308.498 -79.3772 325.849 -41.9335 c 0
 337.308 -18.6779 338 4.79038 338 31.3513 c 0
 338 431 l 1
 141 431 l 1
320.981 685.486 m 0
 320.981 726.644 354.626 760 396.003 760 c 0
 437.362 760 471.019 726.664 471.019 685.493 c 0
 471.019 644.344 437.375 610.992 395.99 610.992 c 0
 354.626 610.992 320.981 644.333 320.981 685.486 c 0
EndSplineSet
Validated: 1
EndChar

StartChar: x
Encoding: 120 120 66
Width: 600
Flags: W
TeX: 120 0
LayerCount: 2
Fore
SplineSet
297.442 345.305 m 1
 422.024 530 l 1
 542.999 530 l 1
 361.667 272.099 l 1
 567.159 0 l 1
 435.248 0 l 1
 297.403 194.418 l 1
 167.001 0 l 1
 36.4072 0 l 1
 232.583 268.774 l 1
 39.1729 530 l 1
 166.762 530 l 1
 297.442 345.305 l 1
EndSplineSet
Validated: 1
EndChar

StartChar: G
Encoding: 71 71 67
Width: 600
Flags: W
TeX: 71 0
LayerCount: 2
Fore
SplineSet
36.8871 352.629 m 0
 36.8871 664.755 228.398 729.021 331.256 729.021 c 0
 425.436 729.021 510.132 680 554.134 600.246 c 0
 559.534 590.459 l 1
 486.158 515.796 l 1
 475.902 522.374 l 0
 461.742 531.456 457.681 545.505 454.922 551.55 c 0
 435.259 594.633 389.301 628.068 330.753 628.068 c 0
 275.445 628.068 216.272 599.512 181.558 537.637 c 0
 155.132 490.533 146.993 431.584 146.993 368.924 c 0
 146.993 297.294 156.092 205.413 212.019 145.04 c 0
 248.258 105.921 295.241 89.9971 338.046 89.9971 c 0
 375.463 89.9971 417.359 102.151 453 123.905 c 1
 453 261 l 1
 322 261 l 1
 322 361 l 1
 558 361 l 1
 558 68.2213 l 1
 551.894 63.8995 l 0
 481.424 14.0203 401.405 -11.0487 330.884 -11.0487 c 0
 196.58 -11.0487 36.8871 83.3881 36.8871 352.629 c 0
EndSplineSet
Validated: 1
EndChar

StartChar: k
Encoding: 107 107 68
Width: 600
Flags: W
TeX: 107 0
LayerCount: 2
Fore
SplineSet
72 -1 m 1
 72 770 l 1
 194.736 770 l 1
 196.801 757.433 l 0
 199.405 741.591 188.748 731.024 187.359 729.218 c 0
 186.171 727.672 186.095 727.31 186.095 727.31 c 1
 186.072 727.175 186 726.519 186 725 c 0
 186 305.391 l 1
 431.726 533.499 l 1
 439.584 531.566 l 0
 458.215 526.982 478.16 526 498 526 c 0
 565.808 526 l 1
 325.481 311.867 l 1
 596.874 -1.20844 l 1
 564.902 -0.99968 l 0
 562.235 -0.982266 559.562 -0.973546 556.896 -0.973546 c 0
 501.908 -0.973546 458.346 -4.93946 458.346 -4.93946 c 0
 450.321 -5.66268 l 1
 239.374 258.021 l 1
 186 208.459 l 1
 186 -1 l 1
 72 -1 l 1
EndSplineSet
Validated: 1
EndChar

StartChar: z
Encoding: 122 122 69
Width: 600
Flags: W
TeX: 122 0
LayerCount: 2
Fore
SplineSet
77 427 m 1
 77 530 l 1
 519 530 l 1
 519 457.771 l 1
 212.294 101 l 1
 496 101 l 0
 504.222 101 507.674 108.29 527.05 108.29 c 0
 529.016 108.29 531.048 108.145 533.121 107.849 c 0
 546 106.009 l 1
 546 -1 l 1
 53 -1 l 1
 53 71.2865 l 1
 364.352 427 l 1
 77 427 l 1
EndSplineSet
Validated: 1
EndChar

StartChar: dollar
Encoding: 36 36 70
Width: 600
Flags: W
TeX: 100 0
LayerCount: 2
Fore
SplineSet
267 685.04 m 1
 267 754 l 1
 366.793 754 l 1
 370.733 745.035 l 0
 372.123 741.871 372.825 738.467 372.825 735.046 c 0
 372.825 721.562 365.049 716.493 365.049 716.493 c 1
 365.011 716.23 365 716.133 365 715.734 c 0
 365 685.665 l 1
 431.776 676.208 491.136 645.606 533.499 596.885 c 0
 541.353 587.852 l 1
 477.667 510.546 l 1
 468.201 512.934 l 0
 460.563 514.861 451.973 522.15 451.044 533.516 c 0
 450.841 536.005 450.969 537.96 450.981 538.515 c 1
 449.155 540.75 449.62 540.182 448.392 541.617 c 0
 429.355 563.863 401.9 581.065 365 589.551 c 1
 365 402.433 l 1
 388.943 394.637 410.854 387.271 432.62 378.251 c 0
 456.825 368.22 557.789 327.002 557.789 215.076 c 0
 557.789 129.969 493.188 39.474 365 18.1442 c 1
 365 -54 l 1
 267 -54 l 1
 267 15.257 l 1
 188.408 23.0458 119.313 54.1334 67.9721 107.824 c 0
 59.6491 116.528 l 1
 124.055 202.227 l 1
 135.223 197.317 l 0
 151.617 190.11 149.079 173.038 149.079 173.038 c 0
 149 171.621 148.949 170.899 148.949 170.899 c 1
 176.615 142.751 218.551 118.632 267 109.762 c 1
 267 328.221 l 1
 248.291 334.516 230.28 341.264 212.012 349.591 c 0
 109.661 396.241 86.838 465.099 86.838 510.678 c 0
 86.838 597.42 163.348 667.552 267 685.04 c 1
402.432 280.528 m 0
 392.433 285.966 379.599 291.095 365 296.152 c 1
 365 104.992 l 1
 423.084 123.01 452.128 165.137 452.128 204.903 c 0
 452.128 224.85 445.54 257.082 402.432 280.528 c 0
248.906 450.194 m 0
 254.165 447.166 262.21 443.102 267 440.865 c 1
 267 600.948 l 1
 211.863 588.522 193.407 555.451 193.407 526.615 c 0
 193.407 506.651 201.721 477.37 248.906 450.194 c 0
EndSplineSet
Validated: 1
EndChar

StartChar: A
Encoding: 65 65 71
Width: 600
Flags: W
TeX: 65 0
LayerCount: 2
Fore
SplineSet
117.844 -1 m 1
 5.9282 -1 l 1
 271.322 735 l 1
 301.35 735 l 1
 591.738 0 l 1
 475.645 0 l 1
 395.645 196 l 1
 187.844 196 l 1
 117.844 -1 l 1
213.907 289 m 1
 366.438 289 l 1
 286.653 504.107 l 1
 213.907 289 l 1
EndSplineSet
Validated: 1
EndChar

StartChar: C
Encoding: 67 67 72
Width: 600
Flags: W
TeX: 67 0
LayerCount: 2
Fore
SplineSet
41.9666 356.853 m 0
 41.9666 641.366 211.124 728 331.618 728 c 0
 433.409 728 525.446 668.599 566.699 576.11 c 0
 572.576 562.934 l 1
 474.668 514.616 l 1
 467.39 519.717 l 0
 455.07 528.353 455.716 541.878 455.716 543.375 c 0
 455.716 547.954 456.207 550.844 456.207 552.016 c 0
 456.207 553.851 456.602 552.765 454.235 556.852 c 0
 427.491 603.042 379.389 633.168 328.882 633.168 c 0
 239.199 633.168 150.987 542.39 150.987 363.792 c 0
 150.987 182.141 241.713 87.9939 335.655 87.9939 c 0
 386.547 87.9939 439.385 117.814 470.161 168.757 c 0
 478.177 182.025 l 1
 563.415 126.621 l 1
 555.794 114.169 l 0
 507.764 35.6969 422.453 -12.0016 331.109 -12.0016 c 0
 203.582 -12.0016 41.9666 82.3169 41.9666 356.853 c 0
EndSplineSet
Validated: 1
EndChar

StartChar: B
Encoding: 66 66 73
Width: 600
Flags: W
TeX: 66 0
LayerCount: 2
Fore
SplineSet
51 0 m 1
 51 722 l 1
 271 722 l 0
 315.387 722 363.324 721.727 411.861 701.465 c 0
 485.118 670.878 526 606.149 526 538.245 c 0
 526 476.247 492.045 419.597 439.153 387.218 c 1
 509.469 352.011 554.123 282.671 554.123 206.33 c 0
 554.123 128.982 507.718 56.4067 424.576 22.0471 c 1
 369.46 -0.155934 319.38 0 270 0 c 0
 51 0 l 1
260 623 m 0
 161 623 l 1
 161 438 l 1
 259 438 l 0
 291.217 438 323.264 438.38 353.005 450.285 c 0
 393.375 466.445 414.169 498.238 414.169 530.628 c 0
 414.169 563.25 392.876 596.01 350.305 611.915 c 0
 321.534 622.665 290.895 623 260 623 c 0
264 340 m 0
 161 340 l 1
 161 101 l 1
 284 101 l 0
 315.169 101 342.974 101.681 370.823 113.489 c 0
 414.957 132.201 439.347 172.207 439.347 215.805 c 0
 439.347 259.856 414.025 303.115 365.904 324.605 c 0
 333.32 339.158 300.442 340 264 340 c 0
EndSplineSet
Validated: 1
EndChar

StartChar: bracketleft
Encoding: 91 91 74
Width: 600
Flags: W
TeX: 98 0
LayerCount: 2
Fore
SplineSet
147 -103 m 1
 147 776 l 1
 508 776 l 1
 508 677 l 1
 251 677 l 1
 251 -7 l 1
 509 -7 l 1
 509 -103 l 1
 147 -103 l 1
EndSplineSet
Validated: 1
EndChar

StartChar: bracketright
Encoding: 93 93 75
Width: 600
Flags: W
TeX: 98 0
LayerCount: 2
Fore
SplineSet
92 776 m 1
 453 776 l 1
 453 -103 l 1
 91 -103 l 1
 91 -7 l 1
 349 -7 l 1
 349 677 l 1
 92 677 l 1
 92 776 l 1
EndSplineSet
Validated: 1
EndChar

StartChar: parenleft
Encoding: 40 40 76
Width: 600
Flags: W
TeX: 112 0
LayerCount: 2
Fore
SplineSet
457.96 770.73 m 0
 471.105 776.512 l 1
 518.701 682.825 l 1
 506.426 676.039 l 0
 499.171 672.028 492.382 671.812 489.669 671.812 c 0
 482.045 671.812 477.965 673.094 477.323 673.094 c 0
 477.001 673.094 476.37 672.699 474.455 671.602 c 0
 343.947 596.917 266.273 458.725 266.273 302.827 c 0
 266.273 133.132 356.964 -27.2163 510.537 -113.811 c 0
 523.91 -121.352 l 1
 470.365 -204.757 l 1
 458.029 -198.282 l 0
 269.287 -102.186 155.68 89.8326 155.68 299.064 c 0
 155.68 510.033 272.812 691.731 457.96 770.73 c 0
EndSplineSet
Validated: 1
EndChar

StartChar: parenright
Encoding: 41 41 77
Width: 600
Flags: W
TeX: 112 0
LayerCount: 2
Fore
SplineSet
92.9588 673.891 m 0
 82.0418 679.523 l 1
 112.673 776.805 l 1
 128.271 769.626 l 0
 321.786 683.233 447 496.041 447 290.117 c 0
 447 82.3692 319.701 -109.324 122.455 -200.54 c 0
 106.868 -207.971 l 1
 75.946 -112.493 l 1
 86.983 -106.824 l 0
 238.794 -28.8475 335.028 123.245 335.028 286.902 c 0
 335.028 448.291 241.305 597.356 92.9588 673.891 c 0
EndSplineSet
Validated: 1
EndChar

StartChar: three
Encoding: 51 51 78
Width: 600
Flags: W
TeX: 116 0
LayerCount: 2
Fore
SplineSet
287.492 724.29 m 0
 409.163 724.29 501.039 637.434 501.039 534.1 c 0
 501.039 471.196 466.097 414.829 413.022 384.117 c 1
 477.709 348.557 517.026 281.405 517.026 204.787 c 0
 517.026 89.3724 426.116 -12.1905 279.723 -12.1905 c 0
 203.516 -12.1905 130.313 17.7523 78.8478 74.9687 c 0
 70.1501 84.6382 l 1
 150.132 180.354 l 1
 161.73 168.482 l 0
 178.795 151.012 174.011 138.69 177.194 135.104 c 0
 181.186 130.606 218.422 91.2614 278.997 91.2614 c 0
 354.822 91.2614 409.303 148.266 409.303 215.652 c 0
 409.303 286.514 347.754 330.579 254.688 330.579 c 0
 243.125 330.579 231.565 329.761 220.09 328.146 c 0
 203 325.741 l 1
 203 418.451 l 1
 217.967 418.482 l 0
 284.692 418.621 314.908 430.068 326.008 434.705 c 0
 370.394 453.247 394.043 493.481 394.043 529.696 c 0
 394.043 579.021 350.497 622.425 283.533 622.425 c 0
 243.162 622.425 200.813 604.824 169.967 571.767 c 0
 158.8 559.799 l 1
 93.7427 632.085 l 1
 102.936 642.128 l 0
 151.045 694.684 218.085 724.29 287.492 724.29 c 0
EndSplineSet
Validated: 1
EndChar

StartChar: D
Encoding: 68 68 79
Width: 600
Flags: W
TeX: 68 0
LayerCount: 2
Fore
SplineSet
57 -1 m 1
 57 722 l 1
 241 722 l 0
 305.171 722 361.218 717.54 417.285 682.511 c 0
 516.511 620.518 558.181 497.86 558.181 362.131 c 0
 558.181 207.469 500.493 82.9353 390.05 28.4175 c 0
 335.917 1.69548 284.699 -1 227 -1 c 0
 57 -1 l 1
236 623 m 0
 164 623 l 1
 164 93 l 1
 223 93 l 0
 268.134 93 308.157 94.9163 349.612 121.39 c 0
 402.12 154.922 446.352 224.46 446.352 351.688 c 0
 446.352 448.468 423.575 540.654 362.278 588.742 c 0
 321.613 620.644 281.101 623 236 623 c 0
EndSplineSet
Validated: 1
EndChar

StartChar: E
Encoding: 69 69 80
Width: 600
Flags: W
TeX: 69 0
LayerCount: 2
Fore
SplineSet
63 0 m 1
 63 723 l 1
 536 723 l 1
 536 621 l 1
 170 621 l 1
 170 429 l 1
 472 429 l 1
 472 325 l 1
 170 325 l 1
 170 102 l 1
 533 102 l 1
 533 0 l 1
 63 0 l 1
EndSplineSet
Validated: 1
EndChar

StartChar: V
Encoding: 86 86 81
Width: 600
Flags: W
TeX: 86 0
LayerCount: 2
Fore
SplineSet
274.235 -5 m 1
 18.0981 723 l 1
 134.811 723 l 1
 308.617 201.585 l 1
 473.008 722 l 1
 584.802 722 l 1
 332.816 -5 l 1
 274.235 -5 l 1
EndSplineSet
Validated: 1
EndChar

StartChar: percent
Encoding: 37 37 82
Width: 600
Flags: W
TeX: 112 0
LayerCount: 2
Fore
SplineSet
37.5416 0 m 1
 454.162 722 l 1
 566.582 722 l 1
 145.795 0 l 1
 37.5416 0 l 1
27.8516 575.952 m 0
 27.8516 667.289 93.2341 735.106 171.904 735.106 c 0
 252.42 735.106 317.16 665.285 317.16 574.748 c 0
 317.16 486.356 253.427 416.982 172.952 416.982 c 0
 91.8985 416.982 27.8516 487.137 27.8516 575.952 c 0
214.092 572.129 m 0
 214.092 640.802 180.762 644.005 170.33 644.005 c 0
 156.726 644.005 127.978 636.141 127.978 579.583 c 0
 127.978 514.339 160.065 508.911 172.149 508.911 c 0
 185.906 508.911 214.092 517.088 214.092 572.129 c 0
439.589 304.001 m 0
 520.01 304.001 584.018 234.678 584.018 146.086 c 0
 584.018 56.9578 519.863 -12.1238 439.695 -12.1238 c 0
 359.191 -12.1238 294.98 57.2115 294.98 145.77 c 0
 294.98 234.909 359.363 304.001 439.589 304.001 c 0
485.009 143.599 m 0
 485.009 205.51 453.841 214.005 439.32 214.005 c 0
 423.934 214.005 393.994 204.306 393.994 145.795 c 0
 393.994 88.8656 423.193 76.7696 440.303 76.7696 c 0
 455.629 76.7696 485.009 86.4608 485.009 143.599 c 0
EndSplineSet
Validated: 1
EndChar

StartChar: J
Encoding: 74 74 83
Width: 600
Flags: W
TeX: 74 0
LayerCount: 2
Fore
SplineSet
194 624 m 1
 194 722 l 1
 554 722 l 1
 554 624 l 1
 443 624 l 1
 443 244.856 l 0
 443 195.362 443.395 139.759 413.179 86.1667 c 1
 376.408 22.1296 309.031 -13 235 -13 c 0
 167.396 -13 101.292 18.0579 55.5322 72.331 c 0
 47.5013 81.856 l 1
 119.109 169.377 l 1
 130.762 159.389 l 0
 141.744 149.975 140.42 135.954 140.444 135.701 c 1
 149.073 126.781 188.563 89 237 89 c 0
 266.001 89 293.187 102.629 309.51 126.22 c 1
 331.551 157.139 333.005 197.739 333.005 238.234 c 0
 333 624 l 1
 194 624 l 1
EndSplineSet
Validated: 1
EndChar

StartChar: K
Encoding: 75 75 84
Width: 600
Flags: W
TeX: 75 0
LayerCount: 2
Fore
SplineSet
44 0 m 1
 44 723 l 1
 169.242 723 l 1
 170.884 709.861 l 2
 172.838 694.229 162.701 684.268 160.86 681.813 c 0
 160.093 680.855 160.041 680.71 160.041 680.71 c 2
 159.986 679.393 160 679.303 160 678 c 2
 160 413.388 l 1
 441.835 729.753 l 1
 450.638 727.552 l 2
 468.8 723.011 487.48 722 507 722 c 2
 570.057 722 l 1
 283.086 407.101 l 1
 585.057 -1 l 1
 556 -1 l 2
 499.492 -1 454.292 -4.94428 454.292 -4.94428 c 1
 445.577 -5.69753 l 1
 200.288 351.975 l 1
 160 308.153 l 1
 160 0 l 1
 44 0 l 1
EndSplineSet
Validated: 1
EndChar

StartChar: P
Encoding: 80 80 85
Width: 600
Flags: W
TeX: 80 0
LayerCount: 2
Fore
SplineSet
298 616 m 0
 176.942 616 l 1
 176.059 405 l 1
 307 405 l 0
 334.783 405 359.742 406.066 384.292 417.526 c 0
 420.483 434.42 440 469.101 440 507.699 c 0
 440 547.203 419.504 584.642 380.356 602.511 c 1
 353.592 615.004 327.847 616 298 616 c 0
63 0 m 1
 63 722 l 1
 298 722 l 0
 345.006 722 392.461 721.144 441.9 696.243 c 1
 515.534 659.656 553 586.506 553 511.552 c 0
 553 436.631 515.672 363.474 442.749 327.752 c 1
 395.167 304.785 349.072 304 304 304 c 0
 177 304 l 1
 177 0 l 1
 63 0 l 1
EndSplineSet
Validated: 1
EndChar

StartChar: question
Encoding: 63 63 86
Width: 600
Flags: W
TeX: 113 0
LayerCount: 2
Fore
SplineSet
312.462 148.002 m 0
 358.514 148.002 396.002 111.571 396.002 66.4929 c 0
 396.002 21.4014 358.512 -15.046 312.441 -15.046 c 0
 266.447 -15.046 228.952 21.3792 228.952 66.509 c 0
 228.952 111.57 266.421 148.002 312.462 148.002 c 0
64.5661 632.61 m 1
 71.4179 643.166 l 2
 124.734 725.311 215.726 771.06 307.402 771.06 c 0
 447.441 771.06 528.24 666.753 528.24 551.639 c 0
 528.24 434.645 444.134 385.253 408.369 353.464 c 0
 364.195 314.202 363 286.751 363 247 c 0
 363 236.344 l 1
 257 236.344 l 1
 257 247 l 0
 257 299.917 261.482 346.954 315.359 406.113 c 0
 352.411 446.798 406.576 490.038 406.576 557.709 c 0
 406.576 618.15 360.663 665.153 299.634 665.153 c 0
 247.637 665.153 190.234 629.765 155.874 572.302 c 0
 146.349 556.372 l 1
 64.5661 632.61 l 1
EndSplineSet
EndChar

StartChar: at
Encoding: 64 64 87
Width: 600
Flags: W
TeX: 97 0
LayerCount: 2
Fore
SplineSet
533.975 44.8875 m 1
 522.02 37.3238 l 2
 470.757 4.8929 411.995 -13 352 -13 c 0
 198.669 -13 31 98.3585 31 363.845 c 0
 31 622.896 188.768 733 324 733 c 0
 413.533 733 497.157 685.035 536.689 599.734 c 1
 563.203 541.906 564 484.776 564 431.158 c 0
 564 187.737 l 1
 464 187.737 l 1
 464 211.34 l 1
 434.671 189.678 400.082 178 363 178 c 0
 271.684 178 198 251.806 198 344 c 0
 198 412.258 239.961 479.726 317.464 510.941 c 1
 366.83 530.259 415.06 530 459 530 c 0
 460.233 530 l 1
 452.542 593.123 394.327 641 321 641 c 0
 231.878 641 128 560.467 128 366.745 c 0
 128 158.813 254.685 83 358 83 c 0
 400.096 83 440.09 95.1094 474.602 118.429 c 0
 488.184 127.606 l 1
 533.975 44.8875 l 1
464 421 m 0
 464 442 l 1
 460 442 l 0
 418.691 442 373.573 441.229 339.61 417.717 c 1
 312.376 398.39 300 371.881 300 347 c 0
 300 305.544 333.963 272 377 272 c 0
 404.606 272 433.341 287.071 448.622 316.785 c 1
 462.51 344.562 464 380.039 464 421 c 0
EndSplineSet
Validated: 1
EndChar

StartChar: bar
Encoding: 124 124 88
Width: 600
Flags: W
TeX: 98 0
LayerCount: 2
Fore
SplineSet
246 -205 m 1
 246 756 l 1
 354 756 l 1
 354 -205 l 1
 246 -205 l 1
EndSplineSet
Validated: 1
EndChar

StartChar: asciitilde
Encoding: 126 126 89
Width: 600
Flags: W
TeX: 97 0
LayerCount: 2
Fore
SplineSet
128.799 403.178 m 0
 120.727 389.97 l 1
 37.815 444.292 l 1
 45.0769 456.615 l 0
 81.0782 501.262 144.287 538.051 217.153 538.051 c 0
 322.872 538.051 357.869 480.999 409.264 480.999 c 0
 438.35 480.999 462.226 494.027 495.916 519.887 c 0
 505.341 532.703 l 1
 580.926 499.953 l 1
 573.517 488.734 l 0
 542.498 441.764 481.972 375.377 400.536 375.377 c 0
 295.33 375.377 267.813 437.595 212.175 437.595 c 0
 187.121 437.595 156.861 427.712 128.799 403.178 c 0
EndSplineSet
Validated: 1
EndChar

StartChar: asciicircum
Encoding: 94 94 90
Width: 600
Flags: W
TeX: 97 0
LayerCount: 2
Fore
SplineSet
181.586 392.647 m 1
 96.7309 433.611 l 1
 286.478 722 l 1
 329.023 722 l 1
 497.642 434.095 l 1
 408.645 392.468 l 1
 302.188 585.42 l 1
 181.586 392.647 l 1
EndSplineSet
Validated: 1
EndChar

StartChar: cent
Encoding: 162 162 91
Width: 600
Flags: W
TeX: 99 0
LayerCount: 2
Fore
SplineSet
310.328 596.609 m 1
 326.94 724.418 l 1
 431.667 713.677 l 1
 432.921 701.977 l 0
 434.26 689.473 428.332 680.269 426.909 677.824 c 0
 423.513 671.986 423.662 673.526 422.871 667.749 c 0
 412.114 589.051 l 1
 473.382 573.732 517.259 541.005 545.563 499.177 c 0
 551.389 490.567 l 1
 485.139 407.907 l 1
 473.424 415.777 l 0
 460.996 424.126 461.706 437.381 461.706 438.777 c 0
 461.706 443.983 462.009 446.402 462.009 446.402 c 1
 461.816 446.722 461.715 446.877 461.281 447.374 c 0
 450.09 460.171 427.279 478.917 398.636 490.441 c 1
 349.955 134.289 l 1
 396.635 138.376 440.724 158.656 474.25 191.875 c 0
 486.479 203.992 l 1
 546.445 126.904 l 1
 538.089 118.06 l 0
 486.168 63.1016 412.798 34.5631 336.156 33.3338 c 1
 318.935 -92.6511 l 1
 222.24 -81.1054 l 1
 238.964 47.5644 l 1
 124.533 83.8496 51 186.48 51 316.045 c 0
 51 469.185 154.836 583.66 310.328 596.609 c 1
162.95 326.544 m 0
 162.95 239.311 199.352 177.484 252.742 147.3 c 1
 298.03 508.714 l 1
 219.713 495.741 162.95 433.075 162.95 326.544 c 0
EndSplineSet
Validated: 1
EndChar

StartChar: euro
Encoding: 8364 8364 92
Width: 600
Flags: W
TeX: 78 0
LayerCount: 2
Fore
SplineSet
558.672 660.541 m 0
 565.362 653.768 l 1
 525.82 546.051 l 1
 509.506 559.387 l 0
 492.363 573.401 497.476 585.226 497.476 585.226 c 1
 494.78 588.319 455.533 631.167 386.755 631.167 c 0
 323.639 631.167 246.204 599.089 213.899 497.874 c 0
 213.604 496.948 213.288 495.936 212.998 495 c 1
 501.607 495 l 1
 465.413 398 l 1
 198.021 398 l 1
 196.982 381.548 196.417 364.502 196.417 344.613 c 0
 196.417 341.534 196.455 337.093 196.483 335 c 1
 441.911 335 l 1
 404.269 238 l 1
 206.722 238 l 1
 215.491 202.676 228.432 175.879 247.596 152.285 c 0
 285.308 105.855 339.445 86.791 388.936 86.791 c 0
 431.47 86.791 471.891 102.171 502.963 130.147 c 0
 516.818 142.622 l 1
 565.109 57.7475 l 1
 555.849 49.6866 l 0
 508.689 8.62945 448.185 -13.1265 384.233 -13.1265 c 0
 286.495 -13.1265 137.855 38.402 102.121 238 c 1
 29.2705 238 l 1
 50.9869 335 l 1
 94.3272 335 l 1
 94.3196 336.755 94.319 337.237 94.319 338.496 c 0
 94.319 358.356 94.9574 378.359 96.2892 398 c 1
 29.2705 398 l 1
 50.9869 495 l 1
 110.229 495 l 1
 119.247 531.406 131.909 564.312 150.544 594.847 c 0
 212.966 697.129 315.04 727.394 391.356 727.394 c 0
 456.067 727.394 515.404 704.349 558.672 660.541 c 0
EndSplineSet
Validated: 1
EndChar

StartChar: sterling
Encoding: 163 163 93
Width: 600
Flags: W
TeX: 115 0
LayerCount: 2
Fore
SplineSet
504.139 659.055 m 0
 514.452 649.596 l 1
 445.751 563.383 l 1
 434.13 571.903 l 0
 418.842 583.113 417.286 596.623 416.418 597.577 c 0
 413.874 600.373 384.087 626.128 341.348 626.128 c 0
 287.448 626.128 232.781 590.096 232.781 508.175 c 0
 232.781 490.253 235.44 471.923 239.401 453 c 1
 357 453 l 1
 357 357 l 1
 261.588 357 l 1
 268.586 326.236 273.537 297.297 273.537 264.365 c 0
 273.537 217.537 262.68 173.195 242.792 134.103 c 1
 246.162 134.156 245.346 134.144 247.063 134.144 c 0
 330.872 134.144 379.965 88.9164 438.359 88.9164 c 0
 466.558 88.9164 493.28 99.4468 514.245 117.395 c 0
 528.633 129.712 l 1
 573.986 41.9318 l 1
 564.335 34.2588 l 0
 537.06 12.5722 490.132 -17.1633 434.141 -17.1633 c 0
 352.31 -17.1633 304.869 34.666 227.673 34.666 c 0
 206.234 34.666 164.545 31.0803 92.0099 -7.26128 c 0
 77.9332 -14.7022 l 1
 35.1754 75.7162 l 1
 48.7094 81.7259 l 0
 103.751 106.166 112.55 109.023 128.669 133.126 c 0
 152.798 169.204 166.214 213.212 166.214 260.736 c 0
 166.214 293.007 159.463 326.577 151.995 357 c 1
 73 357 l 1
 73 453 l 1
 130.277 453 l 1
 126.956 471.76 124.93 489.648 124.93 508.816 c 0
 124.93 639.836 228.142 722.006 343.371 722.006 c 0
 402.369 722.006 459.809 699.711 504.139 659.055 c 0
EndSplineSet
Validated: 1
EndChar

StartChar: Y
Encoding: 89 89 94
Width: 600
Flags: W
TeX: 89 0
LayerCount: 2
Fore
SplineSet
250 284.606 m 1
 18.5805 723 l 1
 144.235 723 l 1
 311.337 391.628 l 1
 462.364 722 l 1
 581.605 722 l 1
 368 284.822 l 1
 368 0 l 1
 250 0 l 1
 250 284.606 l 1
EndSplineSet
Validated: 1
EndChar

StartChar: yen
Encoding: 165 165 95
Width: 600
Flags: W
TeX: 121 0
LayerCount: 2
Fore
SplineSet
254 337.842 m 1
 26.1944 723 l 1
 150.82 723 l 1
 309.446 437.851 l 1
 454.825 722 l 1
 574.961 722 l 1
 363 338.066 l 1
 363 333 l 1
 519 333 l 1
 519 237 l 1
 363 237 l 1
 363 194 l 1
 519 194 l 1
 519 99 l 1
 363 99 l 1
 363 0 l 1
 254 0 l 1
 254 99 l 1
 92 99 l 1
 92 194 l 1
 254 194 l 1
 254 237 l 1
 92 237 l 1
 92 333 l 1
 254 333 l 1
 254 337.842 l 1
EndSplineSet
Validated: 1
EndChar

StartChar: Z
Encoding: 90 90 96
Width: 600
Flags: W
TeX: 90 0
LayerCount: 2
Fore
SplineSet
67 619 m 1
 67 722 l 1
 543.265 722 l 1
 541.927 649.233 l 1
 196.516 101 l 1
 511 101 l 0
 519.018 101 523.191 108 542 108 c 0
 561 108 l 1
 561 -1 l 1
 53 -1 l 1
 53 71.7179 l 1
 405.192 619 l 1
 67 619 l 1
EndSplineSet
Validated: 1
EndChar

StartChar: Q
Encoding: 81 81 97
Width: 600
Flags: W
TeX: 81 0
LayerCount: 2
Fore
SplineSet
435.11 525.978 m 1
 402.264 601.49 344.905 626 300 626 c 0
 232.74 626 138 569.62 138 373.253 c 0
 138 159.77 232.787 94 305 94 c 0
 356.874 94 463 126.729 463 348.641 c 0
 463 405.79 458.824 470.306 435.11 525.978 c 1
526.437 589.405 m 1
 566.243 511.913 571 424.157 571 358.177 c 0
 571 295.989 566.234 208.266 526.436 130.789 c 1
 486.913 54.8417 423.905 10.3171 358.697 -4.99654 c 1
 361.889 -37.8798 371.974 -65 428 -65 c 0
 452.49 -65 483.581 -61.0549 521.19 -59.0219 c 0
 537.406 -58.1453 l 1
 534.625 -168 l 1
 454 -168 l 0
 406.856 -168 369.855 -166.198 334.345 -148.443 c 1
 278.584 -121.109 258.521 -67.5938 257.082 -5.54436 c 1
 145.902 17.0686 29 119.99 29 362.009 c 0
 29 640.985 187.095 730 304 730 c 0
 388.671 730 476.961 684.477 526.437 589.405 c 1
EndSplineSet
Validated: 1
EndChar

StartChar: thorn
Encoding: 254 254 98
Width: 600
Flags: W
TeX: 116 0
LayerCount: 2
Fore
SplineSet
65 -193 m 1
 65 770 l 1
 187 770 l 1
 187 753 l 0
 187 730.896 179 728.987 179 717 c 0
 179 476.542 l 1
 219.63 518.242 273.108 541 331 541 c 0
 443.933 541 561 454.41 561 270.615 c 0
 561 80.5164 441.405 -14 324 -14 c 0
 269.293 -14 217.046 8.31173 180 43.9593 c 1
 180 -193 l 1
 65 -193 l 1
444 253.947 m 0
 444 423.895 341.06 440 301 440 c 0
 252.193 440 209.276 416.11 191.779 377.432 c 1
 181.213 355.536 179 328.433 179 287.105 c 0
 179 215.896 179.63 177.949 192.796 148.847 c 1
 210.79 110.963 254.632 90 300 90 c 0
 344.869 90 444 109.886 444 253.947 c 0
EndSplineSet
Validated: 1
EndChar

StartChar: plusminus
Encoding: 177 177 100
Width: 600
Flags: W
TeX: 112 0
LayerCount: 2
Fore
SplineSet
48 5 m 1
 48 108 l 1
 555 108 l 1
 555 5 l 1
 48 5 l 1
EndSplineSet
Refer: 28 43 N 1 0 0 1 0 60 2
Validated: 1
EndChar

StartChar: R
Encoding: 82 82 101
Width: 600
Flags: W
TeX: 82 0
LayerCount: 2
Fore
SplineSet
60 0 m 1
 60 722 l 1
 288 722 l 0
 334.72 722 383.465 721.173 432.78 697.126 c 0
 504.805 662.007 543.143 591.752 543.143 517.476 c 0
 543.143 425.453 486.439 345.123 402.48 315.073 c 1
 572.677 0 l 1
 447.742 0 l 1
 287.742 304 l 1
 172 304 l 1
 172 0 l 1
 60 0 l 1
288 616 m 0
 172 616 l 1
 172 405 l 1
 297 405 l 0
 325.399 405 349.758 405.795 374.059 417.275 c 0
 410.185 434.339 430.003 469.128 430.003 507.686 c 0
 430.003 547.067 409.172 584.62 369.893 603.016 c 0
 343.972 615.155 318.091 616 288 616 c 0
EndSplineSet
Validated: 1
EndChar

StartChar: X
Encoding: 88 88 102
Width: 600
Flags: W
TeX: 88 0
LayerCount: 2
Fore
SplineSet
300.009 464.76 m 1
 440.071 723 l 1
 554.657 723 l 1
 364.304 369.967 l 1
 577.439 0 l 1
 452.216 0 l 1
 300.727 270.047 l 1
 154.949 0 l 1
 31.936 0 l 1
 237.389 367.877 l 1
 35.7372 723 l 1
 156.835 723 l 1
 300.009 464.76 l 1
EndSplineSet
Validated: 1
EndChar

StartChar: six
Encoding: 54 54 103
Width: 600
Flags: W
TeX: 115 0
LayerCount: 2
Fore
SplineSet
104.867 548.371 m 1
 150.723 674.584 250.547 730 343 730 c 0
 405.092 730 466.777 704.436 511.607 659.607 c 0
 521.688 649.526 l 1
 447.088 566.934 l 1
 436.177 574.869 l 0
 419.138 587.262 417.393 602.393 417.393 602.393 c 0
 414.948 604.839 385.643 628 343 628 c 0
 301.162 628 202.352 607.77 185.315 425.367 c 1
 220.96 460.618 269.447 481 321 481 c 0
 432.239 481 534 389.572 534 237.411 c 0
 534 86.3394 432.391 -12 313 -12 c 0
 243.96 -12 174.162 21.3054 129.464 86.769 c 0
 80.6491 158.167 73 247.811 73 330.166 c 0
 73 397.252 78.9005 479.489 104.867 548.371 c 1
425 232.623 m 0
 425 345.363 362.044 380 313 380 c 0
 267.711 380 218.043 348.819 186.615 297.622 c 1
 185.956 289.845 186 284.003 186 276.361 c 0
 186 164.58 246.666 90 316 90 c 0
 368.102 90 425 131.617 425 232.623 c 0
EndSplineSet
Validated: 1
EndChar

StartChar: nine
Encoding: 57 57 104
Width: 600
Flags: W
TeX: 110 0
LayerCount: 2
Fore
SplineSet
500.054 158.839 m 1
 453.89 42.882 356.246 -12 262 -12 c 0
 197.965 -12 137.214 13.6368 91.5189 58.2694 c 0
 81.1992 68.3491 l 1
 155.547 150.663 l 1
 166.32 143.481 l 0
 185.646 130.597 186.013 115.019 186.155 114.892 c 1
 189.644 112.447 220.51 92 264 92 c 0
 310.944 92 364.783 112.935 393.103 173.741 c 1
 398.63 187.183 413.077 222.724 418.93 297.859 c 1
 382.409 264.82 336.641 247 287 247 c 0
 172.777 247 74 341.127 74 482.666 c 0
 74 624.873 173.369 729 296 729 c 0
 377.395 729 466.282 680.406 506.182 568.387 c 1
 523.984 519.072 532 457.777 532 369.553 c 0
 532 254.594 512.601 192.001 500.054 158.839 c 1
183 485.602 m 0
 183 390.096 240.393 348 295 348 c 0
 339.802 348 387.564 376.186 417.343 421.779 c 1
 418.324 433.093 419 441.629 419 450.49 c 0
 419 565.159 357.23 627 294 627 c 0
 238.275 627 183 579.928 183 485.602 c 0
EndSplineSet
Validated: 1
EndChar

StartChar: seven
Encoding: 55 55 105
Width: 600
Flags: W
TeX: 115 0
LayerCount: 2
Fore
SplineSet
86 615 m 1
 86 722 l 1
 525 722 l 1
 525 661.381 l 1
 523.742 658.621 l 0
 474.991 551.654 429.407 443.355 387.061 333.903 c 0
 345.709 227.029 307.448 119.052 272.329 10.1425 c 0
 269.059 0 l 1
 146.26 0 l 1
 152.754 18.7809 l 0
 195.625 142.753 241.726 265.709 291.005 387.497 c 0
 321.814 463.636 354.457 540.669 387.354 615 c 1
 86 615 l 1
EndSplineSet
Validated: 1
EndChar

StartChar: W
Encoding: 87 87 106
Width: 600
Flags: W
TeX: 87 0
LayerCount: 2
Fore
SplineSet
133.204 -5 m 1
 12.4169 722 l 1
 117.793 722 l 1
 186.68 291.015 l 1
 287.476 669 l 1
 335.512 669 l 1
 436.128 293.197 l 1
 493.885 722 l 1
 592.535 722 l 1
 473.831 -5 l 1
 417.401 -5 l 1
 304.884 427.827 l 1
 190.552 -5 l 1
 133.204 -5 l 1
EndSplineSet
Validated: 1
EndChar

StartChar: acute
Encoding: 180 180 107
Width: 600
Flags: W
TeX: 78 0
LayerCount: 2
Fore
SplineSet
225.44 619.888 m 1
 343.257 816.25 l 1
 442.484 749.645 l 1
 307.862 570.15 l 1
 225.44 619.888 l 1
EndSplineSet
Validated: 1
EndChar

StartChar: oslash
Encoding: 248 248 123
Width: 600
Flags: W
TeX: 111 0
LayerCount: 2
Fore
SplineSet
341.022 433.452 m 1
 326.903 438.258 315.015 440.103 301.758 440.103 c 0
 230.933 440.103 159.985 376.773 159.985 252.806 c 0
 159.985 209.269 169.243 171.694 183.209 143.076 c 1
 341.022 433.452 l 1
475.441 475.891 m 1
 525.872 428.037 558.113 356.348 558.113 262.814 c 0
 558.113 89.4027 439.258 -14 304.969 -14 c 0
 269.745 -14 234.04 -5.82433 204.443 7.27341 c 1
 157.117 -79.0442 l 1
 70.5064 -34.2955 l 1
 123.741 58.8013 l 1
 72.9342 108.594 41.8677 178.23 41.8677 260.22 c 0
 41.8677 422.437 163.271 541.005 307.44 541.005 c 0
 336.095 541.005 364.447 535.78 391.233 525.842 c 1
 434.921 606.228 l 1
 523.454 559.105 l 1
 475.441 475.891 l 1
444.167 273.844 m 0
 444.167 325.39 433.43 365.559 417.334 395.556 c 1
 254.882 99.266 l 1
 272.416 91.2933 287.914 87.9927 305.614 87.9927 c 0
 372.943 87.9927 444.167 146.478 444.167 273.844 c 0
EndSplineSet
Validated: 1
EndChar

StartChar: uni02CB
Encoding: 715 715 130
Width: 600
Flags: W
TeX: 78 0
LayerCount: 2
Fore
SplineSet
197.516 749.645 m 1
 296.743 816.25 l 1
 414.56 619.888 l 1
 332.138 570.15 l 1
 197.516 749.645 l 1
EndSplineSet
Validated: 1
EndChar

StartChar: dotlessi
Encoding: 305 305 136
Width: 600
Flags: W
TeX: 78 0
LayerCount: 2
Fore
SplineSet
118 432 m 1
 118 530 l 1
 360 530 l 1
 360 97 l 1
 484 97 l 1
 484 0 l 1
 111 0 l 1
 111 97 l 1
 246 97 l 1
 246 432 l 1
 118 432 l 1
EndSplineSet
Validated: 1
EndChar

StartChar: circumflex
Encoding: 710 710 137
Width: 600
Flags: W
TeX: 78 0
LayerCount: 2
Fore
SplineSet
210.757 554.131 m 1
 144.544 614.324 l 1
 286.742 794 l 1
 326.321 794 l 1
 468.289 612.103 l 1
 389.995 554.107 l 1
 302.692 669.54 l 1
 210.757 554.131 l 1
EndSplineSet
Validated: 1
EndChar

StartChar: tilde
Encoding: 732 732 138
Width: 600
Flags: W
TeX: 78 0
LayerCount: 2
Fore
SplineSet
179.749 653.097 m 0
 171.327 639.511 l 1
 94.7356 694.009 l 1
 102.319 706.012 l 0
 146.042 755.858 192.836 783.268 246.029 783.268 c 0
 300.45 783.268 335.229 757.643 349.684 747.815 c 0
 369.039 734.654 383.315 726.93 396.658 726.93 c 0
 414.214 726.93 424.316 734.98 451.948 751.93 c 0
 462.665 766.393 l 1
 526.838 727.743 l 1
 518.694 717.606 l 0
 479.021 668.221 443.989 629.754 392.65 629.754 c 0
 312.614 629.754 277.625 687.432 242.844 687.432 c 0
 222.712 687.432 208.752 678.065 179.749 653.097 c 0
EndSplineSet
Validated: 1
EndChar

StartChar: dieresis
Encoding: 168 168 139
Width: 600
Flags: W
TeX: 78 0
LayerCount: 2
Fore
SplineSet
338.754 695.534 m 0
 338.754 736.658 372.13 770.034 413.254 770.034 c 0
 454.378 770.034 487.754 736.658 487.754 695.534 c 0
 487.754 654.41 454.378 621.034 413.254 621.034 c 0
 372.13 621.034 338.754 654.41 338.754 695.534 c 0
112.246 695.519 m 0
 112.246 736.643 145.622 770.019 186.746 770.019 c 0
 227.87 770.019 261.246 736.643 261.246 695.519 c 0
 261.246 654.395 227.87 621.019 186.746 621.019 c 0
 145.622 621.019 112.246 654.395 112.246 695.519 c 0
EndSplineSet
EndChar

StartChar: germandbls
Encoding: 223 223 144
Width: 600
Flags: W
TeX: 103 0
LayerCount: 2
Fore
SplineSet
168 0 m 1
 59 0 l 1
 59 482.414 l 0
 59 532.855 59.4561 586.455 84.48 640.755 c 0
 122.404 726.9 202.566 775.004 287.299 775.004 c 0
 410.966 775.004 512.21 674.94 512.21 556.108 c 0
 512.21 497.704 483.903 444.676 438.071 411.725 c 1
 516.057 375.922 563.006 298.98 563.006 212.466 c 0
 563.006 85.5494 462.784 -12.0295 335.412 -12.0295 c 0
 289.842 -12.0295 245.133 1.33042 206.781 26.4523 c 0
 194.447 34.5315 l 1
 252.21 126.107 l 1
 265.296 115.772 l 0
 284.788 100.379 309.001 91.9655 334.044 91.9655 c 0
 398.95 91.9655 456.132 144.673 456.132 216.391 c 0
 456.132 268.557 426.107 314.259 386.826 337.376 c 0
 357.572 354.592 330.25 356.947 293 356.947 c 0
 243 356.947 l 1
 243 447.142 l 1
 291 447.142 l 0
 308.095 447.142 321.542 447.591 338.074 454.541 c 0
 375.487 470.27 403.115 511.783 403.115 558.125 c 0
 403.115 626.94 351.703 678.194 291.766 678.194 c 0
 258.708 678.194 223.475 662.301 199.074 626.86 c 0
 169.359 585.673 168 532.889 168 483.844 c 0
 168 0 l 1
EndSplineSet
Validated: 1
EndChar

StartChar: paragraph
Encoding: 182 182 145
Width: 600
Flags: W
TeX: 112 0
LayerCount: 2
Fore
SplineSet
360 771 m 0
 540 771 l 1
 540 -79 l 1
 443 -79 l 1
 443 675 l 1
 365 675 l 1
 365 -79 l 1
 266 -79 l 1
 266 358.411 l 1
 148.141 372.167 58.9424 460.909 58.9424 566.072 c 0
 58.9424 640.568 104.845 711.16 186.919 745.449 c 0
 246.032 771.045 306.301 771 360 771 c 0
EndSplineSet
EndChar

StartChar: section
Encoding: 167 167 146
Width: 600
Flags: W
TeX: 115 0
LayerCount: 2
Fore
SplineSet
501.04 668.414 m 0
 507.03 657.877 l 1
 423.791 583.602 l 1
 413.957 591.032 l 0
 398.568 602.66 399.823 621.547 399.777 621.676 c 0
 392.138 642.865 362.365 679.915 308.352 679.915 c 0
 253.648 679.915 217.994 645.518 217.994 608.794 c 0
 217.994 590.978 225.467 562.042 271.36 538.715 c 0
 301.915 523.182 345.815 513.474 394.2 491.266 c 0
 478.642 452.509 509.176 398.873 509.176 352.157 c 0
 509.176 305.722 479.126 265.877 436.695 241.764 c 1
 478.424 206.571 498.175 160.413 498.175 115.084 c 0
 498.175 19.132 409.726 -63.0207 285.774 -63.0207 c 0
 204.054 -63.0207 124.495 -25.4285 73.0789 41.8957 c 0
 65.7016 51.5556 l 1
 141.67 139.979 l 1
 151.68 135.883 l 0
 171.438 127.799 169.61 107.131 169.61 107.131 c 1
 172.996 99.5985 208.718 43.7598 286.023 43.7598 c 0
 350.95 43.7598 385.23 80.622 385.23 117.033 c 0
 385.23 137.904 374.66 163.597 339.343 183.675 c 0
 295.871 208.389 229.327 212.813 167.734 247.78 c 0
 112.654 279.051 86.679 323.794 86.679 367.849 c 0
 86.679 417.671 120.287 459.441 166.129 482.997 c 1
 122.068 517.972 103.9 563.499 103.9 605.681 c 0
 103.9 699.889 192.604 778.269 307.936 778.269 c 0
 389.788 778.269 462.585 736.05 501.04 668.414 c 0
333.665 411.302 m 0
 307.655 424.136 273.485 432.442 238.597 445.745 c 1
 216.199 436.295 200.96 414.66 200.96 389.457 c 0
 200.96 369.064 210.794 339.009 255.062 317.35 c 0
 285.271 302.57 323.445 296.472 364.054 281.161 c 1
 381.64 292.601 392.453 311.633 392.453 333.72 c 0
 392.453 354.772 382.82 387.045 333.665 411.302 c 0
EndSplineSet
Validated: 1
EndChar

StartChar: copyright
Encoding: 169 169 147
Width: 600
Flags: W
TeX: 99 0
LayerCount: 2
Fore
SplineSet
127.846 319.43 m 0
 127.846 426.69 212.223 506.091 313.62 506.091 c 0
 392.971 506.091 455.889 456.075 472.574 387.549 c 0
 475.698 374.72 l 1
 393.297 343.133 l 1
 386.431 351.453 l 0
 374.174 366.306 378.938 381.058 378.938 381.058 c 0
 378.076 384.572 364.884 418.152 316.115 418.152 c 0
 267.565 418.152 222.997 389.557 222.997 326.991 c 0
 222.997 263.426 266.299 216.947 317.234 216.947 c 0
 347.957 216.947 376.215 233.971 390.786 261.098 c 0
 398.592 275.633 l 1
 475.741 224.2 l 1
 467.521 211.74 l 0
 432.851 159.186 374.454 125.974 312.13 125.974 c 0
 208.776 125.974 127.846 215.219 127.846 319.43 c 0
602.017 303.262 m 0
 602.017 129.739 468.267 -8.1121 306.217 -8.1121 c 0
 144.01 -8.1121 10.7487 129.577 10.7487 302.375 c 0
 10.7487 476.032 144.509 614.02 306.766 614.02 c 0
 468.593 614.02 602.017 476.463 602.017 303.262 c 0
308.142 535 m 0
 192.503 535 93.726 434.589 93.726 302.799 c 0
 93.726 172.206 191.98 71.9098 307.826 71.9098 c 0
 423.275 71.9098 522.005 172.13 522.005 303.685 c 0
 522.005 434.875 423.601 535 308.142 535 c 0
EndSplineSet
Validated: 1
EndChar

StartChar: registered
Encoding: 174 174 148
Width: 600
Flags: W
TeX: 114 0
LayerCount: 2
Fore
SplineSet
300 430 m 2
 258 430 l 1
 258 358 l 1
 303 358 l 2
 322.323 358 341.582 358.749 354.68 367.481 c 2
 355.152 367.796 l 1
 355.646 368.074 l 2
 366.692 374.287 371 383.739 371 394 c 0
 371 403.545 366.213 414.388 352.715 421.888 c 0
 339.339 429.319 319.21 430 300 430 c 2
175 500.021 m 1
 125.982 458.101 94 393.128 94 318 c 0
 94 187.472 192.065 87 308 87 c 0
 361.539 87 411.641 108.81 449.888 145.408 c 1
 382.4 135.591 l 1
 309.701 282 l 1
 258 282 l 1
 258 139 l 1
 175 139 l 1
 175 500.021 l 1
602 303 m 0
 602 129.259 467.814 -8 306 -8 c 0
 144.159 -8 11 129.291 11 302 c 0
 11 475.646 144.11 614 307 614 c 0
 468.864 614 602 476.67 602 303 c 0
308 535 m 0
 262.068 535 218.935 519.23 183.594 492 c 1
 299 492 l 2
 324.984 492 354.16 492.317 384.827 479.823 c 0
 429.402 460.392 454 420.088 454 379 c 0
 454 336.729 428.258 298.975 392.093 281.869 c 1
 463.235 144.329 l 1
 499.386 185.421 522 241.169 522 304 c 0
 522 434.528 423.935 535 308 535 c 0
EndSplineSet
Validated: 1
EndChar

StartChar: uni00B9
Encoding: 185 185 149
Width: 600
Flags: W
TeX: 117 0
LayerCount: 2
Fore
SplineSet
371 733 m 1
 371 293 l 1
 267 293 l 1
 267 621.621 l 1
 162.273 594.505 l 1
 130.844 654.054 l 1
 302.157 733 l 1
 371 733 l 1
EndSplineSet
Validated: 1
EndChar

StartChar: guilsinglleft
Encoding: 8249 8249 150
Width: 600
Flags: W
TeX: 78 0
LayerCount: 2
Fore
SplineSet
163 299.34 m 1
 354.499 474.641 l 1
 419.985 404.827 l 1
 279.85 278.416 l 1
 427.745 127.138 l 1
 360.658 60.0513 l 1
 163 260.064 l 1
 163 299.34 l 1
EndSplineSet
Validated: 1
EndChar

StartChar: guilsinglright
Encoding: 8250 8250 152
Width: 600
Flags: W
TeX: 78 0
LayerCount: 2
Fore
SplineSet
422 299.34 m 1
 422 260.064 l 1
 224.342 60.0513 l 1
 157.255 127.138 l 1
 305.15 278.416 l 1
 165.015 404.827 l 1
 230.501 474.641 l 1
 422 299.34 l 1
EndSplineSet
Validated: 1
EndChar

StartChar: guillemotright
Encoding: 187 187 153
Width: 600
Flags: W
TeX: 103 0
LayerCount: 2
Fore
SplineSet
332 299.34 m 1
 332 260.064 l 1
 134.342 60.0513 l 1
 67.255 127.138 l 1
 215.15 278.416 l 1
 75.0152 404.827 l 1
 140.501 474.641 l 1
 332 299.34 l 1
542 299.34 m 1
 542 260.064 l 1
 344.342 60.0513 l 1
 277.255 127.138 l 1
 425.15 278.416 l 1
 285.015 404.827 l 1
 350.501 474.641 l 1
 542 299.34 l 1
EndSplineSet
Validated: 1
EndChar

StartChar: logicalnot
Encoding: 172 172 154
Width: 600
Flags: W
TeX: 108 0
LayerCount: 2
Fore
SplineSet
101 314 m 1
 101 417 l 1
 505 417 l 1
 505 167 l 1
 401 167 l 1
 401 314 l 1
 101 314 l 1
EndSplineSet
Validated: 1
EndChar

StartChar: degree
Encoding: 176 176 156
Width: 600
Flags: W
TeX: 100 0
LayerCount: 2
Fore
SplineSet
306.436 740.008 m 0
 401.173 740.008 478.001 670.242 478.001 584.452 c 0
 478.001 498.662 401.175 428.902 306.439 428.902 c 0
 211.744 428.902 134.901 498.653 134.901 584.475 c 0
 134.901 670.25 211.714 740.008 306.436 740.008 c 0
379.083 586.094 m 0
 379.083 622.208 345.665 649.001 307.636 649.001 c 0
 269.562 649.001 235.977 622.177 235.977 585.845 c 0
 235.977 549.722 269.407 522.878 307.592 522.878 c 0
 345.498 522.878 379.083 549.657 379.083 586.094 c 0
EndSplineSet
Validated: 1
EndChar

StartChar: uni00B2
Encoding: 178 178 157
Width: 600
Flags: W
TeX: 117 0
LayerCount: 2
Fore
SplineSet
118.999 622.306 m 1
 125.996 634.476 l 2
 163.578 699.845 233.756 738.288 309.097 738.288 c 0
 407.635 738.288 479.001 681.033 479.001 610.039 c 0
 479.001 555.105 436.985 518.67 420.006 504.804 c 0
 377.629 465.748 324.58 438.627 270.18 386 c 1
 446 386 l 0
 446.529 386 447.022 386.015 447.196 386.019 c 1
 447.988 386.622 447.971 386.615 448.595 387.152 c 0
 449.532 387.961 461.547 400.937 478.725 395.236 c 0
 489 391.826 l 1
 489 293 l 1
 135 293 l 1
 135 363.855 l 1
 137.845 367.789 l 0
 204.138 450.628 291.32 502.903 324.907 527.582 c 0
 358.326 552.137 379.114 574.381 379.114 598.542 c 0
 379.114 623.017 355.969 648.917 306.876 648.917 c 0
 267.601 648.917 233.666 628.104 215.941 605.68 c 0
 212.756 601.651 213.843 598.38 206.271 584.008 c 0
 198.518 569.294 l 1
 118.999 622.306 l 1
EndSplineSet
Validated: 1
EndChar

StartChar: eth
Encoding: 240 240 158
Width: 600
Flags: W
TeX: 101 0
LayerCount: 2
Fore
SplineSet
444.002 268.385 m 0
 444.002 409.545 358.007 440.011 305.228 440.011 c 0
 236.094 440.011 159.996 388.305 159.996 268.814 c 0
 159.996 149.799 233.342 87.9969 306.097 87.9969 c 0
 362.608 87.9969 444.002 126.099 444.002 268.385 c 0
530.898 664.05 m 1
 438.294 637.798 l 1
 504.645 559.135 558.317 447.612 558.317 294.138 c 0
 558.317 233.501 551.228 159.937 511.335 96.685 c 0
 466.03 24.8549 388.674 -14.0061 306.684 -14.0061 c 0
 163.864 -14.0061 41.7783 100.09 41.7783 258.309 c 0
 41.7783 415.341 159.267 541.31 298.018 541.31 c 0
 333.582 541.31 367.484 532.109 397.126 515.968 c 1
 378.306 550.391 356.994 580.32 332.636 607.844 c 1
 180.884 564.825 l 1
 149.085 648.107 l 1
 256.615 677.494 l 1
 227.253 699.199 197.686 716.528 164.84 731.323 c 0
 122.337 750.467 l 1
 267.497 779.808 l 1
 272.359 777.071 l 0
 301.127 760.874 336.639 737.328 369.944 708.466 c 1
 500.131 744.045 l 1
 530.898 664.05 l 1
EndSplineSet
Validated: 1
EndChar

StartChar: Eth
Encoding: 208 208 159
Width: 600
Flags: W
TeX: 69 0
LayerCount: 2
Fore
SplineSet
86 431 m 1
 86 722 l 1
 263 722 l 0
 326.739 722 381.333 715.965 434.898 677.906 c 1
 527.892 612.219 565 485.131 565 364.821 c 0
 565 214.06 505.148 74.9142 386.335 21.4711 c 1
 342.327 1.88971 300.433 -1 249 -1 c 0
 86 -1 l 1
 86 334 l 1
 30 334 l 1
 30 431 l 1
 86 431 l 1
312 334 m 1
 191 334 l 1
 191 96 l 1
 245 96 l 0
 285.682 96 320.23 97.8042 357.556 121.924 c 0
 420.505 162.498 457 249.938 457 355.269 c 0
 457 430.18 439.931 511.573 398.892 564.524 c 0
 353.923 622.708 302.445 624 258 624 c 0
 191 624 l 1
 191 431 l 1
 312 431 l 1
 312 334 l 1
EndSplineSet
Validated: 1
EndChar

StartChar: Thorn
Encoding: 222 222 160
Width: 600
Flags: W
TeX: 84 0
LayerCount: 2
Fore
SplineSet
63 0 m 1
 63 722 l 1
 179.747 722 l 1
 183.203 711.824 l 0
 184.26 708.796 184.785 705.636 184.785 702.474 c 0
 184.785 690.069 177.192 682.084 176.015 680.263 c 0
 174.464 677.864 175 679.541 175 675.988 c 0
 175 589.377 l 1
 298 589.377 l 0
 344.664 589.377 392.668 588.377 441.491 563.909 c 0
 515.42 526.861 553.016 452.521 553.016 376.936 c 0
 553.016 301.175 515.448 228.251 442.912 192.366 c 0
 395.526 168.923 349.052 168 304 168 c 0
 175 168 l 1
 175 0 l 1
 63 0 l 1
298 495 m 0
 175 495 l 1
 175 269 l 1
 307 269 l 0
 335.399 269 359.758 269.852 384.059 282.147 c 0
 420.185 300.425 440.003 337.687 440.003 378.986 c 0
 440.003 421.168 419.172 461.388 379.893 481.092 c 0
 353.973 494.095 328.09 495 298 495 c 0
EndSplineSet
Validated: 1
EndChar

StartChar: ring
Encoding: 730 730 161
Width: 600
Flags: W
TeX: 78 0
LayerCount: 2
Fore
SplineSet
306.911 803.005 m 0
 369.155 803.005 419.005 755.673 419.005 697.997 c 0
 419.005 640.312 369.184 592.958 306.924 592.958 c 0
 244.803 592.958 194.921 640.271 194.921 698.063 c 0
 194.921 755.689 244.715 803.005 306.911 803.005 c 0
308.022 743.012 m 0
 285.728 743.012 265.914 724.463 265.914 698.785 c 0
 265.914 673.686 285.375 654.896 307.995 654.896 c 0
 330.299 654.896 350.035 673.439 350.035 699.061 c 0
 350.035 724.26 330.577 743.012 308.022 743.012 c 0
EndSplineSet
EndChar

StartChar: circumflex.cap
Encoding: 65536 -1 190
Width: 600
Flags: W
TeX: 78 0
LayerCount: 2
Fore
SplineSet
171.861 585.488 m 1
 120.316 646.404 l 1
 288.965 774 l 1
 324.211 774 l 1
 483.594 648.054 l 1
 426.597 582.058 l 1
 303.554 666.137 l 1
 171.861 585.488 l 1
EndSplineSet
Validated: 1
EndChar

StartChar: ae
Encoding: 230 230 192
Width: 600
Flags: W
TeX: 97 0
LayerCount: 2
Fore
SplineSet
26.7493 462.006 m 1
 34.3148 471.405 l 2
 70.2438 516.045 124.534 541 180 541 c 0
 232.915 541 280.181 517.154 309.023 480.724 c 1
 339.346 519.074 383.975 541 431 541 c 0
 477.674 541 529.164 519.745 559.855 470.379 c 1
 593.49 419.474 593 359.579 593 311.123 c 0
 593 256.337 l 1
 352 246.955 l 1
 352 209.79 l 0
 352 183.725 353.066 164.758 362.719 144.173 c 1
 380.333 106.986 418.027 85 457 85 c 0
 486.54 85 512.856 97.8552 529.947 120.928 c 0
 541.165 136.073 l 1
 602.688 64.0458 l 1
 594.451 54.3109 l 0
 558.702 12.0614 506.552 -13 451 -13 c 0
 394.448 -13 341.488 12.7325 306.168 55.0233 c 1
 275.849 12.4355 227.485 -13 174 -13 c 0
 82.4735 -13 7 58.2936 7 147.509 c 0
 7 209.014 43.3178 274.396 121.879 307.731 c 1
 167.866 326.805 211.186 328.65 239.444 329.598 c 1
 251 330.015 l 1
 251 344.626 l 0
 251 363.995 249.915 380.815 243.903 396.132 c 1
 231.757 427.893 204.18 446 174 446 c 0
 147.809 446 117.928 429.911 99.4188 402.587 c 0
 88.0312 385.777 l 1
 26.7493 462.006 l 1
251 169 m 0
 251 238.388 l 1
 241.549 238.01 l 1
 211.32 237.003 184.195 235.827 157.78 222.619 c 1
 126.207 206.406 111 175.717 111 148 c 0
 111 105.784 143.813 73 182 73 c 0
 208.436 73 234.219 87.54 244.873 117.044 c 1
 249.873 131.21 251 147.376 251 169 c 0
352 328 m 0
 352 323.616 l 1
 496 329.409 l 1
 496 338 l 0
 496 362.187 495.772 383.223 486.31 403.868 c 1
 474.141 431.684 452.107 446 430 446 c 0
 407.594 446 386.619 431.94 371.419 409.587 c 0
 353.069 382.499 352 355.779 352 328 c 0
EndSplineSet
Validated: 1
EndChar

StartChar: oe
Encoding: 339 339 193
Width: 600
Flags: W
TeX: 111 0
LayerCount: 2
Fore
SplineSet
121.603 386.258 m 0
 104.16 352.418 102 313.301 102 283.351 c 0
 102 247.822 104.157 196.644 118.313 156.641 c 1
 135.819 103.152 171.01 88 198 88 c 0
 223.575 88 242 100.535 242 115.644 c 0
 242 124.545 227 179.745 227 273.215 c 0
 227 352.941 237 395.759 237 407.749 c 0
 237 426.355 220.792 440 196 440 c 0
 170.181 440 139.86 423.269 121.603 386.258 c 0
341.241 400.585 m 0
 338.938 393.781 331.043 373.784 330.087 337 c 1
 494 337 l 1
 494 341.4 l 2
 494 368.655 492.472 394.649 478.307 414.447 c 2
 478.121 414.706 l 1
 477.95 414.972 l 2
 463.99 436.651 438.512 447 413 447 c 0
 387.695 447 356.882 436.247 341.241 400.585 c 0
36.7465 441.375 m 0
 73.1 507.299 136.28 540 197 540 c 0
 238.737 540 278.114 523.38 305.715 494.482 c 1
 337.609 524.376 378.708 540 422 540 c 0
 481.115 540 547.728 510.179 576.118 435.319 c 0
 591.196 395.326 593 350.872 593 307.656 c 2
 593 241 l 1
 329.249 241 l 1
 330.565 179.869 333.876 154.512 344.707 132.48 c 0
 362.077 93.928 398.23 78.5556 437 78.5556 c 0
 467.99 78.5556 504.354 88.0054 530.752 116.262 c 2
 542.419 128.749 l 1
 603.107 58.8503 l 1
 593.74 49.7769 l 2
 552.004 9.34966 495.141 -14 435 -14 c 0
 387.597 -14 341.339 1.63931 303.485 29.5173 c 1
 270.004 2.44034 229.964 -13 188 -13 c 0
 136.957 -13 73.1673 11.7094 35.5188 84.1522 c 0
 5.59827 142.941 2 215.05 2 273.46 c 0
 2 324.298 5.80357 386.723 36.7465 441.375 c 0
EndSplineSet
Validated: 1
EndChar

StartChar: acute.cap
Encoding: 65538 -1 194
Width: 600
Flags: W
TeX: 78 0
LayerCount: 2
Fore
SplineSet
189.71 695.476 m 1
 392.526 784.645 l 1
 454.821 704.951 l 1
 230.158 623.568 l 1
 189.71 695.476 l 1
EndSplineSet
Validated: 1
EndChar

StartChar: grave.cap
Encoding: 65539 -1 195
Width: 600
Flags: W
TeX: 78 0
LayerCount: 2
Fore
SplineSet
182.179 704.951 m 1
 244.474 784.645 l 1
 447.29 695.476 l 1
 406.842 623.568 l 1
 182.179 704.951 l 1
EndSplineSet
Validated: 1
EndChar

StartChar: ordfeminine
Encoding: 170 170 196
Width: 600
Flags: W
TeX: 111 0
LayerCount: 2
Fore
SplineSet
132.276 641.238 m 1
 140.711 650.878 l 2
 186.339 703.023 250.1 721 308 721 c 0
 374.702 721 434.399 694.13 461.597 636.335 c 1
 475.226 606.805 476 577.186 476 547 c 0
 476 293.409 l 1
 373 293.409 l 1
 373 315.055 l 1
 339.556 293.864 302.497 283 264 283 c 0
 176.805 283 113 342.099 113 411.037 c 0
 113 452.012 137.161 497.32 189.874 524.2 c 1
 236.792 549.464 290.555 551.093 339.274 551.093 c 0
 349.753 551.093 360.033 551 370 551 c 0
 372 551 l 1
 371.987 572.261 371.62 586.138 361.423 601.825 c 0
 351.499 617.094 333.008 629 301 629 c 0
 263.421 629 226.632 615.332 204.16 584.218 c 0
 192.847 568.553 l 1
 132.276 641.238 l 1
375 456.75 m 0
 375 461 l 1
 371 461 l 0
 357.379 461 342.305 461.395 327.247 461.395 c 0
 308.489 461.395 289.561 460.821 274.538 458.691 c 1
 229.727 451.964 218 429.843 218 415.127 c 0
 218 396.066 237.551 376 276 376 c 0
 306.249 376 336.06 388.875 353.756 403.164 c 1
 374.443 419.342 375 433.863 375 456.75 c 0
83 161 m 1
 83 254 l 1
 518 254 l 1
 518 161 l 1
 83 161 l 1
EndSplineSet
Validated: 1
EndChar

StartChar: ordmasculine
Encoding: 186 186 197
Width: 600
Flags: W
TeX: 111 0
LayerCount: 2
Fore
SplineSet
105.827 493.637 m 0
 105.827 628.158 195.504 721.011 301.826 721.011 c 0
 394.174 721.011 485.107 648.118 485.107 507.065 c 0
 485.107 355.418 388.214 281.94 294.598 281.94 c 0
 193.519 281.94 105.827 364.845 105.827 493.637 c 0
296.205 626 m 0
 254.259 626 205.986 588.486 205.986 498.929 c 0
 205.986 412.869 254.912 378.925 296.394 378.925 c 0
 336.168 378.925 386 410.452 386 498.922 c 0
 386 588.098 338.491 626 296.205 626 c 0
83 161 m 1
 83 254 l 1
 518 254 l 1
 518 161 l 1
 83 161 l 1
EndSplineSet
Validated: 1
EndChar

StartChar: uni02C9
Encoding: 713 713 198
Width: 600
Flags: W
TeX: 78 0
LayerCount: 2
Fore
SplineSet
138 625 m 1
 138 720 l 1
 462 720 l 1
 462 625 l 1
 138 625 l 1
EndSplineSet
Validated: 1
EndChar

StartChar: cedilla
Encoding: 184 184 201
Width: 600
Flags: W
TeX: 78 0
LayerCount: 2
Fore
SplineSet
293.161 -111 m 1
 307.736 0 l 1
 369.69 0 l 1
 363.653 -52.2815 l 1
 376.357 -52.9131 l 1
 391.448 -53.8636 407.208 -54.7385 423.611 -61.9696 c 1
 447.681 -73.3392 461 -94.2507 461 -118.088 c 0
 461 -161.023 415.923 -205 329 -205 c 0
 283.852 -205 232.691 -191.705 188.567 -160.921 c 0
 183.959 -157.706 l 1
 219.416 -99.0192 l 1
 224.764 -103.327 l 0
 259.538 -131.34 302.292 -143 336 -143 c 0
 379.454 -143 383 -131.055 383 -127 c 0
 383 -123.573 380.32 -119.192 373.086 -116.269 c 0
 372.874 -116.183 l 1
 372.672 -116.085 l 0
 362.763 -111.281 347.136 -111 334 -111 c 0
 293.161 -111 l 1
EndSplineSet
EndChar

StartChar: uni00B3
Encoding: 179 179 204
Width: 600
Flags: W
TeX: 117 0
LayerCount: 2
Fore
SplineSet
143.549 661.688 m 0
 185.281 711.015 245.729 739.11 308.545 739.11 c 0
 400.907 739.11 475.209 684.994 475.209 617.976 c 0
 475.209 586.815 458.156 559.182 432.459 541.884 c 1
 471.044 521.213 495.001 483.268 495.001 439.669 c 0
 495.001 351.906 401.848 290.99 304.904 290.99 c 0
 237.34 290.99 173.14 320.359 128.713 371.121 c 0
 119.945 381.139 l 1
 193.751 463.147 l 1
 204.921 451.282 l 0
 221.913 433.234 216.563 423.419 220.631 419.448 c 0
 225.518 414.679 257.207 385.987 306.079 385.987 c 0
 358.547 385.987 393.454 416.944 393.454 446.009 c 0
 393.454 459.191 388.988 495.101 306.637 495.101 c 0
 295.237 495.101 284.421 494.408 273.821 493.111 c 0
 257 491.053 l 1
 257 582.502 l 1
 273.427 580.932 l 0
 280.603 580.246 287.791 579.894 294.972 579.894 c 0
 366.39 579.894 376.54 599.536 376.54 610.867 c 0
 376.54 627.69 351.116 648.038 305.041 648.038 c 0
 270.687 648.038 233.77 630.945 208.712 599.628 c 0
 198.118 586.388 l 1
 134.739 651.276 l 1
 143.549 661.688 l 0
EndSplineSet
Validated: 1
EndChar

StartChar: divide
Encoding: 247 247 205
Width: 600
Flags: W
TeX: 100 0
LayerCount: 2
Fore
SplineSet
77 311 m 1
 77 418 l 1
 524 418 l 1
 524 311 l 1
 77 311 l 1
305.98 593.01 m 0
 342.983 593.01 373 562.971 373 525.992 c 0
 373 489.013 342.985 458.972 305.98 458.972 c 0
 268.991 458.972 238.962 489.001 238.962 525.99 c 0
 238.962 562.979 268.988 593.01 305.98 593.01 c 0
305.963 251.04 m 0
 342.968 251.04 373.01 220.998 373.01 183.993 c 0
 373.01 146.989 342.971 116.943 305.964 116.943 c 0
 268.956 116.943 238.913 146.983 238.913 183.992 c 0
 238.913 221 268.955 251.04 305.963 251.04 c 0
EndSplineSet
Validated: 1
EndChar

StartChar: Oslash
Encoding: 216 216 206
Width: 600
Flags: W
TeX: 79 0
LayerCount: 2
Fore
SplineSet
380.988 593.969 m 1
 353.865 616.062 326.109 624.01 300.361 624.01 c 0
 234.989 624.01 138.971 568.187 138.971 357.659 c 0
 138.971 285.433 149.396 228.717 164.814 187.226 c 1
 380.988 593.969 l 1
525.152 591.714 m 0
 566.419 513.956 571.008 425.305 571.008 359.737 c 0
 571.008 298.122 566.665 209.47 526.517 131.33 c 0
 476.581 34.1422 388.117 -11.0151 304.485 -11.0151 c 0
 263.255 -11.0151 217.632 0.668261 175.046 28.0108 c 1
 118.249 -78.1125 l 1
 31.6326 -33.3606 l 1
 101.95 93.9423 l 1
 57.7682 154.098 28.9996 240.139 28.9996 361.591 c 0
 28.9996 640.746 187.162 730 303.761 730 c 0
 347.865 730 392.513 717.162 432.639 691.154 c 1
 484.799 789.293 l 1
 573.319 742.177 l 1
 506.537 622.177 l 1
 514.306 610.998 519.289 602.762 525.152 591.714 c 0
460.085 363.897 m 0
 460.085 416.351 457.03 473.96 441.377 525.645 c 1
 227.294 125.635 l 1
 252.993 105.72 279.683 97.987 304.834 97.987 c 0
 347.58 97.987 398.097 121.701 429.218 187.158 c 0
 457.048 245.693 460.085 317.159 460.085 363.897 c 0
EndSplineSet
Validated: 1
EndChar

StartChar: multiply
Encoding: 215 215 207
Width: 600
Flags: W
TeX: 109 0
LayerCount: 2
Fore
SplineSet
452.394 593.019 m 1
 529.445 521.572 l 1
 378.445 376.799 l 1
 526.01 220.603 l 1
 450.612 146.601 l 1
 304.639 300.66 l 1
 160.269 151.726 l 1
 86.8962 223.688 l 1
 233.261 375.992 l 1
 86.8811 519.679 l 1
 163.5 593.512 l 1
 306.857 442.18 l 1
 452.394 593.019 l 1
EndSplineSet
Validated: 1
EndChar

StartChar: AE
Encoding: 198 198 208
Width: 600
Flags: W
TeX: 65 0
LayerCount: 2
Fore
SplineSet
-5.4315 0 m 1
 230.988 723 l 1
 586 723 l 1
 586 621 l 1
 385.127 621 l 1
 386.874 429 l 1
 556 429 l 1
 556 325 l 1
 388.112 325 l 1
 389.888 102 l 1
 583 102 l 1
 583 0 l 1
 287 0 l 1
 287 181 l 1
 161.988 181 l 1
 99.9877 0 l 1
 -5.4315 0 l 1
287 278 m 1
 287 594.203 l 1
 188.39 278 l 1
 287 278 l 1
EndSplineSet
Validated: 1
EndChar

StartChar: OE
Encoding: 338 338 209
Width: 600
Flags: W
TeX: 79 0
LayerCount: 2
Fore
SplineSet
208 732 m 0
 237.023 732 264.961 722.948 288 707.516 c 1
 288 723 l 1
 586 723 l 1
 586 621 l 1
 390 621 l 1
 390 429 l 1
 556 429 l 1
 556 325 l 1
 390 325 l 1
 390 102 l 1
 583 102 l 1
 583 0 l 1
 287 0 l 1
 287 16.9068 l 1
 263.567 0.587574 235.991 -8 207 -8 c 0
 142.656 -8 67.2206 34.7588 32.6147 143.602 c 1
 28.394 157.799 6 229.814 6 362 c 0
 6 455.936 13.9064 538.668 46.2048 611.764 c 0
 86.3199 702.057 154.99 732 208 732 c 0
132.13 557.259 m 1
 124.748 538.897 110 490.03 110 375.371 c 0
 110 344.387 110.63 230.745 140.897 159.94 c 0
 165.203 103.247 197.85 93 217 93 c 0
 248.102 93 276.542 119.559 287 162.774 c 1
 287 549.448 l 1
 273.886 588.177 245.9 635 208 635 c 0
 183.476 635 152.425 614.949 132.13 557.259 c 1
EndSplineSet
Validated: 1
EndChar

StartChar: currency
Encoding: 164 164 210
Width: 600
Flags: W
TeX: 78 0
LayerCount: 2
Fore
SplineSet
402 392.5 m 0
 402 444.075 356.712 486 301 486 c 0
 245.165 486 199 443.915 199 392.5 c 0
 199 341.085 245.165 299 301 299 c 0
 356.712 299 402 340.925 402 392.5 c 0
134.721 489.988 m 1
 67.8674 555.081 l 1
 130 617.213 l 1
 196.986 550.227 l 1
 228.52 569.363 263.107 580 301 580 c 0
 337.897 580 372.778 569.447 403.007 551.22 c 1
 469 617.213 l 1
 531.213 555 l 1
 465.403 491.895 l 1
 485.231 461.841 496 428.285 496 391.986 c 0
 496 355.712 484.38 320.936 466.285 293.019 c 1
 531.13 229.852 l 1
 469 168.787 l 1
 403.297 233.278 l 1
 372.985 214.538 338.458 205 301 205 c 0
 262.252 205 226.349 216.294 196.798 234.328 c 1
 130 168.787 l 1
 67.7868 229.932 l 1
 134.67 294.067 l 1
 115.812 323.322 106 356.028 106 391.988 c 0
 106 428.046 116.684 462.008 134.721 489.988 c 1
EndSplineSet
Validated: 1
EndChar

StartChar: brokenbar
Encoding: 166 166 211
Width: 600
Flags: W
TeX: 78 0
LayerCount: 2
Fore
SplineSet
246 312 m 1
 246 756 l 1
 354 756 l 1
 354 312 l 1
 246 312 l 1
354 242 m 1
 354 -190 l 1
 246 -190 l 1
 246 242 l 1
 354 242 l 1
EndSplineSet
Validated: 1
EndChar

StartChar: ogonek
Encoding: 731 731 214
Width: 600
Flags: W
TeX: 78 0
LayerCount: 2
Fore
SplineSet
418.182 -1.37167 m 0
 419.845 0 l 1
 514.659 0 l 1
 503.009 -10.4637 l 0
 464.297 -42.2622 435.791 -71.0213 426.054 -81.1062 c 0
 417.927 -89.5234 408.048 -100.944 408.048 -114.147 c 0
 408.048 -127.628 418.161 -138.797 435.947 -138.797 c 0
 442.17 -138.797 449.99 -137.343 461.804 -133.041 c 0
 479.22 -126.698 490.238 -119.132 497.169 -113.382 c 0
 507 -105.226 l 1
 507 -173.74 l 1
 504.929 -175.534 l 0
 480.829 -196.419 450.674 -204.002 420.9 -204.002 c 0
 358.603 -204.002 324.051 -171.589 324.051 -131.394 c 0
 324.051 -93.0498 357.814 -48.3878 418.182 -1.37167 c 0
EndSplineSet
EndChar

StartChar: dotaccent
Encoding: 729 729 222
Width: 600
Flags: W
TeX: 78 0
LayerCount: 2
Fore
SplineSet
230 685.5 m 0
 230 726.624 263.376 760 304.5 760 c 0
 345.624 760 379 726.624 379 685.5 c 0
 379 644.376 345.624 611 304.5 611 c 0
 263.376 611 230 644.376 230 685.5 c 0
EndSplineSet
EndChar

StartChar: breve
Encoding: 728 728 241
Width: 600
Flags: W
LayerCount: 2
Fore
SplineSet
170.376 759.888 m 1
 181.677 742.018 l 2
 206.527 710.581 249.447 681.993 299.32 681.993 c 0
 341.312 681.993 387.408 703.107 425.132 742.174 c 0
 437.71 758.445 l 1
 488.414 690.79 l 1
 482.071 682.903 l 0
 440.707 631.462 375.414 591.983 299.498 591.983 c 0
 230.821 591.983 163.734 625.333 115.462 678.67 c 0
 107.684 687.265 l 1
 170.376 759.888 l 1
EndSplineSet
Validated: 1
EndChar

StartChar: eng
Encoding: 331 331 242
Width: 600
Flags: W
LayerCount: 2
Fore
SplineSet
189 0 m 1
 74 0 l 1
 74 529 l 1
 189 529 l 1
 189 464.521 l 1
 230.3 509.428 286.997 542.003 349.957 542.003 c 0
 416.1 542.003 475.927 506.225 504.616 444.405 c 0
 524.99 400.508 525 356.345 525 316.991 c 0
 525 72.9141 l 0
 525 27.0839 524.74 -22.0642 503.382 -72.1464 c 0
 469.004 -156.699 393.124 -203.685 314.113 -203.685 c 0
 269.868 -203.685 226.847 -188.979 191.818 -161.861 c 0
 181.97 -154.237 l 1
 232.923 -54.8791 l 1
 244.205 -57.3463 l 0
 260.383 -60.8844 263.188 -77.5536 263.413 -78.3169 c 1
 269.285 -83.2687 290.09 -96.182 316.013 -96.182 c 0
 342.95 -96.182 371.098 -83.1437 390.099 -53.6071 c 0
 412.319 -21.0464 413 21.0565 413 60.0843 c 0
 413 311.774 l 0
 413 347.416 411.954 385.623 387.607 413.048 c 0
 371.544 431.142 349.819 439.58 327.341 439.58 c 0
 279.362 439.58 231.14 399.709 212.305 376.214 c 0
 192.571 351.598 189 331.845 189 299.556 c 0
 189 0 l 1
EndSplineSet
Validated: 1
EndChar

StartChar: dcaron
Encoding: 271 271 245
Width: 600
Flags: W
LayerCount: 2
Fore
SplineSet
220.226 543.229 m 0
 272.022 543.229 320.204 520.919 353 485.29 c 1
 353 771 l 1
 462 771 l 1
 462 61.603 l 0
 462 46.6533 462.823 31.7508 466.518 18.0707 c 0
 471.398 0 l 1
 358.156 0 l 1
 354.756 10.2971 l 0
 349.695 25.6243 349 40.8476 349 54 c 0
 349 54 237.772 -12.0137 209.492 -12.0137 c 0
 85.6958 -12.0137 -5.00098 110.164 -5.00098 268.708 c 0
 -5.00098 439.916 102.557 543.229 220.226 543.229 c 0
330.025 381.246 m 0
 309.676 420.623 260.817 445.159 224.355 445.159 c 0
 161.899 445.159 105.932 379.971 105.932 277.976 c 0
 105.932 179.896 156.75 91.8809 227.748 91.8809 c 0
 266.303 91.8809 302.671 117.898 322.501 147.772 c 0
 343.071 178.757 346.312 212.413 346.312 256.078 c 0
 346.312 321.441 344.424 353.385 330.025 381.246 c 0
EndSplineSet
Refer: 56 8217 N 0.8 0 0 0.8 306.515 186.393 2
Validated: 1
EndChar

StartChar: eogonek
Encoding: 281 281 246
Width: 600
Flags: W
LayerCount: 2
Fore
SplineSet
304 448 m 0
 255.44 448 187.256 422.783 167.557 332 c 1
 427.034 332 l 1
 427.081 334.145 427.073 333.842 427.073 335.018 c 0
 427.073 397.45 374.972 448 304 448 c 0
51 259.308 m 0
 51 449.26 174.805 542 310 542 c 0
 401.568 542 508.503 493.532 533.76 351.095 c 0
 537.742 331.498 539.638 310.156 539.638 288.453 c 0
 539.638 276.242 539.057 263.781 537.948 251.107 c 2
 536.802 238 l 1
 163.025 238 l 1
 175.787 112.658 263.996 85 327 85 c 0
 376.001 85 420.764 104.281 452.836 140.019 c 2
 463.295 151.673 l 1
 530.39 86.0371 l 1
 521.523 75.3975 l 1
 477.113 20.1553 l 2
 436.805 -29.9854 402.601 -65.4972 402.601 -95.807 c 0
 402.601 -118.802 418.782 -135.006 441.833 -135.006 c 0
 447.023 -135.006 465.234 -134.702 497.773 -113.942 c 2
 507.195 -107.93 l 1
 505.938 -179.587 l 1
 502.885 -181.261 l 2
 480.384 -193.599 452.391 -202.754 423.732 -202.754 c 0
 363.084 -202.754 321.823 -161.601 321.823 -110.525 c 0
 321.823 -78.7682 339.075 -43.1319 371.032 -7.8094 c 1
 354.44 -10.6 337.363 -12 320 -12 c 0
 169.288 -12 51 84.1602 51 259.308 c 0
EndSplineSet
EndChar

StartChar: dotlessj
Encoding: 567 567 259
Width: 600
Flags: W
LayerCount: 2
Fore
SplineSet
141 431 m 1
 141 530 l 1
 452 530 l 1
 452 45.5112 l 0
 452 1.8504 450.923 -42.6284 426.522 -88.2029 c 0
 387.593 -164.44 307.69 -202.181 227.699 -202.181 c 0
 157.854 -202.181 95.2226 -173.161 54.321 -122.413 c 0
 47.0016 -113.331 l 1
 117.43 -19.427 l 1
 129.55 -29.4326 l 0
 142.944 -40.4901 142.658 -54.0156 142.904 -54.4183 c 0
 145.568 -58.7709 176.723 -100.016 233.016 -100.016 c 0
 272.49 -100.016 308.498 -79.3772 325.849 -41.9335 c 0
 337.308 -18.6779 338 4.79038 338 31.3513 c 0
 338 431 l 1
 141 431 l 1
EndSplineSet
Validated: 1
EndChar

StartChar: kgreenlandic
Encoding: 312 312 260
Width: 600
Flags: W
LayerCount: 2
Fore
SplineSet
72 -1 m 1
 72 529 l 1
 194.728 529 l 1
 196.8 516.442 l 0
 197.066 514.831 197.196 513.21 197.196 511.598 c 0
 197.196 497.791 188.114 489.261 186.924 487.639 c 0
 185.317 485.45 186 487.599 186 484 c 0
 186 305.391 l 1
 431.726 533.499 l 1
 439.584 531.566 l 0
 458.215 526.982 478.16 526 498 526 c 0
 565.808 526 l 1
 325.481 311.867 l 1
 596.874 -1.20844 l 1
 564.902 -0.99968 l 0
 562.235 -0.982266 559.562 -0.973546 556.896 -0.973546 c 0
 501.908 -0.973546 458.346 -4.93946 458.346 -4.93946 c 0
 450.321 -5.66268 l 1
 239.374 258.021 l 1
 186 208.459 l 1
 186 -1 l 1
 72 -1 l 1
EndSplineSet
Validated: 1
EndChar

StartChar: uparrow
Encoding: 8593 8593 266
Width: 600
Flags: W
LayerCount: 2
Fore
SplineSet
57.0852 465.752 m 1
 287.745 742 l 1
 327.632 742 l 1
 542.293 462.242 l 1
 459.451 406.538 l 1
 355 548.199 l 1
 355 -39 l 1
 248 -39 l 1
 248 551.905 l 1
 130.183 405.812 l 1
 57.0852 465.752 l 1
EndSplineSet
Validated: 1
EndChar

StartChar: visiblespace
Encoding: 9251 9251 268
Width: 600
Flags: W
LayerCount: 2
Fore
SplineSet
51 -106 m 1
 51 81 l 1
 135 81 l 1
 135 -24 l 1
 463 -24 l 1
 463 81 l 1
 549 81 l 1
 549 -106 l 1
 51 -106 l 1
EndSplineSet
Validated: 1
EndChar

StartChar: r.serif
Encoding: 65540 -1 269
Width: 600
Flags: W
LayerCount: 2
Fore
SplineSet
70 432 m 1
 70 529 l 1
 259.448 529 l 1
 257.556 464.695 l 1
 297.181 511.697 352.926 541.496 416.28 541.496 c 0
 469.647 541.496 523.266 519.893 563.599 479.614 c 0
 571.174 472.049 l 1
 518.518 364.038 l 1
 503.676 378.118 l 0
 492.795 388.441 488.459 398.505 483.357 405.26 c 0
 471.741 420.642 447.197 439.759 411.236 439.759 c 0
 377.226 439.759 334.785 423.955 295.101 372.215 c 0
 255.414 320.47 256 292.404 256 266.911 c 0
 256 92 l 1
 367 92 l 1
 367 -1 l 1
 68 -1 l 1
 68 92 l 1
 143 92 l 1
 143 432 l 1
 70 432 l 1
EndSplineSet
Validated: 1
EndChar

StartChar: hungarumlaut.cap
Encoding: 65541 -1 270
Width: 600
Flags: W
LayerCount: 2
Fore
SplineSet
323.849 781.572 m 1
 498.144 946.694 l 1
 571.101 845.365 l 1
 377.821 741.555 l 1
 323.849 781.572 l 1
97.8486 781.572 m 1
 272.144 946.694 l 1
 345.101 845.365 l 1
 151.821 741.555 l 1
 97.8486 781.572 l 1
EndSplineSet
EndChar

StartChar: uni2074
Encoding: 8308 8308 271
Width: 600
Flags: W
LayerCount: 2
Fore
SplineSet
113 466.164 m 1
 352.683 743 l 1
 420 743 l 1
 420 489 l 1
 493 489 l 1
 493 404 l 1
 420 404 l 1
 420 292 l 1
 324 292 l 1
 324 405 l 1
 113 405 l 1
 113 466.164 l 1
325 489 m 1
 325 602.042 l 1
 235.095 489 l 1
 325 489 l 1
EndSplineSet
Validated: 1
EndChar

StartChar: fraction
Encoding: 8260 8260 274
Width: 600
Flags: W
LayerCount: 2
Fore
SplineSet
158.841 -54.9599 m 1
 78.5622 -10.3606 l 1
 454.179 776.063 l 1
 535.42 731.868 l 1
 158.841 -54.9599 l 1
EndSplineSet
Validated: 1
EndChar

StartChar: lslash
Encoding: 322 322 275
Width: 600
Flags: W
LayerCount: 2
Fore
SplineSet
93 673 m 1
 93 770 l 1
 357 770 l 1
 357 449.298 l 1
 412.163 467.676 l 1
 422.596 471.005 428.43 474.488 439.177 481.97 c 0
 463 498.557 l 1
 463 378.681 l 1
 357 344.374 l 1
 357 97 l 1
 513 97 l 1
 513 0 l 1
 86 0 l 1
 86 97 l 1
 243 97 l 1
 243 305.976 l 1
 152 276.734 l 1
 152 378.976 l 1
 243 409.076 l 1
 243 673 l 1
 93 673 l 1
EndSplineSet
Validated: 1
EndChar

StartChar: Lslash
Encoding: 321 321 276
Width: 600
Flags: W
LayerCount: 2
Fore
SplineSet
80 363.928 m 1
 80 722 l 1
 201.896 722 l 1
 203.83 709.249 l 0
 204.118 707.44 204.256 705.63 204.256 703.838 c 0
 204.256 680.037 194 680.034 194 669.933 c 0
 194 401.309 l 1
 366.358 454.774 l 0
 376.708 457.984 385.073 460.499 394.832 464.695 c 0
 416 473.798 l 1
 416 370.701 l 1
 194 302.851 l 1
 194 99 l 1
 542 99 l 1
 542 -1 l 1
 80 -1 l 1
 80 265.27 l 1
 18 246.182 l 1
 18 344.554 l 1
 80 363.928 l 1
EndSplineSet
Validated: 1
EndChar

StartChar: Eng
Encoding: 330 330 277
Width: 600
Flags: W
LayerCount: 2
Fore
SplineSet
169 0 m 1
 54 0 l 1
 54 722 l 1
 169 722 l 1
 169 656.772 l 1
 213.665 704.828 275.589 735 342 735 c 0
 418.468 735 488.163 695.273 521.645 624.661 c 0
 544.186 577.192 545 530.304 545 486 c 0
 545 209.12 l 0
 545 170.606 544.129 129.217 523.592 87.6529 c 1
 492.998 23.5755 427.056 -12 355 -12 c 0
 316.503 -12 278.681 -2.33293 245.162 18.211 c 0
 232.778 25.801 l 1
 288.399 123.477 l 1
 301.442 116.024 l 0
 310.24 110.996 314.489 103.111 315.354 101.83 c 1
 320.319 98.8238 337.214 90 357 90 c 0
 384.372 90 408.685 103.602 421.413 130.136 c 1
 432.592 152.136 433 179.818 433 205.601 c 0
 433 482.287 l 0
 433 514.726 432.673 548.62 416.556 578.315 c 1
 398.856 613.534 365.612 632 327 632 c 0
 272.599 632 216.289 588.682 192.262 556.922 c 1
 172.626 529.655 169 505.962 169 470.659 c 0
 169 0 l 1
EndSplineSet
Validated: 5
EndChar

StartChar: dcroat
Encoding: 273 273 278
Width: 600
Flags: W
LayerCount: 2
Fore
SplineSet
401.897 360.135 m 0
 383.186 424.842 322.631 445.041 280.638 445.041 c 0
 227.556 445.041 149.873 413.844 149.873 281.611 c 0
 149.873 126.434 233.051 91.8091 283.87 91.8091 c 0
 332.374 91.8091 381.51 121.742 399.978 174.755 c 0
 407.803 197.217 410.29 223.002 410.29 259.301 c 0
 410.29 313.516 407.864 339.5 401.897 360.135 c 0
576 600 m 1
 525.179 600 l 1
 526 60.9729 l 0
 526.023 46.1619 526.858 31.4114 530.526 17.8489 c 0
 535.353 0 l 1
 422.156 0 l 1
 418.756 10.297 l 0
 413.709 25.5837 413.04 40.9689 412.999 53.8902 c 1
 374.902 12.5638 321.565 -11.7426 264.502 -11.7426 c 0
 152.544 -11.7426 38.9989 77.8548 38.9989 268.913 c 0
 38.9989 467.985 168.002 543.089 276.756 543.089 c 0
 334.857 543.089 384.105 521.02 417 485.798 c 1
 417 600 l 1
 329 600 l 1
 329 692 l 1
 417 692 l 1
 417 771 l 1
 535.206 771 l 1
 535.978 756.815 l 0
 536.738 742.84 528.961 733.181 527.239 730.518 c 0
 524.162 725.761 524.993 727.96 525 723.022 c 0
 525.045 692 l 1
 576 692 l 1
 576 600 l 1
EndSplineSet
Validated: 1
EndChar

StartChar: bullet
Encoding: 8226 8226 287
Width: 600
Flags: W
LayerCount: 2
Fore
SplineSet
306.474 455.001 m 0
 369.143 455.001 420.001 405.042 420.001 343.496 c 0
 420.001 281.961 369.166 231.968 306.461 231.968 c 0
 243.823 231.968 192.967 281.929 192.967 343.507 c 0
 192.967 405.022 243.791 455.001 306.474 455.001 c 0
EndSplineSet
Validated: 1
EndChar

StartChar: florin
Encoding: 402 402 288
Width: 600
Flags: W
LayerCount: 2
Fore
SplineSet
577.536 713.588 m 0
 583.762 706.096 l 1
 537.307 611.964 l 1
 527.942 612 l 0
 517.892 612.039 506.513 619.45 503.791 632.952 c 0
 502.068 641.496 503.334 640.632 501.919 643.62 c 0
 493.21 662.02 469.087 684.31 438.015 684.31 c 0
 414.664 684.31 387.024 671.622 370.338 634.776 c 0
 355.666 602.372 353.931 559.93 350.952 522.8 c 0
 344.63 447.552 l 1
 486 447.552 l 1
 486 355.878 l 1
 336.927 355.878 l 1
 309.952 34.8309 l 0
 305.793 -14.6617 299.546 -65.4076 270.413 -112.832 c 0
 234.744 -173.637 178.568 -203.002 125.302 -203.002 c 0
 85.0954 -203.002 46.9342 -186.349 19.9829 -157.18 c 0
 12.1495 -148.702 l 1
 72.5582 -53.59 l 1
 84.6358 -59.5476 l 0
 97.4259 -65.8568 101.644 -77.8042 102.933 -79.9047 c 0
 106.879 -86.3334 117.343 -94.965 131.92 -94.965 c 0
 145.106 -94.965 163.263 -88.3032 178.095 -61.113 c 0
 195.557 -30.6292 199.405 8.54318 202.042 41.9471 c 0
 226.906 356.998 l 1
 88 356.998 l 1
 88 448.406 l 1
 234.12 448.406 l 1
 241.042 536.124 l 0
 244.325 579.81 248.048 627.386 271.397 674.14 c 0
 305.723 742.871 370.158 780 436.757 780 c 0
 490.926 780 542.627 755.59 577.536 713.588 c 0
EndSplineSet
Validated: 1
EndChar

StartChar: dagger
Encoding: 8224 8224 289
Width: 600
Flags: W
LayerCount: 2
Fore
SplineSet
246 544 m 1
 246 756 l 1
 354 756 l 1
 354 544 l 1
 546 544 l 1
 546 445 l 1
 354 445 l 1
 354 -190 l 1
 246 -190 l 1
 246 445 l 1
 52 445 l 1
 52 544 l 1
 246 544 l 1
EndSplineSet
Validated: 1
EndChar

StartChar: daggerdbl
Encoding: 8225 8225 290
Width: 600
Flags: W
LayerCount: 2
Fore
SplineSet
246 544 m 1
 246 756 l 1
 354 756 l 1
 354 544 l 1
 546 544 l 1
 546 445 l 1
 354 445 l 1
 354 155 l 1
 546 155 l 1
 546 56 l 1
 354 56 l 1
 354 -190 l 1
 246 -190 l 1
 246 56 l 1
 52 56 l 1
 52 155 l 1
 246 155 l 1
 246 445 l 1
 52 445 l 1
 52 544 l 1
 246 544 l 1
EndSplineSet
Validated: 1
EndChar

StartChar: trademark
Encoding: 8482 8482 291
Width: 600
VWidth: 1157
Flags: W
LayerCount: 2
Fore
SplineSet
15.6338 735.33 m 1
 301.552 735.33 l 1
 301.552 659.01 l 1
 197.332 659.01 l 1
 197.332 370.56 l 1
 115.222 370.56 l 1
 115.222 659.01 l 1
 15.6338 659.01 l 1
 15.6338 735.33 l 1
305.134 735.33 m 1
 369.963 735.33 l 1
 444.439 585.344 l 1
 454.275 604.067 458.327 612.066 474.085 643.156 c 0
 495.488 685.384 495.644 685.681 517.624 727.331 c 0
 521.846 735.33 l 1
 584.104 735.33 l 1
 584.104 370.56 l 1
 505.468 370.56 l 1
 505.468 576.922 l 1
 503.084 572.69 501.056 569.091 498.216 564.054 c 0
 480.239 532.158 480.431 532.507 464.195 502.354 c 0
 459.64 493.896 l 1
 423.016 496.185 l 1
 383.77 572.537 l 1
 383.77 370.56 l 1
 305.134 370.56 l 1
 305.134 735.33 l 1
EndSplineSet
Validated: 1
EndChar

StartChar: zero.noslash
Encoding: 65542 -1 292
Width: 600
Flags: W
LayerCount: 2
Fore
SplineSet
299.955 727.004 m 0
 434.661 727.004 532.025 578.052 532.025 357.768 c 0
 532.025 144.661 437.691 -13.0208 297.523 -13.0208 c 0
 170.176 -13.0208 67.8194 120.432 67.8194 342.043 c 0
 67.8194 567.366 158.766 727.004 299.955 727.004 c 0
389.369 551.776 m 0
 360.534 616.64 322.449 626.004 299.205 626.004 c 0
 279 626.004 242.029 618.407 215.068 562.509 c 0
 192.415 515.542 174.966 447.702 174.966 352.062 c 0
 174.966 283.833 190.065 211.781 208.414 170.01 c 0
 238.494 101.528 278.371 90.9815 302.777 90.9815 c 0
 324.251 90.9815 358.398 99.2205 386.611 149.031 c 0
 417.083 202.829 427.125 289.09 427.125 343.355 c 0
 427.125 414.414 410.799 503.567 389.369 551.776 c 0
EndSplineSet
Validated: 1
EndChar

StartChar: alpha
Encoding: 945 945 294
Width: 600
Flags: W
LayerCount: 2
Fore
SplineSet
388 271.96 m 0
 388 387.886 350.964 443 267 443 c 0
 197.712 443 135 410.444 135 269.201 c 0
 135 140.348 204.237 100 266 100 c 0
 284 100 l 0
 325.764 100 388 101.158 388 271.96 c 0
570.893 31.8417 m 0
 589.449 9 l 1
 457.126 9 l 1
 452.853 16.7773 l 0
 452.773 16.924 441.578 37.4775 433.248 58.2117 c 1
 391.658 11.9478 317.035 -5 267 -5 c 0
 202.429 -5 27.043 30.7987 26 266.228 c 1
 26 276.691 l 0
 26 531.2 222.407 545.997 266.822 547 c 1
 350.665 547 398.822 510.041 423.055 481.666 c 1
 433.104 536.221 l 1
 534.947 513.469 l 1
 501.572 375.577 l 1
 492.305 341.891 487.25 303.853 487.25 265.291 c 0
 487.25 226.849 492.391 188.419 503.324 155.137 c 0
 525.523 87.562 570.893 31.8417 570.893 31.8417 c 0
EndSplineSet
Validated: 1
EndChar

StartChar: beta
Encoding: 946 946 295
Width: 600
Flags: W
LayerCount: 2
Fore
SplineSet
423.305 388.687 m 1
 496.342 355.134 541 284.768 541 205.218 c 0
 541 92.3362 430.937 3.03672 322.149 1 c 1
 319 1 l 0
 247.773 1 195.113 38.365 167 64.4316 c 1
 167 -156 l 1
 60 -156 l 1
 60 452.845 l 0
 60 499.111 60.7801 549.723 84.3259 600.166 c 1
 120.863 680.761 197.499 725 278 725 c 0
 395.786 725 492 631.906 492 521 c 0
 492 467.967 466.242 419.569 423.305 388.687 c 1
315 102 m 0
 322 102 l 2
 383.744 102 432 145.041 432 210.072 c 0
 432 257.293 404.344 296.043 366.244 317.355 c 1
 337.755 333.765 318.312 336 283 336 c 0
 191 336 l 1
 191 434 l 1
 281 434 l 0
 366.102 434 380 489.304 380 523 c 0
 380 585.935 339.507 622 282 622 c 0
 248.43 622 218.448 614.077 196.211 583.289 c 1
 168.642 546.454 168 501.491 168 455.894 c 1
 166.063 163.182 l 1
 199.696 147.029 260.918 102 315 102 c 0
EndSplineSet
Validated: 1
EndChar

StartChar: gamma
Encoding: 947 947 296
Width: 600
Flags: W
LayerCount: 2
Fore
SplineSet
254.735 -169 m 1
 257.948 14.1847 l 1
 35.6802 529 l 1
 175.575 529 l 1
 176.926 515.493 l 0
 178.608 498.667 172.029 489.717 171.996 489.055 c 1
 172.043 488.7 172.6 486.65 173.09 485.16 c 1
 313.221 132.575 l 1
 400.85 378.978 l 1
 416.725 424.617 431.492 471.021 440.257 517.764 c 0
 442.551 530 l 1
 562.309 530 l 1
 556.337 511.647 l 0
 540.236 462.169 522.065 413.499 503.054 366.199 c 1
 364.973 9.5347 l 1
 361.439 1.05312 360 -16.1689 360 -39 c 0
 360 -72.365 362 -114.775 362 -154 c 0
 362 -169 l 1
 254.735 -169 l 1
EndSplineSet
Validated: 1
EndChar

StartChar: delta
Encoding: 948 948 297
Width: 600
Flags: W
LayerCount: 2
Fore
SplineSet
437 264 m 0
 437 391.676 365.661 443 302 443 c 0
 233.594 443 167 385.727 167 272 c 0
 167 156.917 235.135 93 306 93 c 0
 370.346 93 437 147.156 437 264 c 0
514 610.803 m 1
 448.417 655 l 1
 390.072 655 l 1
 220.341 653.384 l 1
 423.218 488.392 l 1
 514.563 425.835 547 321.01 547 255.199 c 0
 547 94.2059 433.587 -3 305 -3 c 0
 169.288 -3 53 105.371 53 254.292 c 0
 53 388.31 127.019 495.418 241.364 512.179 c 1
 198.678 547.337 118.18 611.892 59.6821 656.245 c 0
 54.1095 660.662 l 1
 52.771 749 l 1
 514 749 l 1
 514 610.803 l 1
EndSplineSet
Validated: 1
EndChar

StartChar: epsilon
Encoding: 949 949 298
Width: 600
Flags: W
LayerCount: 2
Fore
SplineSet
464.869 169.81 m 0
 477.56 179.881 l 1
 529.746 102.58 l 1
 521.268 93.8375 l 0
 464.635 35.4396 403.133 -0.0322266 315.23 -0.0322266 c 0
 190.959 -0.0322266 69.6367 61.2281 69.6367 159.636 c 0
 69.6367 206.528 88.6913 254.733 134.439 278.991 c 1
 97.9279 298.46 72.5811 330.156 72.5811 372.382 c 0
 72.5811 457.596 168.395 532.959 287.756 532.959 c 0
 367.408 532.959 451.94 506.244 507.637 447.621 c 0
 516.329 438.471 l 1
 459.19 361.58 l 1
 446.906 373.864 l 0
 406.038 414.73 348.097 426.132 286.774 426.132 c 0
 222.242 426.132 186.969 399.886 186.969 371.672 c 0
 186.969 352.218 193.459 328.04 314.25 328.04 c 0
 326.019 328.04 338.396 328.053 350.411 328.958 c 0
 366.537 330.171 l 1
 366.537 216.705 l 1
 349.999 218.41 l 0
 330.047 220.467 333.276 221.212 314.25 221.212 c 0
 178.017 221.212 183.043 177.646 183.043 159.641 c 0
 183.043 136.521 245.121 105.732 314.355 104.874 c 1
 397.313 104.874 427.173 139.896 464.869 169.81 c 0
EndSplineSet
EndChar

StartChar: zeta
Encoding: 950 950 299
Width: 600
Flags: W
LayerCount: 2
Fore
SplineSet
367.437 -95.4226 m 1
 376.05 -83.6704 370.381 -91.3662 375.195 -80.1324 c 0
 387.63 -50.6829 402.435 -11.7358 410.133 8.85235 c 1
 340.14 16.2985 72 55.0329 72 248.638 c 0
 72 250.601 l 1
 73.6838 470.773 239.989 588.911 334.577 642.001 c 1
 271.279 642.036 175.513 643 123.326 643 c 1
 102.797 642.107 122.51 629 94 629 c 0
 78.8361 629 l 1
 80.1622 751 l 1
 522 751 l 1
 522 644.93 l 1
 511.379 641.653 l 1
 503.387 639.238 196.854 543.887 194 249.429 c 1
 194 247.571 l 0
 194 72.6219 488.021 134.994 515.066 100.302 c 1
 525.521 86.4735 529 70.8339 529 56.1353 c 0
 529 -3.28882 477.2 -70.1445 471.915 -117.598 c 1
 446.958 -114.924 413.457 -134 381 -134 c 0
 381 -134 346 -145.453 346 -118 c 0
 346 -116.153 l 1
 346.448 -114.362 l 0
 351.151 -95.5469 366.852 -96.0191 367.437 -95.4226 c 1
EndSplineSet
Validated: 1
EndChar

StartChar: eta
Encoding: 951 951 300
Width: 600
Flags: W
LayerCount: 2
Fore
SplineSet
82 0 m 1
 82 473.49 l 1
 60.5398 529 l 1
 197 529 l 1
 197 464.478 l 1
 238.376 509.458 294.897 542 358 542 c 0
 423.623 542 484.378 506.978 512.741 444.217 c 1
 533.251 399.715 533 354.895 533 315.725 c 0
 533 -156 l 1
 421 -156 l 1
 421 310.518 l 0
 421 346.262 420.199 385.171 395.511 412.729 c 1
 379.26 431.458 357.888 440 335 440 c 0
 287.009 440 238.71 399.986 220.002 376.343 c 1
 200.305 352.036 197 332.348 197 299.574 c 0
 197 0 l 1
 82 0 l 1
EndSplineSet
Validated: 1
EndChar

StartChar: theta
Encoding: 952 952 301
Width: 600
Flags: W
LayerCount: 2
Fore
SplineSet
58 377.826 m 0
 58 587.053 122.089 746 275 746 c 0
 434.285 746 511 578.627 511 381.671 c 0
 511 226.983 491.366 2.04103 278.083 1.00023 c 0
 277.608 0.997586 277.132 0.996263 276.658 0.996265 c 0
 81.3715 0.996265 58 210.21 58 377.826 c 0
170.231 417.021 m 1
 226.793 417.159 338.558 417.866 398.806 417.984 c 1
 394.604 570.602 331.732 642 276 642 c 0
 227.48 642 174.466 578.7 170.231 417.021 c 1
278 111 m 0
 374.87 111 398.314 210.252 399.019 329 c 1
 169.308 329 l 1
 172.703 207.152 195.139 111 278 111 c 0
EndSplineSet
Validated: 1
EndChar

StartChar: iota
Encoding: 953 953 302
Width: 600
Flags: W
LayerCount: 2
Fore
SplineSet
101.699 421.7 m 1
 99.8089 532 l 1
 364.077 532 l 1
 362 151.975 l 1
 362 107.068 370.971 110 411 110 c 0
 425.814 110 l 1
 427.189 0 l 1
 412 0 l 0
 398.702 0 384.756 -1 371 -1 c 0
 304.925 -1 250.38 19.1881 250 145.128 c 1
 248.934 154.905 249 168.625 249 182.355 c 0
 249 211.801 250 244.296 250 244.296 c 1
 250 434 l 1
 135 434 l 0
 131.748 434 129.43 431.165 128.999 430.515 c 1
 101.699 421.7 l 1
EndSplineSet
EndChar

StartChar: kappa
Encoding: 954 954 303
Width: 600
Flags: W
LayerCount: 2
Fore
SplineSet
72 -1 m 1
 72 529 l 1
 197 529 l 1
 197 512 l 0
 197 498.657 188.917 490.555 186.86 487.813 c 1
 185.365 485.944 186 487.987 186 484 c 0
 186 305.391 l 1
 431.673 533.45 l 1
 439.474 531.592 l 0
 458.156 527.144 485.546 526 505 526 c 0
 573.055 526 l 1
 330.423 311.74 l 1
 596.317 -1 l 1
 457.858 -1 l 1
 246.932 258.751 l 1
 186 207.974 l 1
 186 -1 l 1
 72 -1 l 1
EndSplineSet
Validated: 1
EndChar

StartChar: lambda
Encoding: 955 955 304
Width: 600
Flags: W
LayerCount: 2
Fore
SplineSet
351.442 633.688 m 1
 357.818 624.032 363.769 619.883 457.459 253.907 c 1
 505.433 110.099 515.781 113 536 113 c 0
 543 113 l 0
 574.111 113 562 18.9247 562 12 c 0
 562 -3 l 1
 547 -3 l 0
 387.567 -3 389.222 91.1006 318.264 363.332 c 1
 123.989 0 l 1
 -0.649461 0 l 1
 261.616 482.515 l 1
 258.188 518.866 260.751 568.024 245.041 593.445 c 1
 222.142 633.077 189.539 642 161 642 c 0
 131.909 642 115.825 632 104 632 c 0
 89.3614 632 l 1
 86.6297 744 l 1
 102 744 l 0
 120.468 744 136.323 745 152 745 c 0
 254.875 745 301.74 723.576 351.442 633.688 c 1
EndSplineSet
Validated: 1
EndChar

StartChar: mu
Encoding: 956 956 305
Width: 600
Flags: W
LayerCount: 2
Fore
SplineSet
399 75 m 0
 399 88.8069 l 1
 370.537 47.0166 322.958 0 252 0 c 0
 227.152 0 195.339 8.20272 169 31.9769 c 1
 169 -168 l 1
 57 -168 l 1
 57 528 l 1
 166 528 l 1
 166 254.797 l 0
 166 134.735 206.48 114 251 114 c 0
 307.926 114 399 196.356 399 283.703 c 0
 399 528 l 1
 509 528 l 1
 509 110.152 l 2
 509 95.718 513.178 98 518 98 c 0
 539.967 98 l 1
 540.962 84.0687 l 0
 542.069 68.5617 542 15.2968 542 15.0021 c 0
 542.002 0 l 1
 453 0 l 0
 427.371 0 399 25.5591 399 75 c 0
EndSplineSet
Validated: 1
EndChar

StartChar: nu
Encoding: 957 957 306
Width: 600
Flags: W
LayerCount: 2
Fore
SplineSet
255.712 -4 m 1
 34.1307 540 l 1
 168.033 540 l 1
 170.643 528.254 l 0
 173.717 514.419 167.348 503.278 167.087 502.3 c 1
 169.421 493.517 190.014 435.764 311.033 128.667 c 1
 430.003 292.139 457 389.383 457 445 c 0
 457 492.315 439.75 507.455 433.976 517.558 c 0
 421.152 540 l 1
 555.056 540 l 1
 558.328 529.439 l 0
 558.561 528.727 569 497.242 569 457.112 c 0
 569 431.544 569.014 395.074 553.153 353.056 c 1
 488.034 174.965 343.178 2.18867 342.766 1.69662 c 0
 338.262 -4 l 1
 255.712 -4 l 1
EndSplineSet
Validated: 1
EndChar

StartChar: xi
Encoding: 958 958 307
Width: 600
Flags: W
LayerCount: 2
Fore
SplineSet
346.25 -120.006 m 0
 364.626 -77.8493 395 -34.9057 395 -21.3896 c 1
 379.733 13.6818 89 -13.3475 89 201.525 c 0
 89 297.089 152.017 371.597 221.475 394.077 c 1
 174.289 427.404 155 462.94 155 498.566 c 0
 155 547.835 191.963 590.26 226.876 617 c 1
 124.312 617 l 1
 102.342 616.085 122.507 603 94 603 c 0
 78.8361 603 l 1
 80.1622 725 l 1
 522 725 l 1
 522 615 l 1
 425.895 615 l 1
 353.079 606.791 276 547.064 276 505.754 c 0
 276 484.308 297.709 458.698 377.178 447 c 1
 488 447 l 1
 488 328.16 l 1
 380.082 327 l 1
 360 327 l 0
 269.488 327 202 298.519 202 211.402 c 0
 202 204.875 l 1
 204.713 89.1245 389.951 152.192 488.731 53.2731 c 1
 501.03 41.5232 513 24.5836 513 6 c 0
 513 -42.3402 474.43 -83.7689 464.65 -128.223 c 0
 462.088 -139.867 l 1
 336.987 -141.257 l 1
 346.25 -120.006 l 0
EndSplineSet
Validated: 1
EndChar

StartChar: omicron
Encoding: 959 959 308
Width: 600
Flags: W
LayerCount: 2
Fore
SplineSet
307 541 m 0
 435.813 541 558 442.379 558 262.077 c 0
 558 89.4051 438.94 -14 305 -14 c 0
 162.894 -14 42 101.491 42 261.128 c 0
 42 423.447 162.763 541 307 541 c 0
444 259.393 m 0
 444 387.604 368.139 440 302 440 c 0
 231.069 440 160 382.083 160 267.686 c 0
 160 152.07 232.551 88 306 88 c 0
 372.978 88 444 142.197 444 259.393 c 0
EndSplineSet
Validated: 1
EndChar

StartChar: pi
Encoding: 960 960 309
Width: 600
Flags: W
LayerCount: 2
Fore
SplineSet
24 432 m 1
 24 541 l 1
 575 541 l 1
 575 432 l 1
 510 432 l 1
 510 107 l 1
 517.787 107 l 1
 544.739 133.952 l 1
 544.007 97.1803 l 1
 543.961 94.866 543 46.6813 543 15 c 0
 543 0 l 1
 456 0 l 0
 410.256 0 398 31.2037 398 51.4286 c 0
 398 432 l 1
 204 432 l 1
 204 0 l 1
 88 0 l 1
 88 432 l 1
 24 432 l 1
EndSplineSet
Validated: 1
EndChar

StartChar: rho
Encoding: 961 961 310
Width: 600
Flags: W
LayerCount: 2
Fore
SplineSet
61.0565 -193 m 1
 59 330.572 l 2
 59 451.566 130.303 541 289 541 c 0
 436.169 541 541 439.488 541 256.544 c 0
 541 64.2959 402.634 -8 288 -8 c 0
 231.675 -8 189.907 15.2148 167 32.5116 c 1
 167 -193 l 1
 61.0565 -193 l 1
431 254.203 m 0
 431 423.917 328.06 440 288 440 c 0
 239.193 440 196.276 416.142 178.779 377.518 c 1
 168.213 355.653 166 328.586 166 287.316 c 0
 166 216.07 166.4 188.017 179.796 158.445 c 1
 198.385 119.363 235.533 96 287 96 c 0
 332.793 96 431 110.767 431 254.203 c 0
EndSplineSet
Validated: 1
EndChar

StartChar: sigma
Encoding: 963 963 311
Width: 600
Flags: W
LayerCount: 2
Fore
SplineSet
485.271 438 m 1
 519.351 392.682 540 332.552 540 258.888 c 0
 540 88.2107 420.94 -14 287 -14 c 0
 144.894 -14 24 101.491 24 261.128 c 0
 24 420.483 141.369 537.952 282.828 541 c 1
 577 541 l 1
 577 438 l 1
 485.271 438 l 1
426 261.5 m 0
 426 377.562 376.376 435.032 282.367 443.5 c 1
 211.716 443.117 142 394.389 142 270.5 c 0
 142 145.03 214.551 88 288 88 c 0
 354.978 88 426 134.316 426 261.5 c 0
EndSplineSet
EndChar

StartChar: tau
Encoding: 964 964 312
Width: 600
Flags: W
LayerCount: 2
Fore
SplineSet
20.8779 414 m 1
 62.4395 532 l 1
 558 532 l 1
 558 433 l 1
 348.907 433 l 1
 347 150.838 l 1
 347 117.279 392.922 106 441 106 c 0
 465.879 106 485.229 109.742 485.229 109.742 c 0
 502.754 113.036 l 1
 504.171 9.61662 l 1
 491.803 7.26417 l 0
 491.273 7.16337 464.428 2 429 2 c 0
 357.045 2 235.79 22.5142 235.001 145.268 c 1
 233.937 154.971 234 167.876 234 182.495 c 0
 234 211.932 235 244.417 235 244.417 c 1
 235 434.103 l 1
 198.851 434.279 163.753 435 135 435 c 0
 98.7317 435 72.4058 432.454 66.5581 429.043 c 0
 20.8779 414 l 1
EndSplineSet
EndChar

StartChar: upsilon
Encoding: 965 965 313
Width: 600
Flags: W
LayerCount: 2
Fore
SplineSet
13.3106 448.255 m 1
 34.2384 529 l 1
 182 529 l 1
 182 234.279 l 0
 182 179.014 183.69 93 292 93 c 0
 356.069 93 415 154.322 415 240.828 c 0
 415 529 l 1
 529 529 l 1
 529 239.021 l 0
 529 171.631 506.443 109.299 474.791 71.0305 c 1
 415.681 0.0116016 351.487 -14 287 -14 c 0
 213.433 -14 124.47 23.7711 89.3656 97.5813 c 1
 66.6922 143.624 67 191.802 67 235.261 c 1
 67.9429 442.552 l 1
 55.5816 443.997 42.1157 445.525 30.5074 446.626 c 0
 13.3106 448.255 l 1
EndSplineSet
Validated: 1
EndChar

StartChar: Xi
Encoding: 926 926 322
Width: 600
Flags: W
LayerCount: 2
Fore
SplineSet
257.152 105 m 1
 257.459 104.994 306.165 104 338 104 c 2
 502 104 l 1
 502 -1 l 1
 97 -1 l 1
 97 105 l 1
 257.152 105 l 1
502 722 m 1
 502 617 l 1
 97 617 l 1
 97 722 l 1
 502 722 l 1
132 325 m 1
 132 430 l 1
 469 430 l 1
 469 325 l 1
 132 325 l 1
EndSplineSet
Validated: 1
EndChar

StartChar: tonos
Encoding: 900 900 328
Width: 600
VWidth: 0
LayerCount: 2
Fore
SplineSet
256.332 750 m 1
 416.49 750 l 1
 278.524 602 l 1
 171.044 602 l 1
 256.332 750 l 1
EndSplineSet
Validated: 1
EndChar

StartChar: sigma1
Encoding: 962 962 346
Width: 600
Flags: W
LayerCount: 2
Fore
SplineSet
182.752 79.8464 m 1
 135.956 109.356 72 197.282 72 284.729 c 0
 73.0564 386.651 145.676 496.664 246.985 523.453 c 0
 303.95 539.276 383.486 541 430 541 c 0
 467 541 l 0
 491.938 541 483 519 483 519 c 0
 483 503.963 483.006 468.878 481.989 442.423 c 0
 481.444 428.251 l 1
 467.263 428.002 l 0
 422.855 427.223 376.416 426 353 426 c 0
 248.27 426 191 383.47 191 274.308 c 0
 191 223.539 240.837 162.651 278.869 147.08 c 1
 353.357 117.519 500 125.434 500 16.3038 c 1
 498.88 -43.1665 448.604 -103.176 443.52 -121.764 c 0
 440.641 -132.87 l 1
 318.536 -134.242 l 1
 325.894 -113.898 l 0
 344.838 -61.5253 387 -17.6485 387 -1 c 0
 387 42.6985 298.057 8.95251 182.752 79.8464 c 1
EndSplineSet
Validated: 1
EndChar

StartChar: chi
Encoding: 967 967 347
Width: 600
Flags: W
LayerCount: 2
Fore
SplineSet
305.706 282.482 m 1
 422.231 530.28 l 1
 535.047 530.28 l 1
 365.607 182.256 l 1
 501.025 -76.1653 l 1
 508.133 -90.3124 522.524 -92.84 531.502 -92.84 c 0
 554.482 -92.84 l 1
 554.482 -191.48 l 1
 529.508 -191.48 l 0
 505.149 -191.48 436.946 -188.374 403.986 -134.375 c 0
 403.606 -133.751 l 1
 305.335 69.3362 l 1
 183.961 -191.48 l 1
 61.7909 -191.48 l 1
 244.315 171.64 l 1
 125.351 377.524 l 1
 125.588 377.648 74.6475 431.64 74.6475 431.64 c 0
 44.6846 431.64 l 1
 44.6846 539.64 l 1
 86.6172 539.64 l 0
 116.871 539.64 155.707 532.588 186.812 486.258 c 1
 195.439 473.666 239.487 414.048 305.706 282.482 c 1
EndSplineSet
Validated: 1
EndChar

StartChar: psi
Encoding: 968 968 348
Width: 600
Flags: W
LayerCount: 2
Fore
SplineSet
73 514 m 1
 73.0004 529 l 1
 182 529 l 1
 182 214 l 2
 182 165.076 185.635 94.1414 244 70.8823 c 1
 244 612.472 l 1
 353 652.485 l 1
 353 83.8143 l 1
 389.429 110.518 415 160.342 415 221 c 2
 415 529 l 1
 524 529 l 1
 524 239.256 l 2
 524 171.394 497.88 112.746 466.803 75.2024 c 0
 429.103 29.6878 393.636 5.31921 353 -5.72883 c 1
 353 -189 l 1
 244 -189 l 1
 244 -9.6036 l 1
 181.209 2.73796 122.882 38.8458 94.3874 97.5594 c 0
 71.6671 143.608 72 191.62 72 235.016 c 0
 72.9996 458.3 73 514 73 514 c 1
EndSplineSet
Validated: 1
EndChar

StartChar: phi
Encoding: 966 966 349
Width: 600
Flags: W
LayerCount: 2
Fore
SplineSet
251 534.106 m 1
 251 589.791 l 1
 356 606.591 l 1
 356 534.173 l 1
 463.101 509.89 558 415.724 558 262.08 c 0
 558 113.948 464.169 17.5879 356 -7.12881 c 1
 356 -192 l 1
 251 -192 l 1
 251 -8.30511 l 1
 132.111 17.5092 42 122.613 42 261.1 c 0
 42 401.378 134.336 507.358 251 534.106 c 1
155 268 m 0
 155 175.43 199.839 108.922 251 82.359 c 1
 251 447.303 l 1
 199.568 422.718 155 360.926 155 268 c 0
448 259 m 0
 448 356.031 402.537 416.07 356 442.538 c 1
 356 83.6442 l 1
 403.862 108.971 448 168.325 448 259 c 0
EndSplineSet
Validated: 1
EndChar

StartChar: omega
Encoding: 969 969 350
Width: 600
Flags: W
LayerCount: 2
Fore
SplineSet
146.237 159.731 m 1
 160.68 117.376 173.105 104 189 104 c 0
 228.717 104 245.948 168.564 247 260.086 c 1
 247 393 l 1
 353.873 393 l 1
 355 260.062 l 1
 355 167.085 370.388 104 411 104 c 0
 427.944 104 439.25 117.168 453.757 159.712 c 1
 454.986 163.669 462 202.127 462 269.16 c 0
 462 328.958 456.077 414.045 436.214 522.473 c 0
 433.218 540 l 1
 543.585 540 l 1
 545.772 527.607 l 0
 551.68 495.92 576 389.618 576 275.293 c 0
 576 205.995 567.043 133.306 538.73 71.7802 c 1
 515.584 22.4922 457.83 -2 412 -2 c 0
 410 -2 l 0
 380.341 -2 336.093 14.3098 300.116 45.2544 c 1
 263.359 13.0908 219.446 -2 190 -2 c 0
 188 -2 l 0
 142.162 -2 84.4157 22.494 61.2699 71.7802 c 1
 32.958 133.308 24 205.994 24 275.293 c 0
 24 389.619 48.3196 495.919 54.2282 527.607 c 0
 56.4153 540 l 1
 167.879 540 l 1
 164.772 522.393 l 0
 143.918 412.122 138 327.084 138 267.292 c 0
 138 200.488 145.149 163.215 146.237 159.731 c 1
EndSplineSet
Validated: 1
EndChar

StartChar: Lambda
Encoding: 923 923 352
Width: 600
Flags: W
LayerCount: 2
Fore
SplineSet
475.645 0 m 1
 391.918 220.831 l 1
 286.683 517.244 l 1
 191.26 221.346 l 1
 117.844 -1 l 1
 5.9282 -1 l 1
 271.322 735 l 1
 301.35 735 l 1
 591.738 0 l 1
 475.645 0 l 1
EndSplineSet
Validated: 1
EndChar

StartChar: Delta
Encoding: 916 916 353
Width: 600
Flags: W
LayerCount: 2
Fore
SplineSet
591.738 0 m 1
 5.91881 0 l 1
 271.327 735 l 1
 301.35 735 l 1
 591.738 0 l 1
286.747 517.835 m 1
 153.658 109 l 1
 434.623 109 l 1
 286.747 517.835 l 1
EndSplineSet
Validated: 1
EndChar

StartChar: Gamma
Encoding: 915 915 355
Width: 600
Flags: W
LayerCount: 2
Fore
SplineSet
536 621 m 1
 170 621 l 1
 170 83.0899 l 1
 171.21 0 l 1
 63 0 l 1
 63 723 l 1
 536 723 l 1
 536 621 l 1
EndSplineSet
Validated: 1
EndChar

StartChar: Theta
Encoding: 920 920 356
Width: 600
Flags: W
LayerCount: 2
Fore
SplineSet
429 397 m 1
 429 317 l 1
 177 317 l 1
 177 396 l 1
 177 425.924 l 1
 177 426 l 1
 191.961 426 l 2
 194.805 426.014 324.265 426.868 399 426.986 c 1
 399 427 l 1
 414 427 l 1
 429 427 l 1
 429 397 l 1
571 372.724 m 0
 571 222.224 541.847 0 303 0 c 0
 73.3928 0 29 222.249 29 371.764 c 0
 29 564.502 96.3723 732 302 732 c 0
 485.818 732 571 587.594 571 372.724 c 0
461 372.565 m 0
 461 503.704 436.923 626 301 626 c 0
 158.025 626 142 507.082 142 371.62 c 0
 142 196.135 206.374 104 307 104 c 0
 398.926 104 461 177.932 461 372.565 c 0
EndSplineSet
EndChar

StartChar: Pi
Encoding: 928 928 357
Width: 600
Flags: W
LayerCount: 2
Fore
SplineSet
429 621 m 1
 170 621 l 1
 170 83.0899 l 1
 171.21 0 l 1
 63 0 l 1
 63 723 l 1
 536 723 l 1
 536 0 l 1
 429 0 l 1
 429 621 l 1
EndSplineSet
Validated: 1
EndChar

StartChar: Phi
Encoding: 934 934 358
Width: 600
Flags: W
LayerCount: 2
Fore
SplineSet
-5 386.88 m 0
 -5 583.852 140.764 720 302 720 c 0
 451.329 720 605 583.215 605 389.76 c 0
 605 201.153 459.99 108.409 354 80.9235 c 1
 354 0 l 1
 249 0 l 1
 249 79.8033 l 1
 134.247 108.132 -5 210.603 -5 386.88 c 0
103 390 m 0
 103 269.831 180.395 207.641 245 179.066 c 1
 245 626.608 l 1
 181.319 595.04 103 510.064 103 390 c 0
499 392 m 0
 499 517.888 418.447 591.345 358 624.138 c 1
 358 179.833 l 1
 420.552 210.098 499 274.665 499 392 c 0
EndSplineSet
Validated: 1
EndChar

StartChar: Chi
Encoding: 935 935 359
Width: 600
Flags: W
LayerCount: 2
Fore
SplineSet
295.7 473.442 m 1
 417.651 722 l 1
 531.87 722 l 1
 355.769 370.862 l 1
 555.683 1 l 1
 430.847 1 l 1
 296.334 262.553 l 1
 168.36 1 l 1
 47.7888 1 l 1
 237.206 366.699 l 1
 48.5149 722 l 1
 168.163 722 l 1
 295.7 473.442 l 1
EndSplineSet
Validated: 1
EndChar

StartChar: Sigma
Encoding: 931 931 362
Width: 600
Flags: W
LayerCount: 2
Fore
SplineSet
53 43.3864 m 1
 237.839 354.064 l 1
 72.0664 649.031 l 1
 70.7345 722 l 1
 547 722 l 1
 547 619 l 1
 206.787 619 l 1
 345.554 367.996 l 1
 353 367.996 l 1
 353 354.528 l 2
 353.345 353.904 353.689 353.281 354.034 352.658 c 2
 353 350.888 l 1
 353 339.581 l 1
 346.399 339.581 l 1
 195.435 81 l 1
 511 81 l 2
 519.018 81 523.191 88 542 88 c 2
 561 88 l 1
 561 -21 l 1
 53 -21 l 1
 53 43.3864 l 1
EndSplineSet
Validated: 1
EndChar

StartChar: Psi
Encoding: 936 936 363
Width: 600
Flags: W
LayerCount: 2
Fore
SplineSet
248 286.067 m 1
 248 688 l 1
 358 688 l 1
 358 288.22 l 1
 419.027 313.626 432 392.138 432 441 c 0
 432 723 l 1
 544 723 l 1
 544 454.155 l 0
 544 401.713 539.707 355.504 506.762 304.484 c 1
 469.563 246.566 411.953 220.342 358 209.004 c 1
 358 0 l 1
 248 0 l 1
 248 206.68 l 1
 187.401 217.432 134.938 243.46 93.4477 304.167 c 1
 61.0317 351.892 57 400.734 57 450.342 c 1
 58.0557 723 l 1
 169 723 l 1
 169 441 l 0
 169 395.002 187.06 311.079 248 286.067 c 1
EndSplineSet
Validated: 1
EndChar

StartChar: Omega
Encoding: 937 937 364
Width: 600
Flags: W
LayerCount: 2
Fore
SplineSet
50 105 m 1
 142.796 105 l 1
 92.0378 167.23 50 265.432 50 332.935 c 0
 50 672.636 172.553 723 301 723 c 0
 423.738 723 549 668.856 549 334.843 c 0
 549 256.465 515.495 166.715 467.866 105 c 1
 550 105 l 1
 550 0 l 1
 338 0 l 1
 338 91.1367 l 1
 342.765 95.3802 l 0
 368.142 117.979 440 250.129 440 330.128 c 0
 440 541.122 404.972 624 301 624 c 0
 195.779 624 159 541.788 159 331.083 c 0
 159 251.479 236.634 118.451 262.852 96.6639 c 0
 268 92.3856 l 1
 268 0 l 1
 50 0 l 1
 50 105 l 1
EndSplineSet
Validated: 1
EndChar

StartChar: anoteleia
Encoding: 903 903 366
Width: 600
Flags: W
LayerCount: 2
Fore
SplineSet
286 541 m 0
 332.053 541 369.541 504.569 369.541 459.491 c 0
 369.541 414.399 332.051 377.952 285.98 377.952 c 0
 239.986 377.952 202.49 414.377 202.49 459.507 c 0
 202.49 504.568 239.959 541 286 541 c 0
EndSplineSet
EndChar

StartChar: afii10018
Encoding: 1041 1041 368
Width: 600
Flags: W
LayerCount: 2
Fore
SplineSet
270 0 m 0
 51 0 l 1
 51 722.998 l 1
 524 723 l 1
 524 621 l 1
 161 621 l 1
 161 438 l 1
 259 438 l 0
 338.449 438 393.013 438.039 455.46 396.797 c 0
 518.001 355.494 554.123 293.296 554.123 207.787 c 0
 554.123 130.197 507.795 56.398 424.578 22.2068 c 0
 371.394 0.354727 319.101 0 270 0 c 0
161 340 m 1
 161 101 l 1
 284 101 l 0
 315.169 101 342.974 101.681 370.823 113.489 c 0
 414.957 132.201 439.347 172.207 439.347 215.805 c 0
 439.347 259.856 414.025 303.115 365.904 324.605 c 0
 333.32 339.158 300.442 340 264 340 c 0
 161 340 l 1
EndSplineSet
EndChar

StartChar: afii10021
Encoding: 1044 1044 371
Width: 600
Flags: W
LayerCount: 2
Fore
SplineSet
40.916 -167 m 1
 40.916 98 l 1
 96.4562 98 l 1
 96.8252 98.8869 96.641 98.4308 96.9999 99.3215 c 0
 103.851 116.319 113.163 142.41 117.328 161.093 c 0
 150.871 311.505 163.244 530.678 167.466 640.509 c 0
 168.623 670.601 159.915 705.343 159.915 705.343 c 0
 155.469 723 l 1
 536 723 l 1
 536 98 l 1
 595.084 98 l 1
 595.084 -168 l 1
 483.084 -168 l 1
 483.084 -1 l 1
 154.916 -1 l 1
 154.916 -167 l 1
 40.916 -167 l 1
221.099 122.167 m 0
 219.179 114.479 216.69 105.345 214.481 98 c 1
 429 98 l 1
 429 621 l 1
 276.443 621 l 1
 267.9 496.139 254.413 255.624 221.099 122.167 c 0
EndSplineSet
EndChar

StartChar: afii10024
Encoding: 1046 1046 373
Width: 600
Flags: W
LayerCount: 2
Fore
SplineSet
16.999 0 m 0
 -6.99293 0 l 1
 204.242 416.36 l 1
 18.9651 723 l 1
 75.0088 723 l 0
 94.8489 723 114.795 723.982 133.425 728.563 c 0
 144.474 731.28 l 1
 246 551.477 l 1
 246 722 l 1
 356.273 722 l 1
 360.418 713.708 l 0
 362.293 709.959 363.254 705.833 363.254 701.663 c 0
 363.254 680.837 356 683.254 356 679 c 0
 356 559.376 l 1
 449.349 731.328 l 1
 460.591 728.563 l 0
 479.215 723.982 499.161 723 519 723 c 0
 574.629 723 l 1
 398.292 421.56 l 1
 605.674 0 l 1
 582 0 l 0
 525.492 0 480.292 -3.94428 480.292 -3.94428 c 0
 469.105 -4.91119 l 1
 356 285.121 l 1
 356 0 l 1
 246 0 l 1
 246 276.347 l 1
 129.658 -4.89078 l 1
 118.707 -3.94428 l 0
 118.707 -3.94428 73.5069 0 16.999 0 c 0
EndSplineSet
EndChar

StartChar: afii10025
Encoding: 1047 1047 374
Width: 600
Flags: W
LayerCount: 2
Fore
SplineSet
24.6985 129.644 m 0
 16.9989 141.715 l 1
 117.253 212.441 l 1
 126.028 201.033 l 0
 143.213 178.693 133.821 168.294 137.334 163.26 c 0
 141.605 157.139 191.894 91.2617 276.314 91.2617 c 0
 386.642 91.2617 445.012 150.347 445.012 215.652 c 0
 445.012 284.4 375.379 330.579 242.884 330.579 c 0
 226.525 330.579 210.172 329.737 193.956 328.078 c 0
 177.429 326.387 l 1
 177.429 418.459 l 1
 192.405 418.482 l 0
 285.355 418.622 328.525 430.32 344.699 435.233 c 0
 407.181 454.212 424.025 492.903 424.025 529.696 c 0
 424.025 577.302 379.828 622.425 282.553 622.425 c 0
 227.586 622.425 165.123 582.79 134.34 547.328 c 0
 124.2 535.646 l 1
 51.1002 603.161 l 1
 58.8804 613.94 l 0
 114.214 690.601 202.469 724.29 287.492 724.29 c 0
 435.632 724.29 534.067 638.733 534.067 534.101 c 0
 534.067 472.198 504.056 415.709 441.46 384.19 c 1
 517.429 348.929 554.013 280.877 554.013 204.787 c 0
 554.013 87.9986 456.568 -12.1904 277.8 -12.1904 c 0
 181.14 -12.1904 71.109 56.8875 24.6985 129.644 c 0
EndSplineSet
EndChar

StartChar: afii10026
Encoding: 1048 1048 375
Width: 600
Flags: W
LayerCount: 2
Fore
SplineSet
141.307 0 m 1
 53 0 l 1
 53 722 l 1
 167.27 722 l 1
 171.416 713.708 l 0
 173.291 709.959 174.252 705.833 174.252 701.663 c 0
 174.252 680.84 167 683.256 167 679 c 0
 167 240.505 l 1
 439.25 722 l 1
 542.999 722 l 1
 542.999 -1 l 1
 433.974 -1 l 1
 434.898 526.153 l 1
 141.307 0 l 1
EndSplineSet
EndChar

StartChar: afii10029
Encoding: 1051 1051 378
Width: 600
Flags: W
LayerCount: 2
Fore
SplineSet
6.14015 40.5749 m 0
 1.79103 46.7292 l 1
 41.4965 149.074 l 1
 58.0455 129.911 l 0
 66.5099 120.11 66.254 108.907 66.5875 107.649 c 1
 70.0858 101.492 85.9573 86.9587 92.4359 86.3674 c 1
 93.4814 87.6384 95.0734 90.3342 96.9999 95.1455 c 0
 103.851 112.256 113.163 138.523 117.328 157.331 c 0
 150.871 308.749 163.244 529.39 167.466 639.957 c 0
 168.623 670.25 159.915 705.225 159.915 705.225 c 0
 155.469 723 l 1
 536 723 l 1
 536 0 l 1
 429 0 l 1
 429 621 l 1
 276.443 621 l 1
 267.9 494.986 254.413 252.247 221.099 117.558 c 0
 213.863 88.3018 203.731 55.0512 186.22 28.3101 c 0
 165.799 -2.87681 117.273 -8.17969 93.1035 -8.17969 c 0
 59.1433 -8.17969 28.1474 9.43322 6.14015 40.5749 c 0
EndSplineSet
EndChar

StartChar: afii10037
Encoding: 1059 1059 386
Width: 600
Flags: W
LayerCount: 2
Fore
SplineSet
271.077 229.482 m 1
 15.8657 723 l 1
 166.259 723 l 1
 167.138 708.935 l 0
 168.193 692.052 162 683.748 162 683.226 c 0
 162 682.857 162.167 681.979 162.891 680.084 c 1
 326.269 348.197 l 1
 405.867 572.026 l 0
 421.97 617.304 436.727 663.488 445.238 710.663 c 0
 447.464 723 l 1
 567.175 723 l 1
 561.364 704.441 l 0
 545.639 654.217 527.116 605.08 508.033 556.532 c 0
 343.033 136.755 l 0
 331.691 107.901 319.734 78.8478 294.593 51.6741 c 0
 256.864 10.899 210.916 -8.17969 170.5 -8.17969 c 0
 123.558 -8.17969 79.0033 8.01849 45.4297 40.1658 c 0
 36.9544 48.2811 l 1
 94.4107 148.496 l 1
 108.054 137.808 l 0
 121.327 127.411 121.326 114.151 121.326 114.151 c 1
 123.567 110.391 139.61 90.2275 170.251 90.2275 c 0
 179.776 90.2275 191.706 96.25 213.539 118.448 c 0
 228.118 133.269 238.237 153.325 247.167 172.885 c 1
 271.077 229.482 l 1
EndSplineSet
EndChar

StartChar: afii10040
Encoding: 1062 1062 389
Width: 600
Flags: W
LayerCount: 2
Fore
SplineSet
486 0 m 1
 38 0 l 1
 38 722 l 1
 152.27 722 l 1
 156.416 713.708 l 0
 158.291 710.133 159.252 706.2 159.252 702.224 c 0
 159.252 682.369 152 684.673 152 680.615 c 0
 152 99 l 1
 405 99 l 1
 405 722 l 1
 516.498 722 l 1
 520.866 714.711 l 0
 523.15 711.025 524.336 706.818 524.336 702.55 c 0
 524.336 680.582 516 684.392 516 682.108 c 0
 516 90.2301 l 1
 597 90.2225 l 1
 597 -168 l 1
 486 -168 l 1
 486 0 l 1
EndSplineSet
EndChar

StartChar: afii10041
Encoding: 1063 1063 390
Width: 600
Flags: W
LayerCount: 2
Fore
SplineSet
82.9375 340.665 m 0
 54.2501 392.333 53 443.35 53 492.977 c 2
 53 722 l 1
 168.873 722 l 1
 172.777 712.932 l 0
 174.382 709.342 175.2 705.481 175.2 701.586 c 0
 175.2 688.346 166.491 680.148 164.796 677.853 c 0
 162.354 674.544 163 675.978 163 671.59 c 0
 163 493.519 l 0
 163 459.036 163.879 428.14 178.924 397.157 c 0
 202.224 349.174 251.008 323 303.067 323 c 0
 354.255 323 402.976 348.571 426.962 396.397 c 0
 443.022 428.418 443.998 460.552 444 496.417 c 0
 444 722 l 1
 551 722 l 1
 551 0 l 1
 444 0 l 1
 444 263.508 l 1
 401.511 236.69 352.021 224.006 301.461 224.006 c 0
 212.015 224.006 126.087 262.948 82.9375 340.665 c 0
EndSplineSet
EndChar

StartChar: afii10042
Encoding: 1064 1064 391
Width: 600
Flags: W
LayerCount: 2
Fore
SplineSet
0 15 m 2
 28.168 15 l 1
 28.168 722 l 1
 142.438 722 l 1
 146.584 713.708 l 2
 148.459 710.133 149.42 706.2 149.42 702.224 c 0
 149.42 682.369 142.168 684.673 142.168 680.615 c 2
 142.168 99 l 1
 250 99 l 1
 250 722 l 1
 361.498 722 l 1
 365.866 714.711 l 2
 368.15 711.077 369.336 706.929 369.336 702.721 c 0
 369.336 681.061 361 684.818 361 682.566 c 2
 361 99 l 1
 464.168 99 l 1
 464.168 722 l 1
 575.666 722 l 1
 580.035 714.711 l 2
 582.319 711.051 583.504 706.879 583.504 702.644 c 0
 583.504 680.843 575.168 684.624 575.168 682.358 c 2
 575.168 0 l 1
 28.168 0 l 1
 28.168 2.41638 51.3229 15 0 15 c 2
EndSplineSet
EndChar

StartChar: afii10043
Encoding: 1065 1065 392
Width: 600
Flags: W
LayerCount: 2
Fore
SplineSet
486 0 m 1
 3 0 l 1
 3 722 l 1
 117.27 722 l 1
 121.416 713.708 l 0
 123.291 710.133 124.252 706.2 124.252 702.224 c 0
 124.252 682.369 117 684.673 117 680.615 c 0
 117 99 l 1
 224.998 99 l 1
 224.998 722 l 1
 336.496 722 l 1
 340.864 714.711 l 0
 343.148 711.077 344.334 706.929 344.334 702.721 c 0
 344.334 681.061 335.998 684.818 335.998 682.566 c 0
 335.998 99 l 1
 439 99 l 1
 439 722 l 1
 550.498 722 l 1
 554.866 714.711 l 0
 557.15 711.077 558.336 706.929 558.336 702.721 c 0
 558.336 681.061 550 684.818 550 682.566 c 0
 550 99 l 1
 597 99 l 1
 597 -168 l 1
 486 -168 l 1
 486 0 l 1
EndSplineSet
EndChar

StartChar: afii10044
Encoding: 1066 1066 393
Width: 600
Flags: W
LayerCount: 2
Fore
SplineSet
141 619.005 m 1
 31 619.005 l 1
 31 722 l 1
 251.009 722 l 1
 251 438 l 1
 259 438 l 0
 338.465 438 406.751 438.502 469.898 396.797 c 0
 532.439 355.494 568.562 293.296 568.562 207.787 c 0
 568.562 130.197 522.234 56.3979 439.017 22.2068 c 0
 385.833 0.354752 333.54 0 284.438 0 c 0
 141 0 l 1
 141 619.005 l 1
251 340 m 1
 251 101 l 1
 298.438 101 l 0
 329.608 101 357.412 101.681 385.262 113.489 c 0
 429.395 132.201 453.785 172.207 453.785 215.805 c 0
 453.785 259.856 428.463 303.115 380.342 324.605 c 0
 347.758 339.158 314.88 340 278.438 340 c 0
 251 340 l 1
EndSplineSet
EndChar

StartChar: afii10045
Encoding: 1067 1067 394
Width: 600
Flags: W
LayerCount: 2
Fore
SplineSet
160.201 0 m 0
 41 0 l 1
 41 722 l 1
 151.279 722 l 1
 155.423 713.702 l 0
 157.291 710.111 158.255 706.156 158.255 702.149 c 0
 158.255 682.162 151 684.482 151 680.4 c 0
 151 434.727 l 1
 221.613 434.724 269.769 434.577 325.16 393.316 c 0
 380.615 352.006 412.03 290.454 412.03 206.234 c 0
 412.03 130.135 371.856 56.7414 297.591 22.3265 c 0
 250.146 0.339807 203.398 0 160.201 0 c 0
151 340 m 1
 151 101 l 1
 172.521 101 l 0
 199.967 101 217.574 101.497 240.046 113.015 c 0
 275.198 131.033 296.215 171.004 296.215 215.805 c 0
 296.215 261.032 274.462 304.301 235.91 325.114 c 0
 209.591 339.324 187.041 340 154.922 340 c 0
 151 340 l 1
554.562 0 m 1
 444.562 0 l 1
 444.562 722 l 1
 554.835 722 l 1
 558.981 713.708 l 0
 560.855 710.11 561.816 706.151 561.816 702.149 c 0
 561.816 682.163 554.562 684.483 554.562 680.4 c 0
 554.562 0 l 1
EndSplineSet
EndChar

StartChar: afii10046
Encoding: 1068 1068 395
Width: 600
Flags: W
LayerCount: 2
Fore
SplineSet
270 0 m 0
 51 0 l 1
 51 722 l 1
 161.279 722 l 1
 165.423 713.702 l 0
 167.291 710.154 168.255 706.245 168.255 702.284 c 0
 168.255 682.535 161.003 684.827 161.003 680.79 c 0
 161 438 l 1
 259 438 l 0
 338.45 438 393.014 438.039 455.461 396.797 c 0
 518 355.494 554.123 293.296 554.123 207.787 c 0
 554.123 130.197 507.795 56.398 424.578 22.2068 c 0
 371.394 0.354727 319.101 0 270 0 c 0
161 340 m 1
 161 101 l 1
 284 101 l 0
 315.169 101 342.974 101.681 370.823 113.489 c 0
 414.957 132.201 439.347 172.207 439.347 215.805 c 0
 439.347 259.856 414.025 303.115 365.904 324.605 c 0
 333.32 339.158 300.442 340 264 340 c 0
 161 340 l 1
EndSplineSet
EndChar

StartChar: afii10047
Encoding: 1069 1069 396
Width: 600
Flags: W
LayerCount: 2
Fore
SplineSet
43.2678 139.888 m 0
 37.3905 153.064 l 1
 135.299 201.383 l 1
 142.577 196.281 l 0
 154.95 187.607 154.251 173.889 154.251 172.623 c 0
 154.251 168.044 153.76 165.154 153.76 163.982 c 0
 153.76 162.147 153.365 163.234 155.732 159.146 c 0
 182.475 112.955 230.577 82.8301 281.085 82.8301 c 0
 366.828 82.8301 450.071 164.936 458.344 325 c 1
 174.983 325 l 1
 174.983 429 l 1
 453.541 429 l 1
 432.152 561.514 354.864 628.004 274.312 628.004 c 0
 223.418 628.004 170.583 598.183 139.806 547.241 c 0
 131.79 533.973 l 1
 46.5521 589.377 l 1
 54.1729 601.828 l 0
 102.204 680.302 187.513 728 278.857 728 c 0
 406.385 728 568 633.681 568 359.145 c 0
 568 74.6322 398.843 -12.002 278.349 -12.002 c 0
 176.557 -12.002 84.5215 47.3991 43.2678 139.888 c 0
EndSplineSet
EndChar

StartChar: afii10048
Encoding: 1070 1070 397
Width: 600
Flags: W
LayerCount: 2
Fore
SplineSet
124.502 0 m 1
 14.502 0 l 1
 14.502 722 l 1
 124.774 722 l 1
 128.92 713.708 l 0
 130.795 710.146 131.756 706.227 131.756 702.266 c 0
 131.756 682.482 124.502 684.778 124.502 680.737 c 0
 124.502 429 l 1
 177.271 429 l 1
 193.909 652.715 300.277 730 385.838 730 c 0
 453.036 730 519.537 682.712 556.673 589.958 c 0
 587.577 512.772 591.008 424.922 591.008 359.504 c 0
 591.008 298.04 587.756 210.159 557.693 132.594 c 0
 520.459 36.541 453.195 -11.0146 386.385 -11.0146 c 0
 294.445 -11.0146 185.439 78.3535 175.666 325 c 1
 124.502 325 l 1
 124.502 0 l 1
383.275 624.01 m 0
 350.061 624.01 285 576.055 285 372.03 c 0
 285 153.654 350.253 97.9873 386.147 97.9873 c 0
 407.561 97.9873 439.718 116.381 460.379 180.398 c 0
 478.533 236.647 480.479 305.212 480.479 349.55 c 0
 480.479 406.994 477.996 471.371 462.91 526.652 c 0
 441.941 603.486 405.809 624.01 383.275 624.01 c 0
EndSplineSet
EndChar

StartChar: afii10049
Encoding: 1071 1071 398
Width: 600
Flags: W
LayerCount: 2
Fore
SplineSet
152.258 0 m 1
 27.3231 0 l 1
 197.52 315.073 l 1
 112.345 345.558 56.8574 426.001 56.8574 517.477 c 0
 56.8574 591.753 95.1947 662.006 167.219 697.126 c 0
 216.535 721.173 265.28 722 312 722 c 0
 540 722 l 1
 540 0 l 1
 428 0 l 1
 428 304 l 1
 312.258 304 l 1
 152.258 0 l 1
230.107 603.016 m 0
 190.823 584.618 169.997 547.07 169.997 507.686 c 0
 169.997 469.128 189.815 434.339 225.941 417.275 c 0
 250.242 405.795 274.601 405 303 405 c 0
 428 405 l 1
 428 616 l 1
 312 616 l 0
 281.909 616 256.028 615.155 230.107 603.016 c 0
EndSplineSet
EndChar

StartChar: afii10066
Encoding: 1073 1073 400
Width: 600
Flags: W
LayerCount: 2
Fore
SplineSet
301.758 440.103 m 0
 230.577 440.103 159.997 384.467 159.997 270.454 c 0
 159.997 162.554 217.693 87.9941 305.602 87.9941 c 0
 372.944 87.9941 444.167 141.887 444.167 259.253 c 0
 444.167 387.789 368.297 440.103 301.758 440.103 c 0
99.4644 85.3902 m 0
 50.6491 155.865 43 244.352 43 325.642 c 0
 43 391.861 48.9005 473.035 74.8674 541.028 c 1
 120.723 672.343 220.547 730 313 730 c 0
 341.68 730 383.813 745.872 395.181 752.427 c 1
 396.401 756.74 398.231 766.53 407.749 773.987 c 0
 421.392 784.677 l 1
 478.849 684.461 l 1
 470.374 676.346 l 0
 434.382 641.884 358.776 628 313 628 c 0
 278.191 628 213.003 614.668 179.711 505.523 c 1
 218.32 528.526 261.628 541.005 307.44 541.005 c 0
 436.573 541.005 558.113 442.432 558.113 262.365 c 0
 558.113 89.2352 439.258 -14 304.969 -14 c 0
 216.778 -14 144.373 20.4673 99.4644 85.3902 c 0
EndSplineSet
EndChar

StartChar: afii10067
Encoding: 1074 1074 401
Width: 600
Flags: W
LayerCount: 2
Fore
SplineSet
277.5 0 m 0
 74.5 0 l 1
 74.5 530 l 1
 278.5 530 l 0
 322.853 530 362.328 529.661 409.817 514.503 c 0
 483.416 492.305 511.877 443.084 511.877 392.625 c 0
 511.877 349.53 487.865 309.7 447.582 285.514 c 1
 517.505 258.863 540 206.492 540 152.832 c 0
 540 95.3998 505.831 40.2907 422.556 15.7448 c 0
 370.367 0.362399 326.573 0 277.5 0 c 0
184.5 237.68 m 1
 184.5 100.9 l 1
 291.5 100.9 l 0
 322.746 100.9 343.042 101.156 372.466 108.289 c 0
 416.617 118.992 425.224 138.662 425.224 161.093 c 0
 425.224 186.284 412.156 223.075 368.716 231.058 c 0
 334.143 237.411 307.991 237.68 271.5 237.68 c 0
 184.5 237.68 l 1
184.5 431.003 m 1
 184.5 336.273 l 1
 266.5 336.273 l 0
 298.714 336.273 323.663 336.344 355.31 341.978 c 0
 392.41 348.585 400.046 370.449 400.046 387 c 0
 400.046 401.571 394.961 416.233 351.91 424.855 c 0
 321.54 430.938 298.42 431.003 267.5 431.003 c 0
 184.5 431.003 l 1
EndSplineSet
EndChar

StartChar: afii10068
Encoding: 1075 1075 402
Width: 600
Flags: W
LayerCount: 2
Fore
SplineSet
197.5 0 m 1
 85.5 0 l 1
 85.5 531.038 l 1
 511.5 529.962 l 1
 511.5 432.471 l 1
 197.5 433.417 l 1
 197.5 0 l 1
EndSplineSet
EndChar

StartChar: afii10069
Encoding: 1076 1076 403
Width: 600
Flags: W
LayerCount: 2
Fore
SplineSet
40.916 -167 m 1
 40.916 98 l 1
 100.346 98 l 1
 100.737 98.8607 100.554 98.4132 100.912 99.286 c 0
 107.757 115.956 117.079 141.515 121.244 159.816 c 0
 140.75 245.515 153.108 354.235 160.908 451.221 c 0
 163.78 486.933 156.044 510.232 155.984 510.412 c 1
 149.765 528.7 l 1
 535.084 528.7 l 1
 535.084 98 l 1
 595.084 98 l 1
 595.084 -168 l 1
 483.084 -168 l 1
 483.084 -1 l 1
 154.916 -1 l 1
 154.916 -167 l 1
 40.916 -167 l 1
225.015 121.434 m 0
 223.095 113.979 220.606 105.123 218.397 98 c 1
 423.084 98 l 1
 423.084 429.7 l 1
 268.539 429.7 l 1
 259.199 319.879 245.59 201.358 225.015 121.434 c 0
EndSplineSet
EndChar

StartChar: afii10072
Encoding: 1078 1078 405
Width: 600
Flags: W
LayerCount: 2
Fore
SplineSet
21 0 m 0
 -4.77919 0 l 1
 185.466 316.787 l 1
 15.9398 530 l 1
 76 530 l 0
 95.84 530 115.785 530.982 134.416 535.566 c 0
 144.391 538.02 l 1
 242 398.698 l 1
 242 530 l 1
 352.278 530 l 1
 356.422 521.702 l 0
 358.29 517.961 359.254 513.839 359.254 509.663 c 0
 359.254 488.837 352 491.254 352 487 c 0
 352 399.968 l 1
 445.434 538.063 l 1
 455.584 535.566 l 0
 474.215 530.982 494.16 530 514 530 c 0
 573.261 530 l 1
 410.237 315.428 l 1
 603.54 0 l 1
 577.5 0 l 0
 520.992 0 475.792 -3.94428 475.792 -3.94428 c 0
 465.72 -4.81478 l 1
 352 218.521 l 1
 352 0 l 1
 242 0 l 1
 242 222.105 l 1
 133.035 -4.83687 l 1
 122.708 -3.94428 l 0
 122.708 -3.94428 77.5079 0 21 0 c 0
EndSplineSet
EndChar

StartChar: afii10073
Encoding: 1079 1079 406
Width: 600
Flags: W
LayerCount: 2
Fore
SplineSet
79.8688 93.8375 m 0
 71.3905 102.58 l 1
 123.576 179.881 l 1
 136.267 169.81 l 0
 173.965 139.895 203.821 104.874 286.782 104.874 c 1
 355.918 105.731 418.094 136.492 418.094 159.641 c 0
 418.094 177.647 423.12 221.212 286.887 221.212 c 0
 267.861 221.212 271.09 220.467 251.138 218.41 c 0
 234.6 216.705 l 1
 234.6 330.171 l 1
 250.726 328.958 l 0
 262.74 328.054 275.117 328.04 286.887 328.04 c 0
 407.677 328.04 414.168 352.218 414.168 371.672 c 0
 414.168 399.887 378.895 426.132 314.362 426.132 c 0
 253.045 426.132 195.094 414.726 154.231 373.864 c 0
 141.947 361.58 l 1
 84.8081 438.471 l 1
 93.5003 447.621 l 0
 149.195 506.243 233.734 532.959 313.381 532.959 c 0
 432.749 532.959 528.556 457.597 528.556 372.382 c 0
 528.556 329.826 501.894 297.758 466.698 278.991 c 1
 513.573 254.135 531.5 206.033 531.5 159.636 c 0
 531.5 61.229 410.177 -0.0322266 285.906 -0.0322266 c 0
 198.007 -0.0322266 136.502 35.4405 79.8688 93.8375 c 0
EndSplineSet
EndChar

StartChar: afii10074
Encoding: 1080 1080 407
Width: 600
Flags: W
LayerCount: 2
Fore
SplineSet
155.352 0 m 1
 67.999 0 l 1
 67.999 529 l 1
 181.999 529 l 1
 181.999 179.1 l 1
 426.175 529 l 1
 528.998 529 l 1
 528.998 0 l 1
 419.963 0 l 1
 420.883 383.029 l 1
 155.352 0 l 1
EndSplineSet
EndChar

StartChar: afii10077
Encoding: 1083 1083 410
Width: 600
Flags: W
LayerCount: 2
Fore
SplineSet
6.14015 39.8893 m 0
 1.79103 45.957 l 1
 41.4965 146.862 l 1
 58.0455 127.969 l 0
 66.5099 118.306 66.254 107.26 66.5875 106.02 c 1
 70.0858 99.95 85.9573 85.6208 92.4359 85.0378 c 1
 93.4814 86.2909 95.0734 88.9487 96.9999 93.6924 c 0
 103.851 110.563 113.163 136.46 117.328 155.004 c 0
 136.834 241.82 149.192 351.959 156.992 450.211 c 0
 159.864 486.387 152.128 509.993 152.07 510.172 c 1
 145.851 528.7 l 1
 531.168 528.7 l 1
 531.168 -1 l 1
 419.168 -1 l 1
 419.168 429.7 l 1
 264.623 429.7 l 1
 255.283 317.625 241.674 196.671 221.099 115.107 c 0
 213.863 86.4208 203.731 53.8185 186.22 27.5988 c 0
 165.799 -2.98019 117.273 -8.17969 93.1035 -8.17969 c 0
 59.1433 -8.17969 28.1474 9.18552 6.14015 39.8893 c 0
EndSplineSet
EndChar

StartChar: afii10078
Encoding: 1084 1084 411
Width: 600
Flags: W
LayerCount: 2
Fore
SplineSet
148 -1 m 1
 42 -1 l 1
 42 529.6 l 1
 128.687 529.6 l 1
 300.077 291.378 l 1
 474.37 530.6 l 1
 558 530.6 l 1
 558 -1 l 1
 451 -1 l 1
 451 361.202 l 1
 317.834 169.93 l 1
 270.932 169.93 l 1
 148 356.004 l 1
 148 -1 l 1
EndSplineSet
EndChar

StartChar: afii10079
Encoding: 1085 1085 412
Width: 600
Flags: W
LayerCount: 2
Fore
SplineSet
181.168 0 m 1
 67.168 0 l 1
 67.168 528.7 l 1
 181.168 528.7 l 1
 181.168 323 l 1
 420.168 323 l 1
 420.168 528.7 l 1
 531.168 528.7 l 1
 531.168 -1 l 1
 419.168 -1 l 1
 419.168 224 l 1
 181.168 224 l 1
 181.168 0 l 1
EndSplineSet
EndChar

StartChar: afii10081
Encoding: 1087 1087 414
Width: 600
Flags: W
LayerCount: 2
Fore
SplineSet
181.168 0 m 1
 67.168 0 l 1
 67.168 528.7 l 1
 531.168 528.7 l 1
 531.168 -1 l 1
 419.168 -1 l 1
 419.168 429.7 l 1
 181.168 429.7 l 1
 181.168 0 l 1
EndSplineSet
EndChar

StartChar: afii10084
Encoding: 1090 1090 417
Width: 600
Flags: W
LayerCount: 2
Fore
SplineSet
236 427 m 1
 53 427 l 1
 53 530 l 1
 530 530 l 1
 530 427 l 1
 348 427 l 1
 348 -1 l 1
 236 -1 l 1
 236 427 l 1
EndSplineSet
EndChar

StartChar: afii10088
Encoding: 1094 1094 421
Width: 600
Flags: W
LayerCount: 2
Fore
SplineSet
481 0 m 1
 65.5 0 l 1
 65.5 530 l 1
 179.5 530 l 1
 179.5 99 l 1
 415.5 99 l 1
 415.5 530 l 1
 526.5 530 l 1
 526.5 99 l 1
 592 99 l 1
 592 -168 l 1
 481 -168 l 1
 481 0 l 1
EndSplineSet
EndChar

StartChar: afii10089
Encoding: 1095 1095 422
Width: 600
Flags: W
LayerCount: 2
Fore
SplineSet
89.3191 260.137 m 1
 66.7533 307.696 67 355.767 67 399.855 c 2
 68.1252 529 l 1
 182 529 l 1
 182 401.464 l 0
 182 367.102 182.387 331.065 199.38 299.637 c 1
 218.096 264.086 250.743 245.711 287 245.711 c 0
 331.27 245.711 374.001 274.353 395.832 312.365 c 0
 412.133 340.748 415 366.843 415 405.263 c 0
 415 529 l 1
 529 529 l 1
 529 0 l 1
 414.941 0 l 1
 415.825 211.782 l 1
 376.843 170.974 323.873 147.711 268 147.711 c 0
 193.434 147.711 122.711 187.59 89.3191 260.137 c 1
EndSplineSet
EndChar

StartChar: afii10090
Encoding: 1096 1096 423
Width: 600
Flags: W
LayerCount: 2
Fore
SplineSet
0 15 m 2
 28.168 15 l 1
 28.168 530 l 1
 142.168 530 l 1
 142.168 99 l 1
 250 99 l 1
 250 530 l 1
 361 530 l 1
 361 99 l 1
 464.168 99 l 1
 464.168 530 l 1
 575.168 530 l 1
 575.168 0 l 1
 28.168 0 l 1
 28.168 2.41638 51.3229 15 0 15 c 2
EndSplineSet
EndChar

StartChar: afii10091
Encoding: 1097 1097 424
Width: 600
Flags: W
LayerCount: 2
Fore
SplineSet
486 0 m 1
 3 0 l 1
 3 530 l 1
 117 530 l 1
 117 99 l 1
 224.998 99 l 1
 224.998 530 l 1
 335.998 530 l 1
 335.998 99 l 1
 439 99 l 1
 439 530 l 1
 550 530 l 1
 550 99 l 1
 597 99 l 1
 597 -168 l 1
 486 -168 l 1
 486 0 l 1
EndSplineSet
EndChar

StartChar: afii10092
Encoding: 1098 1098 425
Width: 600
Flags: W
LayerCount: 2
Fore
SplineSet
141 427.005 m 1
 31 427.005 l 1
 31 530 l 1
 251.01 530 l 1
 251.001 332.455 l 1
 362.7 332.38 420.515 325.692 459.926 298.195 c 0
 511.063 262.516 545 216.831 545 153.078 c 0
 545 92.6099 485.16 35.194 422.237 15.8225 c 0
 390.599 6.0825 306.17 0 261 0 c 0
 141 0 l 1
 141 427.005 l 1
251 237.68 m 1
 251 100.9 l 1
 275 100.9 l 0
 306.061 100.9 343.22 101.472 368.79 108.21 c 0
 410.604 119.228 426.787 140.964 426.787 161.093 c 0
 426.787 184.159 405.856 223.04 365.477 231.106 c 0
 334.806 237.232 291.324 237.68 255 237.68 c 0
 251 237.68 l 1
EndSplineSet
EndChar

StartChar: afii10093
Encoding: 1099 1099 426
Width: 600
Flags: W
LayerCount: 2
Fore
SplineSet
162 0 m 0
 42 0 l 1
 42 530 l 1
 152.279 530 l 1
 156.423 521.702 l 0
 158.291 518.164 159.255 514.266 159.255 510.318 c 0
 159.255 490.626 152.003 492.912 152.003 488.887 c 0
 152 332.172 l 1
 263.632 332.091 299.969 324.368 337.88 297.941 c 0
 390.32 261.384 412.919 214.806 412.919 152.948 c 0
 412.919 94.0945 364.41 35.5628 300.192 15.8089 c 0
 269.539 6.38073 207.144 0 162 0 c 0
152 237.68 m 1
 152 100.9 l 1
 176 100.9 l 0
 207.342 100.9 219.493 101.029 246.743 108.21 c 0
 286.415 118.663 294.706 137.952 294.706 161.093 c 0
 294.706 186.927 282.055 223.39 243.43 231.105 c 0
 211.605 237.462 192.578 237.68 156 237.68 c 0
 152 237.68 l 1
554.562 0 m 1
 444.562 0 l 1
 444.562 530 l 1
 554.835 530 l 1
 558.981 521.708 l 0
 560.855 518.163 561.816 514.261 561.816 510.318 c 0
 561.816 490.625 554.562 492.91 554.562 488.887 c 0
 554.562 0 l 1
EndSplineSet
EndChar

StartChar: afii10094
Encoding: 1100 1100 427
Width: 600
Flags: W
LayerCount: 2
Fore
SplineSet
255.5 0 m 0
 90 0 l 1
 90 530 l 1
 200.279 530 l 1
 204.423 521.702 l 0
 206.291 518.24 207.255 514.427 207.255 510.564 c 0
 207.255 491.299 200.003 493.535 200.003 489.597 c 0
 200 336.273 l 1
 244.5 336.273 l 0
 356.035 336.273 399.905 328.651 439.65 301.793 c 0
 494.265 264.886 518 217.68 518 154.836 c 0
 518 94.861 467.091 35.7896 400.55 15.9495 c 0
 368.639 6.43495 300.632 0 255.5 0 c 0
200 237.68 m 1
 200 100.9 l 1
 269.5 100.9 l 0
 300.746 100.9 321.042 101.156 350.466 108.289 c 0
 394.617 118.992 403.224 138.662 403.224 161.093 c 0
 403.224 186.284 390.156 223.075 346.716 231.058 c 0
 312.143 237.411 285.991 237.68 249.5 237.68 c 0
 200 237.68 l 1
EndSplineSet
EndChar

StartChar: afii10095
Encoding: 1101 1101 428
Width: 600
Flags: W
LayerCount: 2
Fore
SplineSet
62.6089 91.5739 m 0
 56.1416 101.054 l 1
 131.77 189.5 l 1
 143.035 181.001 l 0
 161.389 167.152 154.737 148.955 154.737 148.955 c 1
 159.214 141.492 198.923 87.9531 278.219 87.9531 c 0
 362.965 87.9531 430.832 143.855 437.546 238 c 1
 197 238 l 5
 197 332 l 5
 425.659 332 l 1
 400.881 395.217 342.422 434.049 271.244 434.049 c 0
 222.61 434.049 175.238 412.486 142.247 375.102 c 0
 130.835 362.171 l 1
 62.9055 441.422 l 1
 72.0033 451.229 l 0
 125.431 508.821 200.32 540.028 278.219 540.028 c 0
 436.769 540.028 554 420.867 554 262.57 c 0
 554 104.784 437.007 -13.001 272.949 -13.001 c 0
 183.433 -13.001 107.29 26.0791 62.6089 91.5739 c 0
EndSplineSet
EndChar

StartChar: afii10096
Encoding: 1102 1102 429
Width: 600
Flags: W
LayerCount: 2
Fore
SplineSet
45.9902 -15 m 29
 45.9902 545 l 1
 156.263 545 l 1
 160.408 536.708 l 0
 162.283 532.959 163.244 528.833 163.244 524.663 c 0
 163.244 503.837 155.99 506.254 155.99 502 c 0
 155.99 332 l 1
 210.965 332 l 1
 229.468 460.744 298.654 556.005 386.987 556.005 c 0
 480.464 556.005 558.113 447.036 558.113 262.304 c 0
 558.113 84.8881 482.287 -29 385.35 -29 c 0
 287.079 -29 213.082 87.9358 206.481 238 c 1
 155.99 238 l 1
 155.99 -15 l 1
 45.9902 -15 l 29
443.767 259.253 m 0
 443.767 395.612 401.909 440.103 383.224 440.103 c 0
 362.615 440.103 322.985 389.62 322.985 267.511 c 0
 322.985 144.37 363.198 87.9932 385.073 87.9932 c 0
 404.084 87.9932 443.767 134.031 443.767 259.253 c 0
EndSplineSet
EndChar

StartChar: afii10097
Encoding: 1103 1103 430
Width: 600
Flags: W
LayerCount: 2
Fore
SplineSet
182.868 0 m 1
 55.3487 0 l 1
 208.35 208.871 l 1
 189.705 215.022 177.86 221.951 163.868 231.869 c 0
 112.2 268.493 90 315.087 90 376.922 c 0
 90 435.686 137.66 494.328 201.058 514.157 c 0
 230.371 523.324 277.143 530 313.191 530 c 0
 518 530 l 1
 518 0 l 1
 408 0 l 1
 408 193.727 l 1
 327.098 193.727 l 1
 182.868 0 l 1
249.208 421.766 m 0
 209.341 411.512 204.776 393.536 204.776 368.907 c 0
 204.776 341.782 213.51 306.539 252.645 298.909 c 0
 286.673 292.275 289.211 292.32 317.891 292.32 c 0
 408 292.32 l 1
 408 429.1 l 1
 302.225 429.1 l 0
 277.708 429.1 278.925 429.409 249.208 421.766 c 0
EndSplineSet
EndChar

StartChar: afii10051
Encoding: 1026 1026 433
Width: 600
Flags: W
LayerCount: 2
Fore
SplineSet
109.5 620 m 1
 -0.5 620 l 1
 -0.5 723 l 1
 395 723 l 1
 395 620 l 1
 221.5 620 l 1
 221.5 444.414 l 1
 263.909 484.887 323.343 506.421 374.568 506.421 c 0
 435.147 506.421 526.372 486.811 557.066 420.594 c 0
 577.81 375.842 577.5 319.77 577.5 281.699 c 0
 577.5 63.9773 l 0
 577.5 12.9892 575.747 -43.6791 545.684 -98.1568 c 1
 508.259 -166.401 427.845 -202 354.501 -202 c 0
 286.897 -202 220.792 -170.942 175.033 -116.669 c 0
 167.002 -107.144 l 1
 238.61 -19.6232 l 1
 250.263 -29.6112 l 0
 261.245 -39.0246 259.921 -53.0458 259.945 -53.2985 c 1
 268.574 -62.219 308.064 -100 356.501 -100 c 0
 386.662 -100 426.97 -83.6498 442.011 -60.6921 c 1
 464.054 -29.0646 465.507 12.4523 465.507 53.8892 c 0
 465.5 278.232 l 0
 465.499 312.768 464.465 349.783 442.778 376.082 c 0
 431.915 389.255 381.9 401.235 345.672 401.235 c 0
 313.211 401.235 254.245 376.423 240.772 358.289 c 0
 230.864 344.952 224.013 312.329 221.5 294.06 c 1
 221.5 -1 l 1
 109.5 -1 l 1
 109.5 620 l 1
EndSplineSet
EndChar

StartChar: afii10053
Encoding: 1028 1028 435
Width: 600
Flags: W
LayerCount: 2
Fore
SplineSet
331.109 -12.002 m 0
 203.582 -12.002 41.9668 82.3169 41.9668 356.853 c 0
 41.9668 641.366 211.124 728 331.618 728 c 0
 433.409 728 525.446 668.599 566.699 576.11 c 0
 572.576 562.934 l 1
 474.668 514.615 l 1
 467.389 519.718 l 0
 455.017 528.391 455.716 542.11 455.716 543.375 c 0
 455.716 547.954 456.207 550.844 456.207 552.016 c 0
 456.207 553.851 456.602 552.765 454.235 556.852 c 0
 427.491 603.042 379.389 633.168 328.882 633.168 c 0
 249.583 633.168 172.801 563.796 154.844 428.998 c 1
 434.983 428.998 l 1
 434.983 324.998 l 1
 152.315 324.998 l 1
 164.382 167.204 248.372 87.9941 335.655 87.9941 c 0
 386.548 87.9941 439.384 117.815 470.161 168.757 c 0
 478.177 182.025 l 1
 563.415 126.621 l 1
 555.794 114.169 l 0
 507.764 35.6965 422.453 -12.002 331.109 -12.002 c 0
EndSplineSet
EndChar

StartChar: afii10058
Encoding: 1033 1033 440
Width: 600
Flags: W
LayerCount: 2
Fore
SplineSet
6.14015 40.5749 m 0
 1.79103 46.7292 l 1
 41.4965 149.074 l 1
 58.0455 129.911 l 0
 66.9638 119.585 66.4116 108.113 66.711 107.265 c 0
 67.2473 105.747 69.0303 101.207 70.9629 97.3235 c 1
 73.778 116.454 75.3982 142.858 76.3197 155.351 c 0
 81.9607 231.833 88.0062 523.661 90.0622 639.674 c 0
 90.6043 670.305 82.4642 705.455 82.4642 705.455 c 0
 78.3907 723 l 1
 384.071 723 l 1
 388.215 714.702 l 0
 390.083 711.111 391.047 707.156 391.047 703.149 c 0
 391.047 683.162 383.792 685.482 383.792 681.4 c 0
 383.792 435.726 l 1
 439.289 435.712 480.284 434.591 525.125 393.336 c 0
 570.447 351.642 595.384 290.605 595.384 207.234 c 0
 595.384 132.373 563.757 59.1155 502.273 23.9261 c 0
 462.847 1.35997 423.577 1 388.633 1 c 0
 273.792 1 l 1
 273.792 621 l 1
 199.574 621 l 1
 195.502 483.378 189.166 201.119 180.709 119.44 c 0
 170.704 22.789 132.951 -8.17969 93.1035 -8.17969 c 0
 59.1433 -8.17969 28.1474 9.43322 6.14015 40.5749 c 0
383.792 355.999 m 1
 383.792 102 l 1
 393.961 102 l 0
 412.634 102 426.151 102.566 440.876 113.6 c 0
 464.962 131.65 481.387 174.914 481.387 224.01 c 0
 481.387 273.557 464.501 320.326 437.781 341.416 c 0
 420.641 354.947 404.702 355.915 383.792 355.999 c 1
EndSplineSet
EndChar

StartChar: afii10059
Encoding: 1034 1034 441
Width: 600
Flags: W
LayerCount: 2
Fore
SplineSet
130 0 m 1
 16 0 l 1
 16 722 l 1
 130.27 722 l 1
 134.416 713.708 l 0
 136.291 710.146 137.252 706.226 137.252 702.264 c 0
 137.252 682.479 130 684.775 130 680.731 c 0
 130 428 l 1
 261.168 428 l 1
 261.168 723 l 1
 371.446 723 l 1
 375.591 714.702 l 0
 377.459 711.111 378.423 707.156 378.423 703.149 c 0
 378.423 683.162 371.168 685.482 371.168 681.4 c 0
 371.168 435.727 l 1
 430.948 435.713 472.654 434.874 519.892 393.588 c 0
 567.511 351.968 593.885 290.787 593.885 207.234 c 0
 593.885 132.104 560.353 58.7713 495.971 23.7649 c 0
 454.751 1.35222 413.821 1 377.042 1 c 0
 261.168 1 l 1
 261.168 329 l 1
 130 329 l 1
 130 0 l 1
371.168 356 m 1
 371.168 102 l 1
 383.463 102 l 0
 403.767 102 419.226 102.624 435.613 113.939 c 0
 462.112 132.239 479.614 175.222 479.614 224.01 c 0
 479.614 273.25 461.588 319.74 432.279 341.06 c 0
 412.862 355.184 393.684 355.98 371.168 356 c 1
EndSplineSet
EndChar

StartChar: afii10060
Encoding: 1035 1035 442
Width: 600
Flags: W
LayerCount: 2
Fore
SplineSet
125 620 m 1
 15 620 l 1
 15 723 l 1
 410.5 723 l 1
 410.5 620 l 1
 237 620 l 1
 237 444.414 l 1
 279.409 484.887 338.843 506.421 390.068 506.421 c 0
 451.345 506.421 529.352 485.872 559.566 420.99 c 0
 580.31 376.444 580 320.632 580 282.736 c 0
 580 -1 l 1
 468.006 -1 l 1
 468 278.803 l 0
 467.999 313.179 466.965 350.022 445.278 376.199 c 0
 433.452 390.474 396.65 401.235 361.172 401.235 c 0
 328.711 401.235 269.745 376.423 256.272 358.289 c 0
 246.364 344.952 239.513 312.329 237 294.06 c 1
 237 -1 l 1
 125 -1 l 1
 125 620 l 1
EndSplineSet
EndChar

StartChar: afii10145
Encoding: 1039 1039 445
Width: 600
Flags: W
LayerCount: 2
Fore
SplineSet
250 0 m 1
 48.168 0 l 1
 48.168 722 l 1
 162.438 722 l 1
 166.584 713.708 l 0
 168.459 710.133 169.42 706.2 169.42 702.224 c 0
 169.42 682.369 162.168 684.673 162.168 680.615 c 0
 162.168 99 l 1
 444.168 99 l 1
 444.168 722 l 1
 555.666 722 l 1
 560.035 714.711 l 0
 562.319 711.051 563.504 706.879 563.504 702.644 c 0
 563.504 680.843 555.168 684.624 555.168 682.358 c 0
 555.168 0 l 1
 361 0 l 1
 361 -168 l 1
 250 -168 l 1
 250 0 l 1
EndSplineSet
EndChar

StartChar: afii10099
Encoding: 1106 1106 446
Width: 600
Flags: W
LayerCount: 2
Fore
SplineSet
102.5 600 m 1
 30 600 l 1
 30 692 l 1
 102.5 692 l 1
 102.5 770 l 1
 224.241 770 l 1
 227.701 759.831 l 0
 228.615 757.145 229.072 754.339 229.072 751.526 c 0
 229.072 737.257 218.2 729.432 217.594 728.793 c 0
 217.594 728.793 217.5 728.76 217.5 728 c 0
 217.5 692 l 1
 348 692 l 1
 348 600 l 1
 217.5 600 l 1
 217.5 464.521 l 1
 258.8 509.428 315.497 542.003 378.457 542.003 c 0
 444.601 542.003 504.425 506.182 533.116 444.289 c 0
 553.496 400.328 553.5 356.154 553.5 316.699 c 0
 553 45.6291 l 0
 553 1.92998 551.923 -42.5884 527.522 -88.2026 c 0
 488.593 -164.439 408.691 -202.181 328.699 -202.181 c 0
 258.854 -202.181 196.222 -173.161 155.321 -122.413 c 0
 148.002 -113.331 l 1
 218.43 -19.427 l 1
 230.55 -29.4326 l 0
 243.944 -40.4903 243.657 -54.0144 243.905 -54.4187 c 0
 246.568 -58.771 277.723 -100.016 334.016 -100.016 c 0
 373.49 -100.016 409.498 -79.377 426.849 -41.934 c 0
 438.573 -18.1147 441 5.55661 441 31.4529 c 0
 441.5 311.952 l 0
 441.5 347.544 440.454 385.698 416.107 413.085 c 0
 400.044 431.153 378.319 439.58 355.841 439.58 c 0
 307.862 439.58 259.64 399.709 240.805 376.214 c 0
 221.071 351.598 217.5 331.845 217.5 299.556 c 0
 217.5 0 l 1
 102.5 0 l 1
 102.5 600 l 1
EndSplineSet
EndChar

StartChar: afii10101
Encoding: 1108 1108 448
Width: 600
Flags: W
LayerCount: 2
Fore
SplineSet
335.78 -13.001 m 0
 177.23 -13.001 60 106.161 60 264.458 c 0
 60 422.243 176.993 540.028 341.051 540.028 c 0
 430.565 540.028 506.711 500.949 551.391 435.453 c 0
 557.858 425.974 l 1
 482.229 337.526 l 1
 470.964 346.027 l 0
 452.611 359.877 459.263 378.071 459.263 378.071 c 1
 454.786 385.534 415.076 439.074 335.78 439.074 c 0
 263.17 439.074 203.812 399.674 183.22 332 c 1
 417 332 l 1
 417 238 l 1
 178.298 238 l 1
 191.561 149.62 258.708 92.9785 342.756 92.9785 c 0
 391.39 92.9785 438.763 114.542 471.753 151.925 c 0
 483.165 164.856 l 1
 551.094 85.6053 l 1
 541.997 75.7984 l 0
 488.568 18.2063 413.68 -13.001 335.78 -13.001 c 0
EndSplineSet
EndChar

StartChar: afii10106
Encoding: 1113 1113 453
Width: 600
Flags: W
LayerCount: 2
Fore
SplineSet
384 251.68 m 1
 384 99.9004 l 1
 407.281 99.9004 430.094 100.444 450.364 107.73 c 0
 480.515 118.568 488.229 139.355 488.229 166.694 c 0
 488.229 196.895 476.399 236.822 448.015 244.557 c 0
 422.347 251.551 411.035 251.67 384 251.68 c 1
6.14015 39.8883 m 2
 1.79103 45.9559 l 1
 41.4965 146.859 l 1
 58.0455 127.967 l 2
 66.9638 117.785 66.4116 106.475 66.711 105.639 c 0
 67.2473 104.142 69.0303 99.6662 70.9629 95.8377 c 1
 73.778 114.699 75.3982 140.73 76.3197 153.047 c 0
 79.795 199.503 82.9846 328.196 86.4585 446.423 c 0
 86.9991 476.482 78.8597 511.201 78.8597 511.201 c 1
 74.7889 528.487 l 1
 384.273 528.706 l 1
 388.421 520.404 l 2
 390.323 516.805 391.255 512.926 391.255 508.988 c 0
 391.255 489.081 384 491.769 384 487.872 c 2
 384 331.158 l 1
 471.6 330.961 501.847 322.585 533.611 296.165 c 0
 577.977 259.263 596.483 213.037 596.483 151.943 c 0
 596.483 94.5702 556.764 35.4971 501.115 15.0738 c 0
 474.826 5.42594 426.561 -1 389.697 -1 c 2
 271.972 -1 l 1
 272.836 426.5 l 1
 194.384 426.5 l 1
 190.646 299.861 186.227 169.126 180.709 116.893 c 0
 170.704 22.171 132.951 -8.17969 93.1035 -8.17969 c 0
 59.1433 -8.17969 28.1474 9.18516 6.14015 39.8883 c 2
EndSplineSet
EndChar

StartChar: afii10107
Encoding: 1114 1114 454
Width: 600
Flags: W
LayerCount: 2
Fore
SplineSet
129.168 0 m 1
 15.168 0 l 1
 15.168 528.7 l 1
 129.168 528.7 l 1
 129.168 323 l 1
 266.168 323 l 1
 266.168 528.7 l 1
 281.168 528.7 l 0
 308.171 528.7 335.161 528.67 362.173 528.67 c 0
 377.448 528.665 l 1
 381.591 520.37 l 0
 383.459 516.832 384.423 512.935 384.423 508.986 c 0
 384.423 489.079 377.168 491.767 377.168 487.87 c 0
 377.168 331.157 l 1
 464.762 330.968 501.185 323.134 533.611 296.164 c 0
 577.977 259.262 596.483 213.036 596.483 151.943 c 0
 596.483 94.5698 556.764 35.497 501.115 15.0737 c 0
 474.348 5.25059 419.709 -1 382.865 -1 c 0
 265.168 -1 l 1
 265.168 224 l 1
 129.168 224 l 1
 129.168 0 l 1
377.168 251.68 m 1
 377.168 99.9004 l 1
 391.933 99.9004 l 0
 415.322 99.9004 429.239 100.136 450.364 107.73 c 0
 480.515 118.568 488.229 139.355 488.229 166.694 c 0
 488.229 196.895 476.399 236.822 448.015 244.557 c 0
 422.965 251.383 404.155 251.671 377.168 251.68 c 1
EndSplineSet
EndChar

StartChar: afii10108
Encoding: 1115 1115 455
Width: 600
Flags: W
LayerCount: 2
Fore
SplineSet
102.5 600 m 1
 30 600 l 1
 30 692 l 1
 102.5 692 l 1
 102.5 770 l 1
 224.241 770 l 1
 227.701 759.831 l 0
 228.615 757.145 229.072 754.339 229.072 751.526 c 0
 229.072 737.257 218.2 729.432 217.594 728.793 c 0
 217.594 728.793 217.5 728.76 217.5 728 c 0
 217.5 692 l 1
 348 692 l 1
 348 600 l 1
 217.5 600 l 1
 217.5 464.521 l 1
 258.8 509.428 315.497 542.003 378.457 542.003 c 0
 444.601 542.003 504.425 506.445 533.116 445.007 c 0
 553.49 401.379 553.5 357.489 553.5 318.378 c 0
 553.5 0 l 1
 441.5 0 l 1
 441.5 312.662 l 0
 441.5 348.056 440.454 385.997 416.107 413.233 c 0
 400.044 431.2 378.319 439.58 355.841 439.58 c 0
 307.862 439.58 259.64 399.709 240.805 376.214 c 0
 221.071 351.598 217.5 331.845 217.5 299.556 c 0
 217.5 0 l 1
 102.5 0 l 1
 102.5 600 l 1
EndSplineSet
EndChar

StartChar: afii10193
Encoding: 1119 1119 458
Width: 600
Flags: W
LayerCount: 2
Fore
SplineSet
250 0 m 1
 58.168 0 l 1
 58.168 530 l 1
 172.168 530 l 1
 172.168 99 l 1
 434.168 99 l 1
 434.168 530 l 1
 545.168 530 l 1
 545.168 0 l 1
 361 0 l 1
 361 -168 l 1
 250 -168 l 1
 250 0 l 1
EndSplineSet
EndChar

StartChar: afii10050
Encoding: 1168 1168 459
Width: 600
Flags: W
LayerCount: 2
Fore
SplineSet
171.21 0 m 1
 63 0 l 1
 63 723 l 1
 424 723 l 1
 424 917 l 1
 536 917 l 1
 536 621 l 1
 170 621 l 1
 170 83.0134 l 1
 170.082 56.4588 170.607 41.4224 170.999 14.5075 c 0
 171.21 0 l 1
EndSplineSet
EndChar

StartChar: afii10098
Encoding: 1169 1169 460
Width: 600
Flags: W
LayerCount: 2
Fore
SplineSet
197.5 0 m 1
 85.5 0 l 1
 85.5 531.041 l 1
 399.5 530.184 l 1
 399.5 674.7 l 1
 511.5 674.7 l 1
 511.5 437.499 l 1
 197.5 438.457 l 1
 197.5 0 l 1
EndSplineSet
EndChar

StartChar: afii61352
Encoding: 8470 8470 461
Width: 600
Flags: W
LayerCount: 2
Fore
SplineSet
367.149 324.869 m 0
 367.149 456.809 410.355 555.011 472.749 555.011 c 0
 527.688 555.011 571.632 477.266 571.632 338.756 c 0
 571.632 189.29 524.534 110.94 468.931 110.94 c 0
 409.332 110.94 367.149 199.072 367.149 324.869 c 0
469.78 470 m 0
 464.94 470 442.099 434.156 442.099 330.214 c 0
 442.099 229.514 465.125 197.925 469.848 197.925 c 0
 473.978 197.925 497.311 226.881 497.311 330.207 c 0
 497.311 433.669 474.748 470 469.78 470 c 0
355.093 0 m 1
 355.093 73 l 1
 589.005 73 l 1
 589.005 0 l 1
 355.093 0 l 1
118.005 0 m 1
 20.0049 0 l 1
 20.0049 722 l 1
 116.686 722 l 1
 225.505 314.252 l 1
 225.505 724 l 1
 330.222 724 l 1
 331.411 715.364 l 0
 332.841 704.982 328.277 697.039 326.977 694.566 c 0
 323.963 688.834 323.505 689.329 323.505 683 c 0
 323.505 0 l 1
 241.909 0 l 1
 118.005 424.831 l 1
 118.005 0 l 1
EndSplineSet
EndChar

StartChar: Hbar
Encoding: 294 294 462
Width: 600
Flags: W
LayerCount: 2
Fore
SplineSet
58 628.871 m 1
 58 722 l 1
 172.268 722 l 1
 176.415 713.711 l 0
 178.292 709.958 179.252 705.831 179.252 701.663 c 0
 179.252 680.84 172 683.256 172 679 c 0
 172 625.001 l 1
 425 625.001 l 1
 425 722 l 1
 536.498 722 l 1
 540.866 714.711 l 0
 543.15 711.053 544.336 706.877 544.336 702.643 c 0
 544.336 680.841 536 684.623 536 682.356 c 0
 536 628.61 l 1
 585 628.61 l 1
 585 540.311 l 1
 536 540.311 l 1
 536 -1 l 1
 424 -1 l 1
 424 329 l 1
 172 329 l 1
 172 0 l 1
 58 0 l 1
 58 540.541 l 1
 15 540.541 l 1
 15 628.871 l 1
 58 628.871 l 1
425 428 m 1
 425 548.001 l 1
 172 548.001 l 1
 172 428 l 1
 425 428 l 1
EndSplineSet
EndChar

StartChar: Tbar
Encoding: 358 358 485
Width: 600
Flags: W
LayerCount: 2
Fore
SplineSet
31 620 m 1
 31 723 l 1
 561 723 l 1
 561 620 l 1
 348 620 l 1
 348 435 l 1
 512 435 l 1
 512 340 l 1
 348 340 l 1
 348 -1 l 1
 236 -1 l 1
 236 340 l 1
 84 340 l 1
 84 435 l 1
 236 435 l 1
 236 620 l 1
 31 620 l 1
EndSplineSet
EndChar

StartChar: tbar
Encoding: 359 359 491
Width: 600
Flags: W
LayerCount: 2
Fore
SplineSet
204.019 529 m 1
 213.869 668.873 l 1
 327.471 687.599 l 1
 332.416 677.708 l 0
 335.276 671.989 335 666.811 335 665 c 0
 335 649.283 327.626 640.987 326.761 637.328 c 1
 323.1 614.823 317.79 557.424 315.359 530 c 1
 487 530 l 1
 487 431 l 1
 311.606 431 l 1
 308.074 398.387 305.777 366.325 304.448 335 c 1
 462.002 335 l 1
 462.002 240 l 1
 303.035 240 l 1
 303.389 181.893 305.654 168.337 305.975 161.491 c 1
 314.295 111.526 347.467 97 380 97 c 0
 408.501 97 446.777 110.304 490.13 142.096 c 0
 505.823 153.605 l 1
 543.194 58.7409 l 1
 533.87 51.9039 l 0
 486.817 17.3976 423.106 -10 356 -10 c 0
 298.061 -10 250.96 11.5559 222.766 48.7926 c 1
 188.339 94.8906 189 148.82 189 192.83 c 0
 189 208.486 189.148 224.711 189.403 240 c 1
 82.001 240 l 1
 82.001 335 l 1
 192.284 335 l 1
 193.975 367.982 196.115 398.746 198.833 431 c 1
 75.7778 431 l 1
 77.219 529 l 1
 204.019 529 l 1
EndSplineSet
EndChar

StartChar: Uogonek
Encoding: 370 370 499
Width: 600
Flags: W
LayerCount: 2
Fore
SplineSet
53 253.135 m 2
 53 722 l 1
 168.873 722 l 1
 172.777 712.932 l 2
 174.382 709.374 175.2 705.548 175.2 701.688 c 0
 175.2 688.566 166.491 680.441 164.796 678.167 c 0
 162.354 674.888 163 676.308 163 671.96 c 2
 163 254.914 l 2
 163 220.739 163.879 190.121 178.924 159.415 c 0
 202.224 111.861 251.009 85.9209 303.067 85.9209 c 0
 354.255 85.9209 402.976 111.258 426.962 158.647 c 0
 443.042 190.417 444 222.298 444 257.889 c 2
 444 722 l 1
 551 722 l 1
 551 256.979 l 2
 551 206.129 549.57 154.815 520.269 102.926 c 0
 513.251 90.5 506.083 79.428 497.089 69.0384 c 1
 497.089 69.0384 497.045 69.0193 497 69 c 0
 494.362 66.3127 491.725 63.6253 489.087 60.938 c 0
 487.853 59.6482 486.604 58.3755 485.34 57.12 c 2
 419.009 -10.4639 l 1
 380.297 -42.2617 351.791 -71.0215 342.054 -81.1064 c 0
 333.927 -89.5234 324.048 -100.944 324.048 -114.147 c 0
 324.048 -127.628 334.161 -138.797 351.947 -138.797 c 0
 358.17 -138.797 365.99 -137.343 377.804 -133.041 c 0
 395.22 -126.698 406.238 -119.132 413.169 -113.382 c 2
 423 -105.226 l 1
 423 -173.74 l 1
 420.929 -175.534 l 2
 396.829 -196.419 366.674 -204.002 336.9 -204.002 c 0
 274.603 -204.002 240.051 -171.589 240.051 -131.394 c 0
 240.051 -96.084 268.682 -55.4164 320.354 -12.487 c 1
 314.071 -12.8782 307.768 -13.0732 301.461 -13.0732 c 0
 212.016 -13.0732 126.087 25.4688 82.9365 102.388 c 0
 54.25 153.525 53 204.017 53 253.135 c 2
EndSplineSet
EndChar

StartChar: IJ
Encoding: 306 306 515
Width: 600
Flags: W
LayerCount: 2
Fore
SplineSet
303 -1 m 1
 15 -1 l 1
 15 97 l 1
 93 97 l 1
 93 624 l 1
 23 624 l 1
 23 722 l 1
 600 722 l 1
 600 624 l 1
 529 624 l 1
 529 69.3013 l 0
 529 19.5655 529.395 -36.3089 499.179 -90.163 c 1
 462.408 -157.216 395.031 -194 321 -194 c 0
 253.396 -194 187.292 -162.942 141.532 -108.669 c 0
 133.501 -99.144 l 1
 205.109 -11.6232 l 1
 216.762 -21.6112 l 0
 227.744 -31.0246 226.42 -45.0458 226.444 -45.2985 c 1
 235.073 -54.219 274.563 -92 323 -92 c 0
 352.001 -92 379.187 -77.6066 395.51 -52.6931 c 1
 417.552 -21.4244 419 19.6199 419 60.5882 c 0
 419 624 l 1
 204 624 l 1
 204 96 l 1
 303 96 l 1
 303 -1 l 1
EndSplineSet
EndChar

StartChar: ij
Encoding: 307 307 516
Width: 600
Flags: W
LayerCount: 2
Fore
SplineSet
355 0 m 1
 15 0 l 1
 15 97 l 1
 141 97 l 1
 141 432 l 1
 22 432 l 1
 22 530 l 1
 536 530 l 1
 536 45.5112 l 0
 536 1.85047 534.923 -42.6284 510.522 -88.2025 c 0
 471.593 -164.44 391.691 -202.181 311.699 -202.181 c 0
 241.854 -202.181 179.223 -173.162 138.321 -122.413 c 0
 131.002 -113.331 l 1
 201.43 -19.4271 l 1
 213.549 -29.4325 l 0
 226.944 -40.4903 226.657 -54.0136 226.905 -54.4192 c 0
 229.568 -58.7706 260.723 -100.016 317.016 -100.016 c 0
 356.49 -100.016 392.498 -79.3769 409.849 -41.934 c 0
 421.308 -18.6777 422 4.79048 422 31.3512 c 0
 422 431 l 1
 255 431 l 1
 255 97 l 1
 355 97 l 1
 355 0 l 1
199.99 610.992 m 0
 158.626 610.992 124.981 644.333 124.981 685.486 c 0
 124.981 726.639 158.611 760 199.99 760 c 0
 241.349 760 275.019 726.66 275.019 685.486 c 0
 275.019 644.336 241.372 610.992 199.99 610.992 c 0
479.99 610.992 m 0
 438.626 610.992 404.981 644.333 404.981 685.486 c 0
 404.981 726.639 438.611 760 479.99 760 c 0
 521.349 760 555.019 726.66 555.019 685.486 c 0
 555.019 644.336 521.372 610.992 479.99 610.992 c 0
EndSplineSet
EndChar

StartChar: napostrophe
Encoding: 329 329 519
Width: 600
Flags: W
LayerCount: 2
Fore
SplineSet
280 0 m 1
 165 0 l 1
 165 529 l 1
 280 529 l 1
 280 467.249 l 1
 315.4 510.57 358.215 542.003 419.957 542.003 c 0
 486.102 542.003 545.924 506.445 574.617 445.007 c 0
 594.988 401.377 595 357.491 595 318.378 c 0
 595 0 l 1
 483 0 l 1
 483 312.662 l 0
 483 348.055 481.953 385.998 457.607 413.232 c 0
 441.544 431.201 419.819 439.58 397.341 439.58 c 0
 350.635 439.58 324.67 402.865 303.305 376.214 c 0
 283.572 351.597 280 331.845 280 299.556 c 0
 280 0 l 1
EndSplineSet
Refer: 56 8217 N 1 0 0 1 -190 0 2
EndChar

StartChar: longs
Encoding: 383 383 526
Width: 600
Flags: W
LayerCount: 2
Fore
SplineSet
293 0 m 1
 183 0 l 1
 183 535 l 0
 183 582.225 184.885 630.049 214.231 677.871 c 1
 254.537 743.234 329.914 777 408 777 c 0
 478.934 777 540.526 749.228 581.564 699.553 c 0
 587.748 692.068 l 1
 541.325 598 l 1
 532 598 l 0
 521.67 598 509.068 607.181 508.015 621.594 c 1
 507.575 624.368 507.474 626.055 507.429 626.453 c 1
 506.816 627.218 l 1
 506.406 627.851 l 0
 487.059 657.753 449.603 682 404 682 c 0
 364.452 682 329.069 664.318 310.042 630.591 c 1
 294.234 602.927 292.992 569.427 292.992 534.431 c 0
 292.992 530.957 293 527.478 293 524 c 0
 293 0 l 1
EndSplineSet
EndChar

StartChar: endash
Encoding: 8211 8211 541
Width: 600
Flags: W
LayerCount: 2
Fore
SplineSet
108 326 m 1
 108 433 l 1
 492 433 l 1
 492 326 l 1
 108 326 l 1
EndSplineSet
EndChar

StartChar: emdash
Encoding: 8212 8212 542
Width: 600
Flags: W
LayerCount: 2
Fore
SplineSet
38.5205 326 m 1
 38.5205 433 l 1
 570.521 433 l 1
 570.521 326 l 1
 38.5205 326 l 1
EndSplineSet
EndChar

StartChar: afii00208
Encoding: 8213 8213 543
Width: 600
Flags: W
LayerCount: 2
Fore
SplineSet
-15 326 m 1
 -15 433 l 1
 615 433 l 1
 615 326 l 1
 -15 326 l 1
EndSplineSet
EndChar

StartChar: quotereversed
Encoding: 8219 8219 545
Width: 600
Flags: W
LayerCount: 2
Fore
SplineSet
313.465 429.474 m 0
 231.745 505.113 186 576.466 186 637.653 c 0
 186 697.848 230.707 738.93 281.48 738.93 c 0
 328.128 738.93 363.18 704.951 363.18 666.451 c 0
 363.18 631.11 333.853 615.188 324.175 609.435 c 0
 313.502 603.088 303.726 597.466 303.726 583.751 c 0
 303.726 571.601 313.22 555.608 318.696 547.566 c 0
 329.546 531.632 348.306 507.417 374.306 486.041 c 0
 386.613 474.722 l 1
 323.388 419.4 l 1
 313.465 429.474 l 0
EndSplineSet
EndChar

StartChar: uni201F
Encoding: 8223 8223 546
Width: 600
Flags: W
LayerCount: 2
Fore
SplineSet
193.465 429.474 m 0
 111.745 505.114 66 576.465 66 637.653 c 0
 66 697.848 110.707 738.93 161.48 738.93 c 0
 208.128 738.93 243.18 704.951 243.18 666.451 c 0
 243.18 631.11 213.852 615.188 204.175 609.435 c 0
 193.502 603.088 183.726 597.466 183.726 583.751 c 0
 183.726 571.601 193.22 555.608 198.696 547.566 c 0
 209.546 531.632 228.306 507.417 254.306 486.041 c 0
 266.613 474.722 l 1
 203.388 419.4 l 1
 193.465 429.474 l 0
433.465 429.474 m 0
 351.745 505.113 306 576.466 306 637.653 c 0
 306 697.848 350.707 738.93 401.48 738.93 c 0
 448.128 738.93 483.18 704.951 483.18 666.451 c 0
 483.18 631.11 453.853 615.188 444.175 609.435 c 0
 433.502 603.088 423.726 597.466 423.726 583.751 c 0
 423.726 571.601 433.22 555.608 438.696 547.566 c 0
 449.546 531.632 468.306 507.417 494.306 486.041 c 0
 506.613 474.722 l 1
 443.388 419.4 l 1
 433.465 429.474 l 0
EndSplineSet
EndChar

StartChar: perthousand
Encoding: 8240 8240 547
Width: 600
Flags: W
LayerCount: 2
Fore
SplineSet
132.009 575.617 m 0
 132.009 655.614 112.854 659.005 112.854 659.005 c 1
 111.434 659.005 94.3389 650.544 94.3389 583.522 c 0
 94.3389 507.26 112.934 501.411 113.68 501.411 c 0
 115.165 501.411 132.009 510.2 132.009 575.617 c 0
15.4346 579.701 m 0
 15.4346 667.747 58.3715 735.106 113.965 735.106 c 0
 170.825 735.106 213.344 664.084 213.344 574.688 c 0
 213.344 570.598 213.252 566.545 213.07 562.534 c 2
 257.229 722 l 1
 350.846 722 l 1
 213.869 244.552 l 1
 231.75 278.223 258.454 299.012 288.973 299.012 c 0
 345.832 299.012 388.352 229.664 388.352 142.375 c 0
 388.352 57.3058 346.555 -11.6123 289.712 -11.6123 c 0
 232.47 -11.6123 190.442 58.5676 190.442 144.666 c 0
 190.442 153.449 190.864 162.028 191.677 170.356 c 1
 142.675 -0.196333 l 1
 53.1409 -0.196333 l 1
 185.729 471.299 l 1
 168.151 442.39 143.336 424.482 114.704 424.482 c 0
 57.462 424.482 15.4346 494.186 15.4346 579.701 c 0
511.1 139.522 m 0
 511.1 219.519 491.945 222.91 491.945 222.91 c 1
 490.525 222.91 473.43 214.449 473.43 147.427 c 0
 473.43 71.1652 492.025 65.3164 492.771 65.3164 c 0
 494.256 65.3164 511.1 74.1052 511.1 139.522 c 0
394.525 143.606 m 0
 394.525 231.653 437.462 299.012 493.056 299.012 c 0
 549.915 299.012 592.435 229.664 592.435 142.375 c 0
 592.435 57.3058 550.638 -11.6123 493.795 -11.6123 c 0
 436.553 -11.6123 394.525 58.0916 394.525 143.606 c 0
307.017 139.522 m 0
 307.017 219.519 287.862 222.91 287.862 222.91 c 1
 286.442 222.91 269.347 214.449 269.347 147.427 c 0
 269.347 71.1652 287.942 65.3164 288.688 65.3164 c 0
 290.173 65.3164 307.017 74.1052 307.017 139.522 c 0
EndSplineSet
EndChar

StartChar: minute
Encoding: 8242 8242 548
Width: 600
Flags: W
LayerCount: 2
Fore
SplineSet
210.621 511 m 1
 293.476 740 l 1
 432.764 740 l 1
 313.086 511 l 1
 210.621 511 l 1
EndSplineSet
EndChar

StartChar: uni207F
Encoding: 8319 8319 552
Width: 600
Flags: W
LayerCount: 2
Fore
SplineSet
249.7 500 m 0
 249.7 292 l 1
 148.7 292 l 1
 148.7 609.4 l 1
 249.7 609.4 l 1
 249.7 590.151 l 1
 273.789 607.217 300.057 617.202 330.274 617.202 c 0
 376.395 617.202 417.876 590.045 437.348 547.048 c 1
 451.84 532.932 451.3 519.802 451.3 509.6 c 0
 451.3 292 l 1
 352.1 292 l 1
 352.1 508.4 l 0
 352.1 524.24 350.991 533.723 342.582 540.622 c 0
 341.495 541.514 l 1
 340.593 542.592 l 0
 334.068 529.421 325.882 523.748 316.704 523.748 c 0
 294.425 523.748 269.196 532.344 258.931 537.394 c 1
 250.911 525.885 249.7 518.676 249.7 500 c 0
EndSplineSet
EndChar

StartChar: franc
Encoding: 8355 8355 553
Width: 600
Flags: W
LayerCount: 2
Fore
SplineSet
218 223 m 1
 218 0 l 1
 106 0 l 1
 106 223 l 1
 16.5 223 l 1
 16.5 323 l 1
 106 323 l 1
 106 374.7 l 1
 16.5 374.7 l 1
 16.5 474.7 l 1
 106 474.7 l 1
 106 723 l 1
 552 723 l 1
 552 622 l 1
 218 622 l 1
 218 474.7 l 1
 488 474.7 l 1
 488 374.7 l 1
 218 374.7 l 1
 218 323 l 1
 488 323 l 1
 488 223 l 1
 218 223 l 1
EndSplineSet
EndChar

StartChar: lira
Encoding: 8356 8356 554
Width: 600
Flags: W
LayerCount: 2
Fore
SplineSet
504.139 659.055 m 0
 514.452 649.596 l 1
 445.751 563.383 l 1
 434.131 571.903 l 0
 418.842 583.112 417.286 596.623 416.418 597.577 c 0
 413.874 600.373 384.087 626.128 341.348 626.128 c 0
 287.448 626.128 232.781 590.096 232.781 508.175 c 0
 232.781 490.252 235.44 471.923 239.401 453 c 1
 357 453 l 1
 357 357 l 1
 261.587 357 l 1
 264.033 345.692 266.371 333.536 268.077 323 c 1
 357 323 l 1
 357 227 l 1
 272.001 227 l 1
 268.156 191.888 257.849 159.963 242.791 131.956 c 1
 246.165 132.006 245.345 131.995 247.063 131.995 c 0
 330.872 131.995 379.965 88.916 438.359 88.916 c 0
 466.558 88.916 493.28 99.4465 514.245 117.395 c 0
 528.633 129.712 l 1
 573.986 41.9319 l 1
 564.335 34.2589 l 0
 537.06 12.5719 490.132 -17.1631 434.141 -17.1631 c 0
 352.31 -17.1631 304.869 34.666 227.673 34.666 c 0
 206.235 34.666 164.545 31.0802 92.0098 -7.2613 c 0
 77.9332 -14.7021 l 1
 35.1754 73.8683 l 1
 48.7094 79.7552 l 0
 103.751 103.696 112.55 106.495 128.669 130.105 c 0
 147.915 158.294 160.21 191.552 164.552 227 c 1
 73 227 l 1
 73 323 l 1
 159.322 323 l 1
 157.196 334.247 154.302 347.218 151.995 357 c 1
 73 357 l 1
 73 453 l 1
 130.277 453 l 1
 126.956 471.759 124.93 489.648 124.93 508.815 c 0
 124.93 639.836 228.143 722.006 343.371 722.006 c 0
 402.369 722.006 459.809 699.711 504.139 659.055 c 0
EndSplineSet
EndChar

StartChar: peseta
Encoding: 8359 8359 555
Width: 600
VWidth: 0
Flags: W
LayerCount: 2
Fore
SplineSet
440.866 260.985 m 0
 428.363 270.913 385.166 304.109 377.639 383.8 c 1
 376.806 344.916 376.465 307.902 376.465 269 c 0
 376.465 192.139 377.637 172.509 377.66 167.429 c 0
 381.654 102.035 399.924 88.5 406.5 88.5 c 0
 425.839 88.5 449.35 88 477.052 88 c 0
 484.293 88 503.861 106.832 503.861 156.757 c 0
 503.861 174.681 500.724 199.78 490.094 215.978 c 0
 480.328 230.86 461.818 244.349 440.866 260.985 c 0
142.501 616 m 2
 108.967 616 l 1
 108.476 405 l 1
 146.658 405 l 2
 158.764 405 165.266 405.23 174.441 414.503 c 0
 189.232 429.451 200.021 466.261 200.021 507.699 c 0
 200.021 550.039 188.73 589.616 172.651 605.505 c 0
 162.356 615.909 155.569 616 142.501 616 c 2
477.734 -12 m 0
 440.945 -12 424.755 -11.5 388.5 -11.5 c 0
 349.622 -11.5 316.547 14.9685 300.403 52.2759 c 0
 280.899 97.9694 281.353 150.373 281.353 195.174 c 0
 281.353 266.536 282.945 339.941 285.635 410.489 c 1
 275.118 377.158 260.713 350.404 239.299 330.877 c 0
 210.752 305.229 181.067 304 155.773 304 c 2
 109 304 l 1
 109 0 l 1
 15 0 l 1
 15 722 l 1
 152.435 722 l 2
 178.833 722 209.455 720.695 238.901 695.245 c 0
 265.78 672.327 282.954 636.591 292.402 597.368 c 1
 295.708 672.205 l 1
 385.491 691.729 l 1
 388.532 677.693 l 2
 389.309 674.106 389.222 671.276 389.222 669.453 c 0
 389.222 658.402 386.587 652.274 385.993 645.399 c 0
 384.565 625.581 382.324 569.752 381.377 545 c 1
 441.578 545 l 1
 456.095 553.523 468.572 557.004 484.123 557.004 c 0
 528.99 557.004 564.77 520.723 587.904 464.728 c 2
 589.957 459.758 l 1
 560.794 364.332 l 1
 544.779 372.708 l 2
 536.145 377.225 533.958 386.614 533.985 395.362 c 0
 534.001 400.708 534.166 400.107 533.712 401.393 c 0
 525.143 425.685 489.24 464.074 479.687 464.074 c 0
 477.89 464.074 460.423 450.426 460.423 408.536 c 0
 460.423 392.655 463.343 370.493 474.192 353.945 c 0
 484.777 337.802 523.689 324.539 554.275 287.98 c 0
 586.245 249.764 593 199.809 593 162.778 c 0
 593 84.8251 558.893 -12 477.734 -12 c 0
379.439 433.704 m 1
 379.704 435.415 379.956 438.031 380.174 440.379 c 1
 379.861 438.168 379.516 435.927 379.439 433.704 c 1
EndSplineSet
EndChar

StartChar: uni2070
Encoding: 8304 8304 556
Width: 600
Flags: W
LayerCount: 2
Fore
SplineSet
302.057 289.378 m 0
 198.931 289.378 96.421 382.849 96.421 534.826 c 0
 96.421 666.688 197.053 752.429 301.052 752.429 c 0
 402.213 752.429 502.929 671.057 502.929 530.904 c 0
 502.929 369.482 396.751 289.378 302.057 289.378 c 0
198.097 543.414 m 0
 198.097 528.595 199.335 514.459 201.356 501.576 c 1
 362.451 638.31 l 1
 341.812 659.602 319.782 667.153 300.192 667.153 c 0
 259.565 667.153 198.097 628.085 198.097 543.414 c 0
304.262 376.425 m 0
 340.573 376.425 401.957 410.476 401.957 525.168 c 0
 401.957 541.899 400.583 558.724 398.679 571.922 c 1
 238.375 413.194 l 1
 260.121 386.877 283.007 376.425 304.262 376.425 c 0
EndSplineSet
EndChar

StartChar: uni2075
Encoding: 8309 8309 557
Width: 600
Flags: W
LayerCount: 2
Fore
SplineSet
195.544 498.11 m 1
 126.489 519.701 l 1
 149.395 743.381 l 1
 477.73 743.381 l 1
 477.73 656.887 l 1
 241.722 656.887 l 1
 236.554 613.034 l 1
 260.881 619.125 282.331 621.524 306.062 621.524 c 0
 408.068 621.524 499.022 564.248 499.022 457.446 c 0
 499.022 346.584 403.011 289.381 298.484 289.381 c 0
 226.162 289.381 156.93 315.407 114.219 364.218 c 0
 97.4292 383.405 l 1
 186.446 435.094 l 1
 196.858 429.344 l 0
 209.641 422.283 213.086 408.66 213.527 404.143 c 1
 225.232 394.55 255.845 374.658 297.699 374.658 c 0
 350.687 374.658 391.67 404.628 391.67 458.385 c 0
 391.67 514.095 348.806 542.404 296.339 542.404 c 0
 262.636 542.404 227.433 529.202 204.514 506.856 c 0
 195.544 498.11 l 1
EndSplineSet
EndChar

StartChar: uni2076
Encoding: 8310 8310 558
Width: 600
Flags: W
LayerCount: 2
Fore
SplineSet
112.172 518.844 m 0
 112.172 557.412 116.682 605.295 138.493 646.637 c 0
 177.09 722.536 260 754.258 333.92 754.258 c 0
 383.917 754.258 433.858 738.516 471.162 709.634 c 0
 491.539 693.857 l 1
 416.726 629.728 l 1
 403.917 636.941 l 0
 393.214 642.967 387.448 652.943 386.084 655.615 c 1
 378.52 659.862 359.803 668.373 333.92 668.373 c 0
 303.034 668.373 241.854 660.7 222.729 599.334 c 1
 250.058 615.033 282.545 623.347 316.601 623.347 c 0
 405.328 623.347 493.476 563.929 493.476 458.502 c 0
 493.476 353.844 405.54 290.001 310.303 290.001 c 0
 254.768 290.001 197.46 311.347 159.673 355.924 c 0
 118.247 404.73 112.172 465.807 112.172 518.844 c 0
312.664 375.886 m 0
 352.108 375.886 389.283 399.645 389.283 455.455 c 0
 389.283 518.344 347.905 538.071 310.303 538.071 c 0
 277.463 538.071 241.111 518.739 219.632 491.991 c 1
 219.485 488.91 219.514 487.002 219.514 483.492 c 0
 219.514 419.047 261.442 375.886 312.664 375.886 c 0
EndSplineSet
EndChar

StartChar: uni2077
Encoding: 8311 8311 559
Width: 600
Flags: W
LayerCount: 2
Fore
SplineSet
351.146 654.449 m 1
 122.406 654.449 l 1
 122.406 743.381 l 1
 486.391 743.381 l 1
 486.391 696.385 l 1
 483.593 692.12 l 0
 445.382 633.841 409.57 574.698 376.439 515.179 c 1
 344.084 447.746 314.018 379.332 286.504 310.521 c 0
 281.225 297.315 l 1
 163.597 297.315 l 1
 176.059 326.579 l 1
 209.958 398.37 246.327 469.398 285.252 539.849 c 0
 306.417 578.154 328.757 616.963 351.146 654.449 c 1
EndSplineSet
EndChar

StartChar: uni2078
Encoding: 8312 8312 560
Width: 600
Flags: W
LayerCount: 2
Fore
SplineSet
193.077 543.202 m 1
 156.831 566.035 132.604 598.469 132.604 636.328 c 0
 132.604 706.558 214.836 754.904 307.328 754.904 c 0
 396.034 754.904 476.314 709.422 476.314 640.331 c 0
 476.314 601.624 448.482 567.297 411.746 544.469 c 1
 461.006 518.458 495.337 478.996 495.337 431.915 c 0
 495.337 347.199 404.235 289.962 299.377 289.962 c 0
 196.673 289.962 105.752 345.481 105.752 428.976 c 0
 105.752 476.759 144.152 517.651 193.077 543.202 c 1
302.293 376.492 m 0
 357.307 376.492 388.696 407.214 388.696 432.43 c 0
 388.696 458.227 354.974 492.589 289.095 510.36 c 1
 240.009 492.518 213.21 461.257 213.21 435.526 c 0
 213.21 408.274 246.345 376.492 302.293 376.492 c 0
314.044 557.81 m 1
 353.284 576.58 371.964 601.858 371.964 620.425 c 0
 371.964 640.179 347.29 665.43 302.433 665.43 c 0
 258.621 665.43 235.982 641.188 235.982 623.63 c 0
 235.982 594.862 289.528 566.967 314.044 557.81 c 1
EndSplineSet
EndChar

StartChar: uni2079
Encoding: 8313 8313 561
Width: 600
Flags: W
LayerCount: 2
Fore
SplineSet
491.901 543.834 m 0
 491.901 468.997 475.89 426.584 465.417 404.282 c 0
 426.292 325.116 345.498 290.001 270.153 290.001 c 0
 218.647 290.001 169.396 305.84 131.526 334.479 c 0
 110.732 350.205 l 1
 185.347 414.164 l 1
 197.911 407.679 l 0
 209.075 401.917 214.762 392.373 216.564 388.687 c 1
 224.431 384.959 243.979 377.104 271.728 377.104 c 0
 308.163 377.104 346.19 391.438 365.69 426.174 c 1
 368.875 432.543 376.81 449.956 381.731 479.447 c 1
 354.458 464.623 323.087 457.007 289.834 457.007 c 0
 198.795 457.007 112.959 512.398 112.959 602.283 c 0
 112.959 692.333 199.02 753.647 296.92 753.647 c 0
 362.092 753.647 436.446 726.222 470.401 659.033 c 1
 485.503 629.548 491.901 593.609 491.901 543.834 c 0
295.345 667.763 m 0
 253.268 667.763 217.151 645.781 217.151 604.039 c 0
 217.151 562.13 254.396 542.282 296.132 542.282 c 0
 328.599 542.282 362.713 555.881 383.753 575.383 c 1
 384.43 580.974 384.56 582.407 384.56 585.839 c 0
 384.56 639.026 342.367 667.763 295.345 667.763 c 0
EndSplineSet
EndChar

StartChar: afii61248
Encoding: 8453 8453 562
Width: 600
Flags: W
LayerCount: 2
Fore
SplineSet
176.525 748.014 m 0
 226.417 748.014 270.433 725.786 296.338 687.817 c 2
 306.93 672.289 l 1
 249.715 605.377 l 1
 230.943 619.544 l 0
 220.677 627.289 218.228 638.921 217.902 643.856 c 1
 211.692 650.681 197.498 662.537 173.89 662.537 c 0
 139.919 662.537 111.484 638.298 111.484 589.563 c 0
 111.484 538.276 141.818 509.489 177.378 509.489 c 0
 196.532 509.489 215.528 518.055 228.755 533.042 c 0
 247.775 554.594 l 1
 304.99 487.842 l 1
 289.827 471.497 l 0
 259.678 438.999 217.501 421.499 173.891 421.499 c 0
 84.2976 421.499 18.5 493.313 18.5 585.255 c 0
 18.5 677.178 84.5607 748.014 176.525 748.014 c 0
306.434 142.905 m 0
 306.434 229.767 374.247 295.503 456.72 295.503 c 0
 531.204 295.503 599.557 239.283 599.557 143.699 c 0
 599.557 51.5216 532.672 -7 455.484 -7 c 0
 374.076 -7 306.434 56.9452 306.434 142.905 c 0
455.807 78.9961 m 0
 478.657 78.9961 507.584 94.9384 507.584 142.315 c 0
 507.584 194.856 476.47 210.052 453.879 210.052 c 0
 429.534 210.052 400.492 192.119 400.492 146.119 c 0
 400.492 99.3041 430.549 78.9961 455.807 78.9961 c 0
EndSplineSet
Refer: 274 8260 N 1 0 0 1 0 0 2
EndChar

StartChar: afii61289
Encoding: 8467 8467 563
Width: 600
Flags: W
LayerCount: 2
Fore
SplineSet
312.245 165.688 m 1
 339.003 121.197 366.855 103 391.934 103 c 0
 415.199 103 435.019 106.893 465.405 108.965 c 0
 481.751 110.08 l 1
 479.544 0 l 1
 446.614 0 l 0
 434.243 0 401.874 1.00684 391.287 1.00684 c 0
 326.996 1.00684 268.388 37.3692 223.164 100.611 c 1
 189.117 85.3583 154.436 77.3484 115.819 77.3484 c 0
 100.684 77.3484 l 1
 101.599 175.545 l 1
 116.465 175.545 l 0
 136.837 175.545 156.935 180.998 175.127 189.97 c 1
 142.671 269.505 120.027 369.779 120.027 492.569 c 0
 120.027 576.452 145.85 777 298.151 777 c 0
 406.635 777 451.786 669.9 451.786 495.815 c 0
 451.786 385.804 400.604 250.988 312.245 165.688 c 1
337.84 479.839 m 0
 337.84 631.915 322.978 676.098 292.469 676.098 c 0
 277.276 676.098 234.245 622.149 238.139 489.24 c 0
 240.781 399.091 251.501 320.598 267.194 257.821 c 1
 311.483 326.455 337.84 413.921 337.84 479.839 c 0
EndSplineSet
EndChar

StartChar: estimated
Encoding: 8494 8494 565
Width: 600
Flags: W
LayerCount: 2
Fore
SplineSet
310 730 m 0
 396 730 521.318 668.39 545.318 478.202 c 0
 549.166 451.584 550.957 426.254 550.957 395.504 c 0
 550.957 378.288 550.396 360.649 549.318 342.652 c 1
 180.318 342.652 l 1
 180.318 144.407 l 1
 225.082 85.277 285.653 66.8535 327 66.8535 c 0
 380 66.8535 455.318 96.1055 490.318 150.43 c 1
 536.318 97.8271 l 1
 491.318 25.502 396 -12 320 -12 c 0
 177 -12 40.3184 113.898 40.3184 350.964 c 0
 40.3184 609.459 183 730 310 730 c 0
180.318 411.909 m 1
 410.318 411.909 l 1
 410.318 599.326 l 1
 379.99 634.474 341.466 656.061 304 656.061 c 0
 270.445 656.061 219.672 637.142 180.318 582.906 c 1
 180.318 411.909 l 1
EndSplineSet
EndChar

StartChar: arrowleft
Encoding: 8592 8592 570
Width: 600
Flags: W
LayerCount: 2
Fore
SplineSet
264.631 180.284 m 1
 203.87 106.185 l 1
 15 339.625 l 1
 15 373.725 l 1
 207.564 582.556 l 1
 264.158 505.015 l 1
 163.114 407 l 1
 585 407 l 1
 585 300 l 1
 160.523 300 l 1
 264.631 180.284 l 1
EndSplineSet
EndChar

StartChar: arrowright
Encoding: 8594 8594 571
Width: 600
Flags: W
LayerCount: 2
Fore
SplineSet
585 339.625 m 1
 396.13 106.185 l 1
 335.369 180.284 l 1
 439.477 300 l 1
 15 300 l 1
 15 407 l 1
 436.886 407 l 1
 335.842 505.015 l 1
 392.436 582.556 l 1
 585 373.725 l 1
 585 339.625 l 1
EndSplineSet
EndChar

StartChar: arrowboth
Encoding: 8596 8596 572
Width: 600
Flags: W
LayerCount: 2
Fore
SplineSet
585 339.625 m 1
 396.13 106.185 l 1
 335.369 180.284 l 1
 439.477 300 l 1
 160.523 300 l 1
 264.631 180.284 l 1
 203.87 106.185 l 1
 15 339.625 l 1
 15 373.725 l 1
 207.564 582.556 l 1
 264.158 505.015 l 1
 163.114 407 l 1
 436.886 407 l 1
 335.842 505.015 l 1
 392.436 582.556 l 1
 585 373.725 l 1
 585 339.625 l 1
EndSplineSet
EndChar

StartChar: arrowupdn
Encoding: 8597 8597 573
Width: 600
Flags: W
LayerCount: 2
Fore
SplineSet
541.915 237.248 m 1
 311.255 -39 l 1
 271.368 -39 l 1
 56.707 240.758 l 1
 139.549 296.462 l 1
 244 163.702 l 1
 244 551.906 l 1
 126.183 405.812 l 1
 53.0852 465.752 l 1
 283.745 742 l 1
 323.632 742 l 1
 538.293 462.242 l 1
 455.451 406.538 l 1
 351 548.2 l 1
 351 160.511 l 1
 468.817 297.188 l 1
 541.915 237.248 l 1
EndSplineSet
EndChar

StartChar: partialdiff
Encoding: 8706 8706 574
Width: 600
Flags: W
LayerCount: 2
Fore
SplineSet
444.002 276.071 m 0
 444.002 423.246 358.007 455.011 305.228 455.011 c 0
 236.094 455.011 159.996 401.101 159.996 276.519 c 0
 159.996 152.433 233.342 87.9971 306.097 87.9971 c 0
 362.608 87.9971 444.002 127.723 444.002 276.071 c 0
164.758 732.737 m 0
 122.801 750.561 l 1
 267.525 779.814 l 1
 272.403 777.046 l 0
 454.827 677.314 558.317 511.101 558.317 296.544 c 0
 558.317 235.433 551.228 161.295 511.335 97.5491 c 0
 466.028 25.1591 388.676 -14.0059 306.684 -14.0059 c 0
 163.865 -14.0059 41.7783 103.172 41.7783 265.664 c 0
 41.7783 426.938 159.266 556.31 298.018 556.31 c 0
 333.755 556.31 368.607 546.683 397.596 530.707 c 1
 344.714 622.415 261.983 691.053 164.758 732.737 c 0
EndSplineSet
EndChar

StartChar: radical
Encoding: 8730 8730 580
Width: 600
Flags: W
LayerCount: 2
Fore
SplineSet
185.006 471.762 m 1
 283.507 170.274 l 1
 514.74 776.009 l 1
 610.649 729.17 l 1
 334.497 0 l 1
 229.001 0 l 1
 120.549 331.247 l 1
 15 140.514 l 1
 15 346.788 l 1
 86.1142 471.762 l 1
 185.006 471.762 l 1
EndSplineSet
EndChar

StartChar: infinity
Encoding: 8734 8734 581
Width: 600
Flags: W
LayerCount: 2
Fore
SplineSet
423.611 231.299 m 0
 367.018 231.299 321.723 259.972 293.401 296.58 c 1
 266.379 261.221 223.784 231.299 180.664 231.299 c 0
 104.085 231.299 41.1738 319.347 41.1738 398.552 c 0
 41.1738 474.568 100.977 561 176.389 561 c 0
 233.558 561 279.123 528.822 306.593 492.348 c 1
 334.183 528.97 375.706 561 419.336 561 c 0
 495.915 561 558.826 472.952 558.826 393.747 c 0
 558.826 317.731 499.023 231.299 423.611 231.299 c 0
342.084 388.628 m 1
 361.81 354.513 387.574 326.404 414.347 326.404 c 0
 433.031 326.404 469.352 363.674 469.352 397.794 c 0
 469.352 431.1 433.941 466.747 417.552 466.747 c 0
 389.411 466.747 353.49 411.937 342.084 388.628 c 1
257.916 403.671 m 1
 238.19 437.786 212.426 465.895 185.653 465.895 c 0
 166.969 465.895 130.648 428.625 130.648 394.505 c 0
 130.648 361.199 166.059 325.552 182.448 325.552 c 0
 210.589 325.552 246.51 380.362 257.916 403.671 c 1
EndSplineSet
EndChar

StartChar: orthogonal
Encoding: 8735 8735 582
Width: 600
Flags: W
LayerCount: 2
Fore
SplineSet
198 573 m 1
 198 283 l 1
 503 283 l 1
 503 182 l 1
 97 182 l 1
 97 573 l 1
 198 573 l 1
EndSplineSet
EndChar

StartChar: intersection
Encoding: 8745 8745 583
Width: 600
Flags: W
LayerCount: 2
Fore
SplineSet
160 70 m 1
 53 70 l 1
 53 259.927 l 0
 53 312.851 54.4293 366.261 83.7307 420.267 c 0
 127.955 501.774 214.875 541 302.539 541 c 0
 391.983 541 477.915 500.885 521.063 420.827 c 0
 549.751 367.603 551 315.048 551 263.927 c 0
 551 70 l 1
 441 70 l 1
 441 264.927 l 0
 441 300.738 440.12 332.819 425.076 364.995 c 0
 401.775 414.825 352.993 442.006 300.933 442.006 c 0
 249.744 442.006 201.024 415.474 177.038 365.85 c 0
 160.958 332.581 160 299.196 160 261.927 c 0
 160 70 l 1
EndSplineSet
EndChar

